<svg width="63" height="64" viewBox="0 0 63 64" fill="none" xmlns="http://www.w3.org/2000/svg">
<path d="M31.3466 63.1445C48.6041 63.1445 62.5942 49.1364 62.5942 31.8566C62.5942 14.5767 48.6041 0.568604 31.3466 0.568604C14.089 0.568604 0.098999 14.5767 0.098999 31.8566C0.098999 49.1364 14.089 63.1445 31.3466 63.1445Z" fill="#0268D3"/>
<path fill-rule="evenodd" clip-rule="evenodd" d="M38.4351 43.4413C38.7363 44.2012 39.3748 44.756 40.1337 44.756H46.5302C47.277 44.756 47.807 44.1891 47.4697 43.4413L36.9294 19.6557C36.5921 18.9079 35.9898 18.3772 35.2309 18.3772H27.5093C26.7625 18.3772 26.1602 18.9441 25.8109 19.6919L15.2705 43.4413C14.9332 44.2012 15.4632 44.756 16.2101 44.756H22.2331C22.98 44.756 23.6305 44.1891 23.9317 43.4413L25.2447 40.052H37.098L38.411 43.4413H38.4351ZM31.0991 26.2896H31.4725L34.4841 33.8282H27.8948L31.0991 26.2896Z" fill="white"/>
</svg>
