<svg width="63" height="64" viewBox="0 0 63 64" fill="none" xmlns="http://www.w3.org/2000/svg">
<path d="M31.5465 63.0632C48.8041 63.0632 62.7941 49.0551 62.7941 31.7753C62.7941 14.4954 48.8041 0.487305 31.5465 0.487305C14.289 0.487305 0.29895 14.4954 0.29895 31.7753C0.29895 49.0551 14.289 63.0632 31.5465 63.0632Z" fill="#0268D3"/>
<path fill-rule="evenodd" clip-rule="evenodd" d="M44.9381 26.4847C44.9381 22.5285 41.5531 19.1392 33.8315 19.1392H20.2797C19.5328 19.1392 18.9667 19.7061 18.9667 20.4539V44.2033C18.9667 44.9511 19.5328 45.518 20.2797 45.518H35.3373C43.2395 45.518 46.8172 41.9357 46.8172 37.7865C46.8172 32.8895 41.1676 31.7557 41.1676 31.7557V31.3817C41.1676 31.3817 44.9381 30.2479 44.9381 26.4847ZM35.3373 34.9641C37.2165 34.9641 38.1561 35.9049 38.1561 37.2196C38.1561 38.5343 37.2165 39.4872 35.3373 39.4872H27.2423V34.9641H35.3373ZM33.8315 25.1579C35.5662 25.1579 36.2769 25.9178 36.2769 27.0396C36.2769 28.1613 35.53 28.9212 33.8315 28.9212H27.2423V25.1459H33.8315V25.1579Z" fill="white"/>
</svg>
