<svg width="59" height="24" viewBox="0 0 59 24" fill="none" xmlns="http://www.w3.org/2000/svg">
<path fill-rule="evenodd" clip-rule="evenodd" d="M11.7079 0.612671H47.2559C53.4476 0.612671 58.5191 5.68408 58.5191 11.8758C58.5191 18.0675 53.4476 23.1389 47.2559 23.1389H11.7079C5.51624 23.1389 0.444824 18.0675 0.444824 11.8758C0.444824 5.68408 5.51624 0.612671 11.7079 0.612671Z" fill="#F0F0F0"/>
<path fill-rule="evenodd" clip-rule="evenodd" d="M29.4763 4.28674C31.5723 4.28674 33.4635 5.14201 34.8368 6.50322C36.21 7.87648 37.0532 9.76773 37.0532 11.8637C37.0532 13.9598 36.198 15.851 34.8247 17.2243C33.4515 18.5975 31.5602 19.4528 29.4642 19.4528C27.3682 19.4528 25.4769 18.6096 24.1037 17.2363C22.7304 15.863 21.8872 13.9598 21.8872 11.8758C21.8872 9.79183 22.7425 7.88853 24.1037 6.51528L24.1519 6.46708C25.5251 5.11792 27.3923 4.28674 29.4642 4.28674H29.4763ZM33.6321 7.71989C32.5721 6.65983 31.1025 5.9973 29.4763 5.9973C27.85 5.9973 26.4165 6.63573 25.3565 7.67169L25.3204 7.71989C24.2603 8.77994 23.5978 10.2496 23.5978 11.8758C23.5978 13.502 24.2603 14.9716 25.3204 16.0317C26.3804 17.0917 27.85 17.7543 29.4763 17.7543C31.1025 17.7543 32.5721 17.0917 33.6321 16.0317C34.6922 14.9716 35.3548 13.502 35.3548 11.8758C35.3548 10.2496 34.6922 8.77994 33.6321 7.71989Z" fill="#AAAAAA"/>
</svg>
