<svg width="59" height="24" viewBox="0 0 59 24" fill="none" xmlns="http://www.w3.org/2000/svg">
<path fill-rule="evenodd" clip-rule="evenodd" d="M11.3349 0.612671H46.8829C53.0746 0.612671 58.146 5.68408 58.146 11.8758C58.146 18.0675 53.0746 23.1389 46.8829 23.1389H11.3349C5.14319 23.1389 0.0717773 18.0675 0.0717773 11.8758C0.0717773 5.68408 5.14319 0.612671 11.3349 0.612671Z" fill="#F0F0F0"/>
<path fill-rule="evenodd" clip-rule="evenodd" d="M29.1029 20.0671H23.4774C23.0076 20.0671 22.6221 19.6816 22.6221 19.2118V16.2003H18.8396C18.3698 16.2003 17.9844 15.8149 17.9844 15.3451C17.9844 15.0921 18.0928 14.8752 18.2614 14.7186L28.4886 3.92535C28.8138 3.58806 29.3559 3.57602 29.6932 3.90127L39.9926 14.7548C40.3178 15.0921 40.3058 15.6341 39.9685 15.9594C39.7999 16.116 39.595 16.1883 39.3782 16.1883H35.5958V19.1998C35.5958 19.6696 35.2103 20.0551 34.7405 20.0551H29.115L29.1029 20.0671ZM24.3327 18.3566H33.8732V15.3451C33.8732 14.8753 34.2586 14.4898 34.7284 14.4898H37.3906L29.1029 5.75634L20.8152 14.4898H23.4774C23.9472 14.4898 24.3327 14.8753 24.3327 15.3451V18.3566Z" fill="#AAAAAA"/>
</svg>
