<svg width="64" height="64" viewBox="0 0 64 64" fill="none" xmlns="http://www.w3.org/2000/svg">
<path d="M32.0799 63.1853C49.3374 63.1853 63.3274 49.1953 63.3274 31.9378C63.3274 14.6802 49.3374 0.690186 32.0799 0.690186C14.8223 0.690186 0.832275 14.6802 0.832275 31.9378C0.832275 49.1953 14.8223 63.1853 32.0799 63.1853Z" fill="#0268D3"/>
<path fill-rule="evenodd" clip-rule="evenodd" d="M39.1683 43.5075C39.4695 44.2664 40.1079 44.8205 40.8668 44.8205H47.2633C48.0102 44.8205 48.5402 44.2544 48.2029 43.5075L37.6625 19.7526C37.3252 19.0057 36.723 18.4757 35.9641 18.4757H28.2425C27.4956 18.4757 26.8934 19.0419 26.544 19.7887L16.0037 43.5075C15.6664 44.2664 16.1964 44.8205 16.9432 44.8205H22.9663C23.7131 44.8205 24.3637 44.2544 24.6648 43.5075L25.9778 40.1225H37.8312L39.1442 43.5075H39.1683ZM31.8323 26.3779H32.2057L35.2172 33.9068H28.628L31.8323 26.3779Z" fill="white"/>
</svg>
