<svg width="63" height="64" viewBox="0 0 63 64" fill="none" xmlns="http://www.w3.org/2000/svg">
<path d="M31.2803 2.03979C47.792 2.04005 61.1777 15.4264 61.1777 31.9382C61.1775 48.4498 47.7919 61.8354 31.2803 61.8357C14.7685 61.8357 1.38209 48.45 1.38184 31.9382C1.38184 15.4263 14.7683 2.03979 31.2803 2.03979Z" fill="url(#paint0_radial_55_106)" stroke="url(#paint1_linear_55_106)" stroke-width="2.7" stroke-miterlimit="22.93"/>
<path d="M29.5535 6.06185C16.4391 7.48453 11.0527 14.939 11.0527 14.939C28.1609 11.3394 37.1157 11.3839 51.9621 15.3004C51.9621 15.3004 42.6679 4.63917 29.5535 6.06185Z" fill="#F3F3F3"/>
<g filter="url(#filter0_d_55_106)">
<path fill-rule="evenodd" clip-rule="evenodd" d="M44.6713 26.6539C44.6713 22.7028 41.2863 19.3179 33.5648 19.3179H20.0129C19.2661 19.3179 18.7 19.884 18.7 20.6309V44.3497C18.7 45.0965 19.2661 45.6627 20.0129 45.6627H35.0706C42.9728 45.6627 46.5505 42.085 46.5505 37.9411C46.5505 33.0504 40.9009 31.9181 40.9009 31.9181V31.5447C40.9009 31.5447 44.6713 30.4123 44.6713 26.6539ZM35.0706 35.1223C36.9497 35.1223 37.8894 36.062 37.8894 37.375C37.8894 38.688 36.9497 39.6396 35.0706 39.6396H26.9756V35.1223H35.0706ZM33.5648 25.3289C35.2994 25.3289 36.0102 26.0878 36.0102 27.2081C36.0102 28.3284 35.2633 29.0873 33.5648 29.0873H26.9756V25.3168H33.5648V25.3289Z" fill="white"/>
</g>
<defs>
<filter id="filter0_d_55_106" x="11.5" y="13.9179" width="42.2506" height="40.7448" filterUnits="userSpaceOnUse" color-interpolation-filters="sRGB">
<feFlood flood-opacity="0" result="BackgroundImageFix"/>
<feColorMatrix in="SourceAlpha" type="matrix" values="0 0 0 0 0 0 0 0 0 0 0 0 0 0 0 0 0 0 127 0" result="hardAlpha"/>
<feOffset dy="1.8"/>
<feGaussianBlur stdDeviation="3.6"/>
<feComposite in2="hardAlpha" operator="out"/>
<feColorMatrix type="matrix" values="0 0 0 0 0 0 0 0 0 0 0 0 0 0 0 0 0 0 0.6 0"/>
<feBlend mode="normal" in2="BackgroundImageFix" result="effect1_dropShadow_55_106"/>
<feBlend mode="normal" in="SourceGraphic" in2="effect1_dropShadow_55_106" result="shape"/>
</filter>
<radialGradient id="paint0_radial_55_106" cx="0" cy="0" r="1" gradientUnits="userSpaceOnUse" gradientTransform="translate(31.2999 32.3) rotate(90) scale(27.9)">
<stop stop-color="white"/>
<stop offset="0.713725" stop-color="#F0F0F0"/>
<stop offset="1" stop-color="#CECECE"/>
</radialGradient>
<linearGradient id="paint1_linear_55_106" x1="31.2798" y1="3.50001" x2="31.2798" y2="62.9" gradientUnits="userSpaceOnUse">
<stop stop-color="#B2B2B2"/>
<stop offset="1" stop-color="#F2F2F2"/>
</linearGradient>
</defs>
</svg>
