<svg width="900" height="774" viewBox="0 0 900 774" fill="none" xmlns="http://www.w3.org/2000/svg">
<g clip-path="url(#clip0_55_2)">
<path fill-rule="evenodd" clip-rule="evenodd" d="M447.569 598.313H297.535C253.53 598.313 242.303 600.156 187.566 674.275C166.702 702.535 144.874 732.446 120.891 761.622C117.903 765.259 114.374 765.079 110.471 767.199C106.206 769.512 102.328 773.981 98.4608 773.933C87.0049 773.993 26.9551 745.287 17.8122 731.976C7.48865 716.943 2.04382 701.68 0.357362 662.795C-0.678602 638.896 0.791022 614.972 1.56197 591.085C3.41707 534.023 38.3387 414.694 103.749 252.638C112.735 233.713 133.382 217.439 145.862 209.416L145.826 198.358C145.826 187.324 181.699 167.388 225.15 155.113C244.616 149.62 269.804 144.38 289.391 144.38C304.774 144.38 321.735 148.596 325.048 153.318H340.997L342.804 149.077H556.875L558.682 153.318H574.631C577.944 148.596 594.904 144.38 610.287 144.38C629.874 144.38 655.063 149.62 674.529 155.113C717.979 167.376 753.853 187.312 753.853 198.358L753.817 209.416C766.296 217.439 786.943 233.713 795.93 252.638C861.34 414.694 896.262 534.023 898.117 591.085C898.888 614.984 900.357 638.896 899.321 662.795C897.635 701.68 892.19 716.955 881.879 731.976C872.736 745.287 812.674 773.981 801.23 773.933C797.363 773.981 793.484 769.524 789.22 767.199C785.317 765.079 781.788 765.259 778.8 761.622C754.816 732.446 732.989 702.535 712.125 674.275C657.388 600.156 646.161 598.313 602.156 598.313H447.557H447.569Z" fill="url(#paint0_linear_55_2)"/>
<path d="M621 338.4C639.391 338.4 654.3 323.491 654.3 305.1C654.3 286.709 639.391 271.8 621 271.8C602.609 271.8 587.7 286.709 587.7 305.1C587.7 323.491 602.609 338.4 621 338.4Z" fill="#9E9E9E"/>
<path fill-rule="evenodd" clip-rule="evenodd" d="M345.332 309.213V306.72H342.815V305.009H345.332V302.516H347.007V305.009H349.524V306.72H347.007V309.213H345.332Z" fill="#0268D3"/>
<path fill-rule="evenodd" clip-rule="evenodd" d="M296.22 306.72V305.009H302.942V306.72H296.22Z" fill="#0268D3"/>
<path fill-rule="evenodd" clip-rule="evenodd" d="M324.348 280.664C334.503 282.134 342.405 290.59 343.032 300.998H349.934C349.259 287.181 338.177 276.087 324.348 275.412V280.664ZM299.328 300.998C299.581 296.842 300.991 292.999 303.243 289.783L300.364 287.723C297.871 291.578 296.329 296.119 296.1 300.998H299.328ZM304.906 287.687C308.917 283.242 314.723 280.435 321.18 280.435C321.349 280.435 321.505 280.435 321.674 280.435V275.4C313.687 275.785 306.604 279.664 301.93 285.531L304.918 287.675L304.906 287.687Z" fill="#0268D3"/>
<path fill-rule="evenodd" clip-rule="evenodd" d="M322.276 289.651C328.877 289.651 334.226 294.999 334.226 301.6C334.226 308.202 328.877 313.55 322.276 313.55C315.675 313.55 310.326 308.202 310.326 301.6C310.326 294.999 315.675 289.651 322.276 289.651Z" fill="#9C9C9C"/>
<path fill-rule="evenodd" clip-rule="evenodd" d="M331.636 309.033C329.444 311.779 326.071 313.55 322.276 313.55C318.482 313.55 315.109 311.791 312.916 309.033L303.183 323.006L301.979 324.729C307.399 329.487 314.494 332.366 322.276 332.366C330.058 332.366 337.153 329.487 342.574 324.729L341.369 323.006L331.636 309.033Z" fill="url(#paint1_linear_55_2)"/>
<path d="M321.855 289.898C328.456 289.898 333.805 295.246 333.805 301.847C333.805 304.625 332.857 307.179 331.268 309.208L340.947 323.104L342.152 324.826C336.732 329.584 329.637 332.464 321.855 332.464C314.073 332.464 306.977 329.584 301.557 324.826L302.762 323.104L312.44 309.208C310.852 307.179 309.905 304.624 309.905 301.847C309.905 295.246 315.254 289.898 321.855 289.898Z" stroke="#E9E9E9" stroke-width="1.8" stroke-miterlimit="22.93" stroke-linejoin="round"/>
<path d="M666.803 521.472L666.818 521.489L666.834 521.504L729.956 585.3C739.814 595.262 742.286 609.617 736.353 622.255L736.064 622.856L711.865 671.983C685.174 635.93 668.787 617.111 653.602 607.363C638.083 597.4 623.897 596.962 601.914 596.962H297.28C275.296 596.962 261.11 597.399 245.59 607.363C230.406 617.111 214.018 635.93 187.328 671.983L163.129 622.856C156.929 610.286 159.15 595.879 168.774 585.779L169.238 585.3L232.359 521.504L232.375 521.489L232.39 521.472L393.639 347.398L399.571 354.56V354.559C402.502 358.11 406.509 360 411.128 360H488.066C492.53 359.999 496.429 358.225 499.342 354.888L499.622 354.561V354.56L505.553 347.398L666.803 521.472Z" fill="url(#paint2_linear_55_2)" stroke="#BDBDBD" stroke-width="2.7" stroke-miterlimit="22.93"/>
<g filter="url(#filter0_d_55_2)">
<path d="M325.396 530.379C370.449 530.379 406.972 493.856 406.972 448.803C406.972 403.749 370.449 367.227 325.396 367.227C280.343 367.227 243.82 403.749 243.82 448.803C243.82 493.856 280.343 530.379 325.396 530.379Z" fill="#D7D7D7"/>
<path d="M325.396 369.026C369.455 369.026 405.172 404.744 405.172 448.803C405.172 492.862 369.455 528.579 325.396 528.579C281.337 528.579 245.62 492.862 245.62 448.803C245.62 404.744 281.337 369.026 325.396 369.026Z" stroke="url(#paint3_linear_55_2)" stroke-width="3.6" stroke-miterlimit="22.93"/>
</g>
<path fill-rule="evenodd" clip-rule="evenodd" d="M300.601 530.11C308.443 532.615 316.803 533.976 325.488 533.976C334.173 533.976 342.521 532.627 350.375 530.11V484.106C350.375 480.347 353.447 477.275 357.206 477.275L394.89 482.623L403.21 477.275C405.715 469.433 407.076 461.073 407.076 452.388C407.076 443.703 405.727 435.355 403.21 427.501H357.206C353.447 427.501 350.375 424.429 350.375 420.671V374.667C342.533 372.161 334.173 370.8 325.488 370.8C316.803 370.8 308.455 372.149 300.601 374.667V420.671C300.601 424.429 297.529 427.501 293.771 427.501H247.767C245.261 435.343 243.9 443.703 243.9 452.388C243.9 461.073 245.249 469.421 247.767 477.275L255.964 482.623L293.771 477.275C297.529 477.275 300.601 480.347 300.601 484.106V530.11Z" fill="url(#paint4_linear_55_2)"/>
<path fill-rule="evenodd" clip-rule="evenodd" d="M300.601 522.91C308.443 525.415 316.803 526.776 325.488 526.776C334.173 526.776 342.521 525.427 350.375 522.91V476.906C350.375 473.147 353.447 470.075 357.206 470.075H403.21C405.715 462.233 407.076 453.873 407.076 445.188C407.076 436.503 405.727 428.155 403.21 420.301H357.206C353.447 420.301 350.375 417.229 350.375 413.471V367.467C342.533 364.961 334.173 363.6 325.488 363.6C316.803 363.6 308.455 364.949 300.601 367.467V413.471C300.601 417.229 297.529 420.301 293.771 420.301H247.767C245.261 428.143 243.9 436.503 243.9 445.188C243.9 453.873 245.249 462.221 247.767 470.075H293.771C297.529 470.075 300.601 473.147 300.601 476.906V522.91Z" fill="#F8F8F8"/>
<path fill-rule="evenodd" clip-rule="evenodd" d="M300.601 526.51C308.443 529.015 316.803 530.376 325.488 530.376C334.173 530.376 342.521 529.027 350.375 526.51V480.506C350.375 476.747 353.447 473.675 357.206 473.675H403.21C405.715 465.833 407.076 457.473 407.076 448.788C407.076 440.103 405.727 431.755 403.21 423.901H357.206C353.447 423.901 350.375 420.829 350.375 417.071V371.067C342.533 368.561 334.173 367.2 325.488 367.2C316.803 367.2 308.455 368.549 300.601 371.067V417.071C300.601 420.829 297.529 423.901 293.771 423.901H247.767C245.261 431.743 243.9 440.103 243.9 448.788C243.9 457.473 245.249 465.821 247.767 473.675H293.771C297.529 473.675 300.601 476.747 300.601 480.506V526.51Z" fill="#E5E5E5"/>
<path fill-rule="evenodd" clip-rule="evenodd" d="M173.891 598.553L196.128 572.052C201.886 565.186 212.222 564.282 219.088 570.04C225.954 575.798 226.858 586.134 221.1 593L198.863 619.502C193.105 626.368 182.769 627.271 175.903 621.513C169.037 615.755 168.133 605.42 173.891 598.553Z" fill="url(#paint5_linear_55_2)"/>
<path fill-rule="evenodd" clip-rule="evenodd" d="M181.348 604.805C179.047 607.552 179.42 611.756 182.155 614.057C184.901 616.357 189.105 615.984 191.406 613.25L213.643 586.748C215.944 584.002 215.571 579.798 212.836 577.497C210.09 575.196 205.886 575.569 203.585 578.304L181.348 604.805Z" fill="#767676"/>
<path d="M66.6799 438.645C67.129 437.079 68.7823 436.167 70.3518 436.617L70.6067 436.689L70.6184 436.677L193.776 471.996C195.293 472.431 196.197 473.996 195.843 475.52L195.804 475.668L192.108 488.563C192.07 488.689 191.942 488.761 191.814 488.728L189.186 487.973H189.187C188.62 487.802 188.021 488.109 187.816 488.647L187.781 488.75L179.12 518.937C178.944 519.538 179.299 520.171 179.899 520.336V520.337L182.531 521.094V521.095C182.642 521.128 182.712 521.231 182.704 521.343L182.696 521.391L178.856 534.802C178.407 536.368 176.765 537.28 175.183 536.83H175.184L151.155 529.941H151.156C150.388 529.714 149.583 529.915 149.022 530.492L148.912 530.613L145.555 534.512C145.226 534.893 144.745 535.038 144.244 534.901H144.243L78.9963 516.195C78.5133 516.051 78.1806 515.673 78.0999 515.171H78.0989L77.3293 510.092L77.3284 510.088L77.2981 509.932C77.1312 509.213 76.6333 508.649 75.9456 508.392L75.7952 508.343L75.7913 508.342L51.76 501.451C50.2424 501.016 49.3386 499.451 49.6926 497.927L49.7317 497.779L53.5745 484.36C53.6125 484.242 53.7171 484.182 53.8137 484.189L53.8557 484.197L53.8606 484.198L56.4983 484.958V484.957C57.0991 485.134 57.733 484.779 57.8977 484.179L57.8987 484.18L66.5598 453.992L66.5588 453.991C66.7356 453.39 66.3808 452.756 65.7805 452.592H65.7815L63.1438 451.833C63.0207 451.793 62.9507 451.665 62.9846 451.538L62.9836 451.537L66.6799 438.645Z" fill="url(#paint6_radial_55_2)" stroke="#9F9F9F" stroke-width="0.9" stroke-miterlimit="22.93"/>
<path fill-rule="evenodd" clip-rule="evenodd" d="M574.376 153.318C624.994 152.27 718.05 182.481 753.562 209.416L753.598 198.358C753.598 187.324 717.725 167.388 674.274 155.113C654.808 149.62 629.619 144.38 610.032 144.38C594.65 144.38 577.689 148.596 574.376 153.318Z" fill="url(#paint7_linear_55_2)"/>
<path fill-rule="evenodd" clip-rule="evenodd" d="M395.563 540H431.111C437.303 540 442.374 545.071 442.374 551.263C442.374 557.455 437.303 562.526 431.111 562.526H395.563C389.371 562.526 384.3 557.455 384.3 551.263C384.3 545.071 389.371 540 395.563 540Z" fill="#8C8C8C"/>
<path fill-rule="evenodd" clip-rule="evenodd" d="M463.063 540H498.611C504.803 540 509.874 545.071 509.874 551.263C509.874 557.455 504.803 562.526 498.611 562.526H463.063C456.871 562.526 451.8 557.455 451.8 551.263C451.8 545.071 456.871 540 463.063 540Z" fill="#8C8C8C"/>
<path d="M743.4 338.4C761.791 338.4 776.7 323.491 776.7 305.1C776.7 286.709 761.791 271.8 743.4 271.8C725.009 271.8 710.1 286.709 710.1 305.1C710.1 323.491 725.009 338.4 743.4 338.4Z" fill="#9E9E9E"/>
<path fill-rule="evenodd" clip-rule="evenodd" d="M0.308832 661.53C23.4012 681.9 62.033 700.054 102.436 710.775C109.23 699.957 116.59 689.863 124.878 679.828C130.045 673.504 133.105 666.349 120.975 660.844C64.4663 640.667 2.44099 623.633 2.03142 582.821C1.80255 585.7 1.64595 588.459 1.56163 591.085C0.802722 614.563 -0.630764 638.053 0.308832 661.542V661.53Z" fill="url(#paint8_radial_55_2)"/>
<path fill-rule="evenodd" clip-rule="evenodd" d="M102.436 710.775C62.033 700.054 23.4012 681.9 0.308838 661.53C0.320884 661.952 0.344976 662.373 0.357022 662.795C2.04348 701.68 7.48831 716.954 17.8118 731.976C24.5215 741.745 58.624 759.79 80.849 768.692C78.0182 762.44 78.8855 755.839 81.5718 749.949C88.1731 735.445 94.9671 722.688 102.436 710.787V710.775Z" fill="url(#paint9_radial_55_2)"/>
<path fill-rule="evenodd" clip-rule="evenodd" d="M823.826 382.563L860.65 495.386C861.846 499.068 859.818 503.06 856.137 504.268C852.455 505.464 848.463 503.436 847.255 499.755L839.437 475.806C839.059 474.655 837.809 474.01 836.658 474.388L835.279 474.841C834.128 475.218 832.878 474.585 832.5 473.422L814.044 416.878C813.666 415.727 814.299 414.477 815.462 414.1L816.842 413.647C817.993 413.269 818.638 412.019 818.26 410.868L810.442 386.919C809.246 383.238 811.274 379.246 814.956 378.037C818.637 376.841 822.629 378.869 823.838 382.551L823.826 382.563Z" fill="url(#paint10_linear_55_2)" stroke="#E5E5E5" stroke-width="1.8" stroke-miterlimit="22.93"/>
<path d="M682.2 280.8C700.591 280.8 715.5 265.891 715.5 247.5C715.5 229.109 700.591 214.2 682.2 214.2C663.809 214.2 648.9 229.109 648.9 247.5C648.9 265.891 663.809 280.8 682.2 280.8Z" fill="#9E9E9E"/>
<path d="M682.2 401.4C700.591 401.4 715.5 386.491 715.5 368.1C715.5 349.709 700.591 334.8 682.2 334.8C663.809 334.8 648.9 349.709 648.9 368.1C648.9 386.491 663.809 401.4 682.2 401.4Z" fill="#9E9E9E"/>
<path d="M219.317 1.34961C235.899 1.34965 251.429 12.5181 264.019 31.8682C276.392 50.8864 285.763 77.5899 290.332 108.525L290.547 110.002V110.003C291.301 115.279 287.954 120.216 282.847 121.528L282.348 121.645L158.044 147.182L158.043 147.183C154.779 147.857 151.724 147.063 149.198 144.891C146.747 142.782 145.491 139.996 145.57 136.802L145.582 136.491V136.488C147.454 98.3466 156.404 64.4508 169.693 40.1377C183.016 15.763 200.492 1.34961 219.317 1.34961Z" fill="url(#paint11_radial_55_2)" stroke="#B2B2B2" stroke-width="2.7" stroke-miterlimit="22.93"/>
<path d="M206.045 85.5V66.6H209.164V82.4895H218.357V85.5H206.045Z" fill="#8E8E8E"/>
<path d="M223.227 85.5V69.5835H217.895V66.6H231.678V69.5835H226.346V85.5H223.227Z" fill="#8E8E8E"/>
<path d="M680.185 1.34961C663.604 1.34965 648.074 12.5181 635.484 31.8682C623.11 50.8864 613.739 77.5899 609.171 108.525L608.956 110.002V110.003C608.202 115.279 611.548 120.216 616.656 121.528L617.155 121.645L741.459 147.182L741.46 147.183C744.723 147.857 747.778 147.063 750.304 144.891C752.756 142.782 754.012 139.996 753.932 136.802L753.921 136.491V136.488C752.049 98.3466 743.098 64.4508 729.809 40.1377C716.486 15.763 699.01 1.34961 680.185 1.34961Z" fill="url(#paint12_radial_55_2)" stroke="#CACACA" stroke-width="2.7" stroke-miterlimit="22.93"/>
<path d="M668.403 85.5V66.6H676.625C678.173 66.6 679.397 66.87 680.297 67.41C681.197 67.95 681.836 68.6565 682.214 69.5295C682.601 70.3935 682.794 71.3115 682.794 72.2835C682.794 73.0125 682.655 73.7415 682.376 74.4705C682.097 75.1995 681.66 75.852 681.066 76.428C680.481 76.995 679.73 77.4045 678.812 77.6565L682.646 85.5H679.149L675.464 78.021H671.522V85.5H668.403ZM671.522 75.105H676.679C677.408 75.105 677.984 74.97 678.407 74.7C678.839 74.43 679.145 74.0835 679.325 73.6605C679.505 73.2375 679.595 72.792 679.595 72.324C679.595 71.892 679.509 71.4645 679.338 71.0415C679.176 70.6095 678.879 70.2495 678.447 69.9615C678.024 69.6645 677.435 69.516 676.679 69.516H671.522V75.105Z" fill="#8E8E8E"/>
<path d="M690.569 85.5V69.5835H685.236V66.6H699.02V69.5835H693.687V85.5H690.569Z" fill="#8E8E8E"/>
<path fill-rule="evenodd" clip-rule="evenodd" d="M700.776 454.916V452.422H698.258V450.712H700.776V448.218H702.45V450.712H704.968V452.422H702.45V454.916H700.776Z" fill="#0268D3"/>
<path fill-rule="evenodd" clip-rule="evenodd" d="M651.664 452.422V450.712H658.385V452.422H651.664Z" fill="#0268D3"/>
<path fill-rule="evenodd" clip-rule="evenodd" d="M679.791 426.367C689.946 427.836 697.848 436.293 698.475 446.7H705.377C704.703 432.883 693.62 421.789 679.791 421.114V426.367ZM654.772 446.7C655.025 442.544 656.434 438.702 658.687 435.485L655.808 433.426C653.314 437.28 651.772 441.822 651.543 446.7H654.772ZM660.349 433.389C664.36 428.944 670.167 426.138 676.623 426.138C676.792 426.138 676.949 426.138 677.117 426.138V421.102C669.131 421.488 662.047 425.367 657.374 431.233L660.361 433.377L660.349 433.389Z" fill="#0268D3"/>
<path fill-rule="evenodd" clip-rule="evenodd" d="M677.719 435.353C684.321 435.353 689.669 440.701 689.669 447.303C689.669 453.904 684.321 459.252 677.719 459.252C671.118 459.252 665.77 453.904 665.77 447.303C665.77 440.701 671.118 435.353 677.719 435.353Z" fill="#9C9C9C"/>
<path fill-rule="evenodd" clip-rule="evenodd" d="M687.079 454.735C684.887 457.482 681.514 459.252 677.719 459.252C673.925 459.252 670.552 457.494 668.36 454.735L658.626 468.709L657.422 470.431C662.842 475.189 669.938 478.068 677.719 478.068C685.501 478.068 692.596 475.189 698.017 470.431L696.813 468.709L687.079 454.735Z" fill="url(#paint13_linear_55_2)"/>
<path d="M677.298 435.6C683.899 435.6 689.248 440.948 689.248 447.55C689.248 450.327 688.3 452.882 686.711 454.91L696.391 468.806L697.596 470.529C692.175 475.287 685.08 478.166 677.298 478.166C669.517 478.166 662.421 475.287 657 470.529L658.205 468.806L667.883 454.91C666.295 452.882 665.349 450.327 665.349 447.55C665.349 440.948 670.697 435.6 677.298 435.6Z" stroke="#F5F5F5" stroke-width="1.8" stroke-miterlimit="22.93" stroke-linejoin="round"/>
<path fill-rule="evenodd" clip-rule="evenodd" d="M782.256 619.362L786.82 617.468L784.518 611.922L793.439 608.219L795.741 613.765L800.305 611.871L794.155 597.052C793.453 595.361 791.5 594.553 789.808 595.256C785.84 596.903 781.871 598.55 777.903 600.197C776.211 600.899 775.403 602.852 776.106 604.544L782.256 619.362ZM790.175 600.354L791.771 604.2L782.851 607.903L781.254 604.057C781.149 603.803 781.27 603.51 781.524 603.405L789.523 600.085C789.777 599.98 790.07 600.101 790.175 600.354ZM802.023 611.158L806.587 609.263L804.285 603.717C807.756 602.277 811.227 600.836 814.698 599.395C816.39 598.693 817.197 596.741 816.495 595.048L813.922 588.848C813.219 587.156 811.267 586.349 809.575 587.051C804.582 589.123 799.59 591.196 794.598 593.268C797.073 599.231 799.548 605.194 802.023 611.158L802.023 611.158ZM809.941 592.15L811.538 595.996L802.617 599.699L800.83 595.392C803.65 594.221 806.47 593.051 809.29 591.881C809.543 591.775 809.836 591.896 809.942 592.15L809.941 592.15ZM821.189 603.203C826.586 600.963 831.984 598.722 837.381 596.482L835.713 592.464L824.086 597.29L822.875 594.373L832.04 590.569L830.372 586.55L821.207 590.354L819.996 587.437L831.623 582.611L829.955 578.593C824.558 580.833 819.161 583.073 813.764 585.313L821.189 603.203ZM852.668 590.137L858.018 587.917L847.355 581.856L850.593 570.027L845.243 572.247L843.251 579.524L836.692 575.796L831.342 578.017L842.005 584.077L838.768 595.907L844.118 593.686L846.109 586.41L852.668 590.137Z" fill="#898989"/>
<path d="M873.382 598.045C876.683 596.269 880.8 597.505 882.576 600.809C884.352 604.111 883.116 608.228 879.812 610.004C865.195 617.899 850.265 625.225 835.052 631.955C820.017 638.607 804.571 644.729 788.739 650.29C785.203 651.522 781.336 649.655 780.102 646.119C778.87 642.582 780.736 638.715 784.273 637.481C799.557 632.112 814.668 626.116 829.576 619.519C844.525 612.906 859.136 605.738 873.377 598.045H873.382Z" fill="#02FCFB"/>
<path d="M26.6183 598.045C23.3169 596.269 19.1998 597.505 17.4239 600.809C15.648 604.111 16.8844 608.228 20.188 610.004C34.8051 617.899 49.7349 625.225 64.9475 631.955C79.9831 638.607 95.4287 644.729 111.261 650.29C114.797 651.522 118.664 649.655 119.898 646.119C121.13 642.582 119.264 638.715 115.727 637.481C100.443 632.112 85.3323 626.116 70.424 619.519C55.4747 612.906 40.8642 605.738 26.6226 598.045H26.6183Z" fill="#02FCFB"/>
<path d="M603.905 588.057C623.194 588.113 639.503 588.904 656.646 599.903L657.443 600.424C665.763 605.954 676.682 616.088 688.709 628.716C701.125 641.754 714.73 657.459 727.884 673.522C754.191 705.645 778.705 739.209 788.317 755.74L788.608 756.261C789.986 758.834 790.239 760.951 789.916 762.642C789.588 764.362 788.665 765.626 787.756 766.472C784.43 765.042 781.406 764.779 778.796 761.6C754.812 732.425 732.985 702.514 712.121 674.254C657.384 600.134 646.156 598.292 602.152 598.292H297.53C253.526 598.292 242.299 600.135 187.562 674.254C166.698 702.514 144.87 732.425 120.886 761.6C118.186 764.888 115.044 765.058 111.584 766.624H111.547L111.509 766.591C110.56 765.746 109.565 764.447 109.22 762.646C108.876 760.844 109.187 758.556 110.82 755.74L111.765 754.141C121.972 737.114 145.773 704.645 171.258 673.526C184.412 657.464 198.017 641.759 210.434 628.72C222.849 615.684 234.086 605.306 242.503 599.903L243.359 599.361C261.331 588.167 278.453 588.052 299.142 588.052L449.574 587.762L603.905 588.057Z" fill="url(#paint14_linear_55_2)"/>
<path d="M564.081 531.787C608.09 531.787 643.766 496.111 643.766 452.103C643.766 408.094 608.09 372.418 564.081 372.418C520.072 372.418 484.396 408.094 484.396 452.103C484.396 496.111 520.072 531.787 564.081 531.787Z" fill="#969696"/>
<path d="M564.095 522.277C602.848 522.277 634.263 490.862 634.263 452.109C634.263 413.356 602.848 381.94 564.095 381.94C525.342 381.94 493.926 413.356 493.926 452.109C493.926 490.862 525.342 522.277 564.095 522.277Z" fill="url(#paint15_radial_55_2)"/>
<path d="M564.063 507.152C594.467 507.152 619.114 482.505 619.114 452.102C619.114 421.698 594.467 397.051 564.063 397.051C533.66 397.051 509.013 421.698 509.013 452.102C509.013 482.505 533.66 507.152 564.063 507.152Z" fill="#4A4A4A"/>
<path fill-rule="evenodd" clip-rule="evenodd" d="M572.641 531.384V521.808C569.846 522.145 566.992 522.326 564.1 522.326C561.209 522.326 558.367 522.145 555.56 521.808V531.384C558.367 531.686 561.209 531.842 564.1 531.842C566.992 531.842 569.834 531.686 572.641 531.384ZM494.45 443.617H484.873C484.572 446.423 484.416 449.266 484.416 452.157C484.416 455.048 484.572 457.891 484.873 460.698H494.45C494.113 457.903 493.932 455.048 493.932 452.157C493.932 449.266 494.113 446.411 494.45 443.617ZM520.891 396.866L514.121 390.096C509.676 393.673 505.629 397.733 502.051 402.166L508.821 408.936C512.338 404.443 516.398 400.383 520.891 396.866ZM572.641 382.495V372.918C569.834 372.617 566.992 372.46 564.1 372.46C561.209 372.46 558.367 372.617 555.56 372.918V382.495C558.354 382.157 561.209 381.977 564.1 381.977C566.992 381.977 569.846 382.157 572.641 382.495ZM619.392 408.936L626.162 402.166C622.584 397.721 618.525 393.673 614.092 390.096L607.322 396.866C611.815 400.383 615.875 404.443 619.392 408.936ZM633.763 460.686H643.34C643.641 457.879 643.797 455.036 643.797 452.145C643.797 449.254 643.641 446.411 643.34 443.604H633.763C634.1 446.399 634.281 449.254 634.281 452.145C634.281 455.036 634.1 457.891 633.763 460.686ZM508.821 495.367L502.051 502.136C505.629 506.581 509.688 510.629 514.121 514.207L520.891 507.437C516.398 503.919 512.338 499.86 508.821 495.367ZM607.322 507.437L614.092 514.207C618.537 510.629 622.584 506.569 626.162 502.136L619.392 495.367C615.875 499.86 611.815 503.919 607.322 507.437Z" fill="#B4B4B4"/>
<path d="M564.096 361.319C614.23 361.319 654.872 401.961 654.872 452.095H643.781C643.781 408.086 608.105 372.41 564.096 372.41C520.088 372.41 484.412 408.086 484.412 452.095H473.321C473.321 401.961 513.963 361.32 564.096 361.319Z" fill="url(#paint16_linear_55_2)"/>
<path d="M564.097 542.87C513.963 542.87 473.321 502.228 473.321 452.095L484.412 452.095C484.412 496.103 520.089 531.779 564.097 531.779C608.106 531.779 643.781 496.103 643.782 452.095L654.872 452.095C654.872 502.228 614.231 542.87 564.097 542.87Z" fill="url(#paint17_linear_55_2)"/>
<path fill-rule="evenodd" clip-rule="evenodd" d="M145.827 209.385C181.536 182.5 274.255 152.44 324.747 153.485L325.013 153.498L574.6 153.493C625.275 152.553 718.076 182.707 753.528 209.596H753.783C766.262 217.619 786.909 233.893 795.895 252.817C857.705 405.953 892.29 520.937 897.476 581.28C894.122 553.426 885.461 515.854 871.684 469.857C854.535 412.601 829.442 342.228 796.729 261.182L796.72 261.157L796.708 261.133L796.273 260.236C786.96 241.461 766.584 225.458 754.269 217.541L754.046 217.398H753.827C735.93 203.914 703.887 189.695 670.045 178.952C636.043 168.159 600.065 160.822 574.583 161.294L574.356 161.299H325.035L324.788 161.287H324.777L324.766 161.286L323.568 161.268C298.253 160.99 262.931 168.217 229.471 178.805C195.486 189.559 163.263 203.832 145.286 217.367L144.926 217.638V217.81C132.374 225.945 111.902 242.182 102.902 261.133L102.891 261.157L102.88 261.182C70.1683 342.227 45.0745 412.601 27.9255 469.857C14.1492 515.853 5.4882 553.425 2.13403 581.278C7.32017 520.934 41.9062 405.952 103.715 252.817C112.702 233.894 133.349 217.619 145.828 209.596L145.827 209.385Z" fill="url(#paint18_linear_55_2)"/>
<path fill-rule="evenodd" clip-rule="evenodd" d="M86.32 296.714C77.9479 318.289 70.1782 338.996 63.0228 358.764H85.9225C95.8123 358.764 104.124 351.934 106.027 342.225L112.568 308.929C113.183 305.821 112.436 302.894 110.424 300.449C108.413 298.003 105.678 296.714 102.51 296.714H86.3079H86.32Z" fill="url(#paint19_linear_55_2)"/>
<path fill-rule="evenodd" clip-rule="evenodd" d="M836.636 358.764C829.481 338.984 821.711 318.289 813.339 296.714H797.306C794.138 296.714 791.403 298.003 789.392 300.449C787.38 302.894 786.645 305.821 787.247 308.929L793.788 342.225C795.692 351.934 804.003 358.764 813.893 358.764H836.624H836.636Z" fill="url(#paint20_linear_55_2)"/>
<path d="M208.79 388.726C252.798 388.726 288.475 353.049 288.475 309.041C288.475 265.032 252.798 229.356 208.79 229.356C164.781 229.356 129.105 265.032 129.105 309.041C129.105 353.049 164.781 388.726 208.79 388.726Z" fill="#969696"/>
<path d="M208.804 379.215C247.557 379.215 278.972 347.8 278.972 309.047C278.972 270.294 247.557 238.878 208.804 238.878C170.051 238.878 138.635 270.294 138.635 309.047C138.635 347.8 170.051 379.215 208.804 379.215Z" fill="url(#paint21_radial_55_2)"/>
<path d="M208.772 364.091C239.176 364.091 263.823 339.444 263.823 309.04C263.823 278.636 239.176 253.989 208.772 253.989C178.368 253.989 153.721 278.636 153.721 309.04C153.721 339.444 178.368 364.091 208.772 364.091Z" fill="#4A4A4A"/>
<path fill-rule="evenodd" clip-rule="evenodd" d="M217.35 388.323V378.746C214.555 379.083 211.7 379.264 208.809 379.264C205.918 379.264 203.075 379.083 200.269 378.746V388.323C203.075 388.624 205.918 388.78 208.809 388.78C211.7 388.78 214.543 388.624 217.35 388.323ZM139.159 300.555H129.582C129.281 303.361 129.125 306.204 129.125 309.095C129.125 311.986 129.281 314.829 129.582 317.636H139.159C138.822 314.841 138.641 311.986 138.641 309.095C138.641 306.204 138.822 303.349 139.159 300.555ZM165.6 253.804L158.83 247.034C154.385 250.612 150.338 254.671 146.76 259.104L153.53 265.874C157.047 261.381 161.107 257.321 165.6 253.804ZM217.35 239.433V229.856C214.543 229.555 211.7 229.398 208.809 229.398C205.918 229.398 203.075 229.555 200.269 229.856V239.433C203.063 239.096 205.918 238.915 208.809 238.915C211.7 238.915 214.555 239.096 217.35 239.433ZM264.101 265.874L270.871 259.104C267.293 254.659 263.234 250.612 258.801 247.034L252.031 253.804C256.524 257.321 260.584 261.381 264.101 265.874ZM278.472 317.624H288.049C288.35 314.817 288.506 311.974 288.506 309.083C288.506 306.192 288.35 303.349 288.049 300.543H278.472C278.809 303.337 278.99 306.192 278.99 309.083C278.99 311.974 278.809 314.829 278.472 317.624ZM153.53 352.305L146.76 359.075C150.338 363.52 154.397 367.567 158.83 371.145L165.6 364.375C161.107 360.858 157.047 356.798 153.53 352.305ZM252.031 364.375L258.801 371.145C263.246 367.567 267.293 363.508 270.871 359.075L264.101 352.305C260.584 356.798 256.524 360.858 252.031 364.375Z" fill="#B4B4B4"/>
<path d="M208.805 218.257C258.939 218.257 299.581 258.899 299.581 309.033H288.49C288.49 265.024 252.814 229.348 208.805 229.348C164.797 229.349 129.121 265.024 129.121 309.033H118.03C118.03 258.899 158.672 218.258 208.805 218.257Z" fill="url(#paint22_linear_55_2)"/>
<path d="M208.806 399.808C158.672 399.808 118.03 359.166 118.03 309.033L129.121 309.033C129.121 353.041 164.797 388.717 208.806 388.717C252.815 388.717 288.49 353.041 288.49 309.033L299.581 309.033C299.581 359.166 258.94 399.808 208.806 399.808Z" fill="url(#paint23_linear_55_2)"/>
<path fill-rule="evenodd" clip-rule="evenodd" d="M325.066 153.318C274.448 152.27 181.392 182.481 145.88 209.416L145.844 198.358C145.844 187.324 181.718 167.388 225.168 155.113C244.634 149.62 269.823 144.38 289.41 144.38C304.793 144.38 321.753 148.596 325.066 153.318Z" fill="url(#paint24_linear_55_2)"/>
<path d="M80.374 487.612L86.5903 465.884L95.7643 468.508L94.9047 471.513L90.1568 470.154L88.4761 476.029L92.4998 477.18L91.6172 480.265L87.5936 479.114L84.8001 488.878L80.374 487.612Z" fill="#02FCFB"/>
<path d="M91.6644 490.842L97.8807 469.114L102.307 470.38L96.95 489.104L102.047 490.562L101.187 493.566L91.6644 490.842Z" fill="#02FCFB"/>
<path d="M104.488 494.511L106.952 485.9L106.466 471.57L110.624 472.76L110.771 481.072L115.131 474.049L119.154 475.2L111.217 487.12L108.754 495.731L104.488 494.511Z" fill="#02FCFB"/>
<path d="M114.638 497.415L120.854 475.687L126.166 477.206C128.008 477.733 129.369 478.384 130.25 479.158C131.155 479.92 131.676 480.872 131.813 482.014C131.956 483.138 131.802 484.487 131.352 486.061L129.088 493.974C128.627 495.584 128.034 496.846 127.308 497.76C126.582 498.674 125.638 499.236 124.475 499.445C123.336 499.642 121.863 499.481 120.057 498.965L114.638 497.415ZM119.947 495.596L120.886 495.865C121.708 496.1 122.325 496.141 122.737 495.988C123.171 495.822 123.505 495.501 123.737 495.026C123.975 494.533 124.201 493.911 124.416 493.16L126.98 484.201C127.194 483.45 127.303 482.833 127.306 482.35C127.332 481.854 127.196 481.448 126.9 481.131C126.622 480.819 126.089 480.551 125.302 480.325L124.39 480.065L119.947 495.596Z" fill="#02FCFB"/>
<path d="M130.069 501.829L136.285 480.101L140.684 481.36L134.468 503.088L130.069 501.829Z" fill="#02FCFB"/>
<path d="M143.256 505.95C141.79 505.531 140.714 504.894 140.03 504.04C139.35 503.169 138.984 502.116 138.931 500.882C138.901 499.635 139.1 498.261 139.53 496.759L141.61 489.489C142.055 487.933 142.627 486.646 143.324 485.627C144.022 484.607 144.923 483.927 146.027 483.585C147.149 483.248 148.514 483.31 150.124 483.77C151.68 484.215 152.83 484.825 153.576 485.6C154.34 486.379 154.783 487.299 154.905 488.359C155.027 489.42 154.902 490.603 154.528 491.908L154.168 493.169L149.849 491.933L150.286 490.404C150.45 489.832 150.558 489.321 150.609 488.871C150.665 488.404 150.595 488.007 150.398 487.679C150.22 487.357 149.844 487.115 149.272 486.951C148.682 486.782 148.209 486.811 147.854 487.039C147.499 487.266 147.216 487.611 147.007 488.073C146.802 488.518 146.623 489.008 146.469 489.545L143.714 499.175C143.54 499.783 143.438 500.343 143.407 500.857C143.376 501.37 143.466 501.802 143.675 502.152C143.902 502.508 144.293 502.764 144.847 502.923C145.402 503.082 145.872 503.061 146.258 502.862C146.644 502.663 146.959 502.337 147.205 501.885C147.473 501.42 147.697 500.875 147.876 500.249L148.536 497.942L146.417 497.336L147.184 494.653L153.3 496.403L150.108 507.562L147.211 506.733L147.503 504.698C147.027 505.278 146.442 505.701 145.747 505.966C145.052 506.232 144.222 506.226 143.256 505.95Z" fill="#02FCFB"/>
<path d="M153.2 508.447L159.416 486.719L163.815 487.978L157.599 509.705L153.2 508.447Z" fill="#02FCFB"/>
<path fill-rule="evenodd" clip-rule="evenodd" d="M899.33 661.53C876.237 681.9 837.606 700.054 797.203 710.775C790.409 699.957 783.049 689.863 774.761 679.828C769.593 673.504 766.534 666.349 778.664 660.844C835.172 640.667 897.198 623.633 897.607 582.821C897.836 585.7 897.993 588.459 898.077 591.085C898.836 614.563 900.269 638.053 899.33 661.542V661.53Z" fill="url(#paint25_radial_55_2)"/>
<path fill-rule="evenodd" clip-rule="evenodd" d="M797.203 710.775C837.606 700.054 876.237 681.9 899.33 661.53C899.318 661.952 899.294 662.373 899.282 662.795C897.595 701.68 892.15 716.954 881.827 731.976C875.117 741.745 841.015 759.79 818.79 768.692C821.62 762.44 820.753 755.839 818.067 749.949C811.466 735.445 804.672 722.688 797.203 710.787V710.775Z" fill="url(#paint26_radial_55_2)"/>
<path fill-rule="evenodd" clip-rule="evenodd" d="M726 598.553L703.763 572.052C698.005 565.186 687.669 564.282 680.803 570.04C673.937 575.798 673.033 586.134 678.791 593L701.028 619.502C706.786 626.368 717.122 627.271 723.988 621.513C730.854 615.755 731.758 605.42 726 598.553Z" fill="url(#paint27_linear_55_2)"/>
<path fill-rule="evenodd" clip-rule="evenodd" d="M718.543 604.805C720.844 607.552 720.471 611.756 717.736 614.057C714.99 616.357 710.786 615.984 708.485 613.25L686.248 586.748C683.947 584.002 684.32 579.798 687.055 577.497C689.801 575.196 694.005 575.569 696.306 578.304L718.543 604.805Z" fill="#767676"/>
<path fill-rule="evenodd" clip-rule="evenodd" d="M496.569 364.883L555.595 293.57L624.282 210.585C631.184 202.237 632.57 191.347 627.956 181.542C623.342 171.736 614.067 165.858 603.238 165.858H296.508C285.678 165.858 276.403 171.748 271.789 181.542C267.176 191.347 268.561 202.237 275.463 210.585L344.15 293.57L403.176 364.883C405.862 368.124 409.488 369.834 413.692 369.834H486.029C490.245 369.834 493.871 368.124 496.545 364.883H496.569Z" fill="url(#paint28_linear_55_2)" stroke="url(#paint29_linear_55_2)" stroke-width="3.6" stroke-miterlimit="22.93"/>
<path fill-rule="evenodd" clip-rule="evenodd" d="M411.031 178.566L442.194 191.636L447.013 200.43L443.712 206.549L438.255 197.503C437.93 196.961 437.472 196.587 436.87 196.382L426.57 192.913L439.737 213.681L437.388 217.957L411.019 178.566H411.031ZM459.396 217.933L485.608 178.59L454.481 191.721L438.749 220.571L448.41 245.771L458.071 220.571L453.048 211.452L449.819 216.68L452.084 220.282C452.433 220.848 452.554 221.45 452.445 222.101L448.422 245.338L444.374 222.077C444.266 221.438 444.374 220.848 444.712 220.294L458.625 197.346C458.962 196.792 459.432 196.419 460.058 196.214L470.249 192.985L457.071 213.657L459.42 217.921L459.396 217.933Z" fill="#F8F8F8"/>
<path fill-rule="evenodd" clip-rule="evenodd" d="M394.02 302.821H400.713V294.688H413.795V302.821H420.489V281.09C420.489 278.609 418.466 276.585 415.984 276.585C410.164 276.585 404.345 276.585 398.525 276.585C396.043 276.585 394.02 278.609 394.02 281.09V302.821ZM413.795 283.154V288.795H400.713V283.154C400.713 282.782 401.017 282.479 401.389 282.479H413.12C413.492 282.479 413.795 282.782 413.795 283.154ZM423.008 302.821H429.701V294.688C434.791 294.688 439.882 294.688 444.972 294.688C447.453 294.688 449.477 292.664 449.477 290.183V281.09C449.477 278.609 447.453 276.585 444.972 276.585C437.65 276.585 430.329 276.585 423.008 276.585C423.008 285.331 423.008 294.076 423.008 302.821V302.821ZM442.783 283.154V288.795H429.701V282.479C433.837 282.479 437.972 282.479 442.108 282.479C442.48 282.479 442.783 282.782 442.783 283.154H442.783ZM451.115 302.821C459.03 302.821 466.945 302.821 474.86 302.821V296.928H457.809V292.65H471.249V286.757H457.809V282.479H474.86V276.586C466.945 276.586 459.03 276.586 451.115 276.586V302.821ZM497.279 302.821H505.125L494.933 289.703L505.125 276.585H497.279L491.009 284.654L484.74 276.585H476.894L487.086 289.703L476.894 302.821H484.74L491.009 294.752L497.279 302.821Z" fill="#A4BDFF"/>
<path fill-rule="evenodd" clip-rule="evenodd" d="M544.896 242.467C550.69 247.322 559.399 246.563 564.254 240.769L586.503 214.255C591.357 208.461 590.598 199.752 584.804 194.897C579.01 190.042 570.301 190.801 565.446 196.596L543.197 223.109C538.343 228.903 539.101 237.612 544.896 242.467Z" fill="#646464"/>
<path fill-rule="evenodd" clip-rule="evenodd" d="M309.996 194.897C315.79 190.042 324.499 190.801 329.354 196.596L351.603 223.109C356.457 228.903 355.698 237.612 349.904 242.467C344.11 247.322 335.401 246.563 330.546 240.769L308.297 214.255C303.442 208.461 304.201 199.752 309.996 194.897Z" fill="#646464"/>
</g>
<defs>
<filter id="filter0_d_55_2" x="212.32" y="344.727" width="226.152" height="226.152" filterUnits="userSpaceOnUse" color-interpolation-filters="sRGB">
<feFlood flood-opacity="0" result="BackgroundImageFix"/>
<feColorMatrix in="SourceAlpha" type="matrix" values="0 0 0 0 0 0 0 0 0 0 0 0 0 0 0 0 0 0 127 0" result="hardAlpha"/>
<feOffset dy="9"/>
<feGaussianBlur stdDeviation="15.75"/>
<feComposite in2="hardAlpha" operator="out"/>
<feColorMatrix type="matrix" values="0 0 0 0 0 0 0 0 0 0 0 0 0 0 0 0 0 0 0.35 0"/>
<feBlend mode="normal" in2="BackgroundImageFix" result="effect1_dropShadow_55_2"/>
<feBlend mode="normal" in="SourceGraphic" in2="effect1_dropShadow_55_2" result="shape"/>
</filter>
<linearGradient id="paint0_linear_55_2" x1="887.85" y1="773.933" x2="21.15" y2="773.933" gradientUnits="userSpaceOnUse">
<stop stop-color="#CFCFCF"/>
<stop offset="0.22563" stop-color="#EBEBEB"/>
<stop offset="0.501052" stop-color="#CFCFCF"/>
<stop offset="0.792633" stop-color="#EBEBEB"/>
<stop offset="1" stop-color="#CFCFCF"/>
</linearGradient>
<linearGradient id="paint1_linear_55_2" x1="344.307" y1="332.366" x2="314.157" y2="332.366" gradientUnits="userSpaceOnUse">
<stop stop-color="#E0E0E0"/>
<stop offset="1" stop-color="#9C9C9C"/>
</linearGradient>
<linearGradient id="paint2_linear_55_2" x1="449.596" y1="374.85" x2="449.596" y2="586.8" gradientUnits="userSpaceOnUse">
<stop stop-color="#E3E3E3"/>
<stop offset="1" stop-color="#C8C8C8"/>
</linearGradient>
<linearGradient id="paint3_linear_55_2" x1="325.396" y1="367.227" x2="325.396" y2="530.379" gradientUnits="userSpaceOnUse">
<stop stop-color="white"/>
<stop offset="1" stop-color="#B0B0B0"/>
</linearGradient>
<linearGradient id="paint4_linear_55_2" x1="325.488" y1="483.936" x2="325.488" y2="472.742" gradientUnits="userSpaceOnUse">
<stop stop-color="#B7B7B7"/>
<stop offset="1" stop-color="#939393"/>
</linearGradient>
<linearGradient id="paint5_linear_55_2" x1="216.598" y1="568.316" x2="175.606" y2="618.923" gradientUnits="userSpaceOnUse">
<stop stop-color="#7D7D7D"/>
<stop offset="0.511409" stop-color="#949494"/>
<stop offset="1" stop-color="#ADADAD"/>
</linearGradient>
<radialGradient id="paint6_radial_55_2" cx="0" cy="0" r="1" gradientUnits="userSpaceOnUse" gradientTransform="translate(70.5404 436.052) rotate(16.6892) scale(88.6206 128.723)">
<stop stop-color="#D9D9D9"/>
<stop offset="1" stop-color="#C5C5C5"/>
</radialGradient>
<linearGradient id="paint7_linear_55_2" x1="753.598" y1="205.352" x2="570.463" y2="149.706" gradientUnits="userSpaceOnUse">
<stop stop-color="#A4A4A4"/>
<stop offset="0.226236" stop-color="#DEDEDE"/>
<stop offset="0.675384" stop-color="#E2E2E2"/>
<stop offset="1" stop-color="#A4A4A4"/>
</linearGradient>
<radialGradient id="paint8_radial_55_2" cx="0" cy="0" r="1" gradientUnits="userSpaceOnUse" gradientTransform="translate(123.957 660.856) rotate(180) scale(112.756 114.045)">
<stop stop-color="#CDCDCD"/>
<stop offset="1" stop-color="#828282"/>
</radialGradient>
<radialGradient id="paint9_radial_55_2" cx="0" cy="0" r="1" gradientUnits="userSpaceOnUse" gradientTransform="translate(96.8003 709.868) rotate(180) scale(96.4914 91.9575)">
<stop stop-color="#C4C4C4"/>
<stop offset="1" stop-color="#929292"/>
</radialGradient>
<linearGradient id="paint10_linear_55_2" x1="840.15" y1="437.85" x2="816.3" y2="445.05" gradientUnits="userSpaceOnUse">
<stop stop-color="#B2B2B2"/>
<stop offset="1" stop-color="#666666"/>
</linearGradient>
<radialGradient id="paint11_radial_55_2" cx="0" cy="0" r="1" gradientUnits="userSpaceOnUse" gradientTransform="translate(210.354 -3.33314e-06) rotate(80.7067) scale(131.723 131.723)">
<stop stop-color="white"/>
<stop offset="1" stop-color="#DFDFDF"/>
</radialGradient>
<radialGradient id="paint12_radial_55_2" cx="0" cy="0" r="1" gradientUnits="userSpaceOnUse" gradientTransform="translate(690.341) rotate(93.7222) scale(137.84 137.84)">
<stop stop-color="white"/>
<stop offset="1" stop-color="#DFDFDF"/>
</radialGradient>
<linearGradient id="paint13_linear_55_2" x1="699.75" y1="478.068" x2="669.6" y2="478.068" gradientUnits="userSpaceOnUse">
<stop stop-color="#E0E0E0"/>
<stop offset="1" stop-color="#9C9C9C"/>
</linearGradient>
<linearGradient id="paint14_linear_55_2" x1="459.517" y1="570.916" x2="459.517" y2="774.724" gradientUnits="userSpaceOnUse">
<stop stop-color="#B2B2B2"/>
<stop offset="1" stop-color="#9C9C9C"/>
</linearGradient>
<radialGradient id="paint15_radial_55_2" cx="0" cy="0" r="1" gradientUnits="userSpaceOnUse" gradientTransform="translate(564.095 452.109) rotate(90) scale(70.1685)">
<stop/>
<stop offset="1" stop-color="#DFDFDF"/>
</radialGradient>
<linearGradient id="paint16_linear_55_2" x1="564.097" y1="376.914" x2="564.097" y2="445.909" gradientUnits="userSpaceOnUse">
<stop stop-color="white" stop-opacity="0.8"/>
<stop offset="1" stop-color="#D9D9D9" stop-opacity="0"/>
</linearGradient>
<linearGradient id="paint17_linear_55_2" x1="564.097" y1="452.095" x2="564.097" y2="521.59" gradientUnits="userSpaceOnUse">
<stop stop-color="#D8D8D8" stop-opacity="0"/>
<stop offset="1" stop-color="#949494" stop-opacity="0.8"/>
</linearGradient>
<linearGradient id="paint18_linear_55_2" x1="449.805" y1="220.379" x2="449.805" y2="378.296" gradientUnits="userSpaceOnUse">
<stop stop-color="#F9F9F9"/>
<stop offset="0.369423" stop-color="#939393"/>
<stop offset="0.558292" stop-color="#B9B9B9"/>
<stop offset="1" stop-color="#BFBFBF"/>
</linearGradient>
<linearGradient id="paint19_linear_55_2" x1="77.4495" y1="322.28" x2="109.453" y2="327.739" gradientUnits="userSpaceOnUse">
<stop stop-color="#BEBEBE"/>
<stop offset="1" stop-color="#737373"/>
</linearGradient>
<linearGradient id="paint20_linear_55_2" x1="791.298" y1="326.279" x2="821.039" y2="321.226" gradientUnits="userSpaceOnUse">
<stop stop-color="#737373"/>
<stop offset="1" stop-color="#BEBEBE"/>
</linearGradient>
<radialGradient id="paint21_radial_55_2" cx="0" cy="0" r="1" gradientUnits="userSpaceOnUse" gradientTransform="translate(208.804 309.047) rotate(90) scale(70.1685)">
<stop/>
<stop offset="1" stop-color="#DFDFDF"/>
</radialGradient>
<linearGradient id="paint22_linear_55_2" x1="208.806" y1="233.852" x2="208.806" y2="302.847" gradientUnits="userSpaceOnUse">
<stop stop-color="white" stop-opacity="0.8"/>
<stop offset="1" stop-color="#D9D9D9" stop-opacity="0"/>
</linearGradient>
<linearGradient id="paint23_linear_55_2" x1="208.806" y1="309.033" x2="208.806" y2="378.529" gradientUnits="userSpaceOnUse">
<stop stop-color="#D8D8D8" stop-opacity="0"/>
<stop offset="1" stop-color="#949494" stop-opacity="0.8"/>
</linearGradient>
<linearGradient id="paint24_linear_55_2" x1="145.844" y1="205.352" x2="328.979" y2="149.706" gradientUnits="userSpaceOnUse">
<stop stop-color="#A4A4A4"/>
<stop offset="0.226236" stop-color="#DEDEDE"/>
<stop offset="0.675384" stop-color="#E2E2E2"/>
<stop offset="1" stop-color="#A4A4A4"/>
</linearGradient>
<radialGradient id="paint25_radial_55_2" cx="0" cy="0" r="1" gradientUnits="userSpaceOnUse" gradientTransform="translate(775.682 660.856) scale(112.756 114.045)">
<stop stop-color="#CDCDCD"/>
<stop offset="1" stop-color="#828282"/>
</radialGradient>
<radialGradient id="paint26_radial_55_2" cx="0" cy="0" r="1" gradientUnits="userSpaceOnUse" gradientTransform="translate(802.838 709.868) scale(96.4914 91.9575)">
<stop stop-color="#C4C4C4"/>
<stop offset="1" stop-color="#929292"/>
</radialGradient>
<linearGradient id="paint27_linear_55_2" x1="683.293" y1="568.316" x2="724.285" y2="618.923" gradientUnits="userSpaceOnUse">
<stop stop-color="#7D7D7D"/>
<stop offset="0.511409" stop-color="#949494"/>
<stop offset="1" stop-color="#ADADAD"/>
</linearGradient>
<linearGradient id="paint28_linear_55_2" x1="449.873" y1="165.858" x2="449.873" y2="369.834" gradientUnits="userSpaceOnUse">
<stop stop-color="#C9C9C9"/>
<stop offset="1" stop-color="#787878"/>
</linearGradient>
<linearGradient id="paint29_linear_55_2" x1="449.873" y1="165.858" x2="449.873" y2="369.834" gradientUnits="userSpaceOnUse">
<stop stop-color="#F8F8F8"/>
<stop offset="1" stop-color="#646464"/>
</linearGradient>
<clipPath id="clip0_55_2">
<rect width="900" height="774" fill="white"/>
</clipPath>
</defs>
</svg>
