<svg width="116" height="115" viewBox="0 0 116 115" fill="none" xmlns="http://www.w3.org/2000/svg">
<path d="M58.0385 113.472C88.9943 113.472 114.089 88.3778 114.089 57.422C114.089 26.4661 88.9943 1.37146 58.0385 1.37146C27.0827 1.37146 1.98804 26.4661 1.98804 57.422C1.98804 88.3778 27.0827 113.472 58.0385 113.472Z" fill="#B2B2B2"/>
<path d="M58.0385 97.9932C80.4454 97.9932 98.6098 79.8288 98.6098 57.4219C98.6098 35.0151 80.4454 16.8507 58.0385 16.8507C35.6316 16.8507 17.4673 35.0151 17.4673 57.4219C17.4673 79.8288 35.6316 97.9932 58.0385 97.9932Z" fill="#E6E6E6"/>
<path d="M84.946 84.3237C99.8048 69.4648 99.8048 45.3738 84.946 30.515C70.0871 15.6561 45.9962 15.6561 31.1373 30.515C16.2785 45.3739 16.2785 69.4648 31.1373 84.3236C45.9962 99.1825 70.0871 99.1825 84.946 84.3237Z" fill="url(#paint0_radial_55_118)"/>
<path fill-rule="evenodd" clip-rule="evenodd" d="M53.184 100.161C54.0513 100.258 52.8467 112.569 52.7383 113.219C52.642 113.87 51.8469 114.328 50.9796 114.231C50.1123 114.135 49.4859 113.545 49.5943 112.894C49.6907 112.244 52.3167 100.077 53.184 100.161ZM59.701 100.378C60.5683 100.294 61.8452 112.605 61.8693 113.268C61.8934 113.93 61.2188 114.52 60.3515 114.605C59.4841 114.689 58.7493 114.219 58.7252 113.569C58.7011 112.906 58.8336 100.463 59.701 100.378ZM56.304 100.39C55.4246 100.39 54.0393 112.762 54.0152 113.412C53.9791 114.063 54.6537 114.605 55.533 114.605C56.4124 114.605 57.1472 114.075 57.1833 113.424C57.2195 112.762 57.1833 100.39 56.316 100.39H56.304ZM62.8209 100.149C63.6762 99.9808 66.1818 112.099 66.2782 112.75C66.3745 113.4 65.7602 114.063 64.9049 114.243C64.0496 114.412 63.2787 114.027 63.1823 113.376C63.0859 112.726 61.9777 100.318 62.833 100.149H62.8209ZM66.2661 99.6315C65.4229 99.8483 67.1455 112.171 67.278 112.822C67.4105 113.472 68.1935 113.822 69.0487 113.605C69.892 113.388 70.4822 112.701 70.3497 112.051C70.2172 111.4 67.1214 99.4146 66.2782 99.6315H66.2661ZM69.3138 98.9207C70.1329 98.6196 74.4092 110.244 74.602 110.87C74.7947 111.497 74.2768 112.244 73.4576 112.545C72.6385 112.846 71.8194 112.569 71.6266 111.943C71.4339 111.316 68.4946 99.2098 69.3138 98.9207ZM72.6385 97.8727C71.8314 98.21 75.3609 110.148 75.5898 110.762C75.8066 111.376 76.6498 111.605 77.4569 111.268C78.264 110.931 78.7338 110.16 78.517 109.533C78.3001 108.919 73.4576 97.5234 72.6505 97.8607L72.6385 97.8727ZM75.5536 96.6922C74.7827 97.1018 79.4566 108.642 79.7457 109.244C80.0227 109.835 80.878 109.991 81.649 109.569C82.4199 109.16 82.8174 108.341 82.5283 107.751C82.2513 107.16 76.3246 96.2826 75.5536 96.7043V96.6922ZM78.6977 95.1503C79.4445 94.7046 85.8892 105.269 86.2024 105.847C86.5156 106.425 86.1542 107.257 85.4073 107.714C84.6605 108.16 83.8052 108.064 83.492 107.473C83.1788 106.895 77.9508 95.596 78.6977 95.1382V95.1503ZM81.396 93.5241C82.0947 93.0061 89.5271 102.908 89.8885 103.45C90.2499 103.992 89.9728 104.859 89.2742 105.377C88.5755 105.895 87.7082 105.871 87.3468 105.329C86.9854 104.787 80.6973 94.03 81.396 93.5121V93.5241ZM83.9859 91.7172C83.3354 92.2954 90.6233 102.402 91.0329 102.908C91.4424 103.414 92.3098 103.354 92.9603 102.776C93.6107 102.185 93.8035 101.306 93.3819 100.788C92.9723 100.282 84.6364 91.1269 83.9859 91.7051V91.7172ZM86.6963 89.4886C86.0699 90.103 93.8276 99.8483 94.2612 100.342C94.6949 100.836 95.5622 100.728 96.1765 100.113C96.8029 99.4989 96.9475 98.6075 96.5138 98.1136C96.0802 97.6197 87.3227 88.8743 86.6963 89.4886ZM88.973 87.2963C88.4068 87.9708 97.0559 96.9331 97.5378 97.3788C98.0196 97.8245 98.8628 97.6439 99.429 96.9693C99.9831 96.2947 100.055 95.3912 99.5735 94.9455C99.0917 94.4998 89.5512 86.6217 88.985 87.2842L88.973 87.2963ZM91.3099 84.6943C91.84 83.9956 101.742 91.416 102.248 91.8376C102.754 92.2592 102.73 93.1747 102.2 93.8614C101.67 94.56 100.838 94.7769 100.332 94.3553C99.8265 93.9336 90.7799 85.3809 91.3099 84.6822V84.6943ZM93.2132 82.1767C93.671 81.4298 104.235 87.8865 104.777 88.2599C105.32 88.6334 105.38 89.5368 104.922 90.2837C104.464 91.0305 103.657 91.3197 103.115 90.9462C102.573 90.5728 92.7555 82.9235 93.2132 82.1767ZM94.9479 79.5386C95.3333 78.7556 106.464 84.1643 107.042 84.4775C107.62 84.8027 107.765 85.6941 107.379 86.4771C106.994 87.2601 106.211 87.6335 105.645 87.3203C105.079 87.0071 94.5624 80.3216 94.9479 79.5386ZM96.6223 76.4668C96.2729 77.2618 107.09 83.4294 107.681 83.7306C108.271 84.0197 109.03 83.6102 109.379 82.8151C109.728 82.0201 109.536 81.1286 108.945 80.8395C108.355 80.5504 96.9716 75.6838 96.6223 76.4789V76.4668ZM97.9112 73.5999C97.6462 74.431 109.006 79.5145 109.62 79.7554C110.234 79.9843 110.945 79.5024 111.222 78.6713C111.487 77.8401 111.222 76.9727 110.596 76.7439C109.981 76.515 98.1882 72.7687 97.9112 73.5999ZM99.1038 70.3113C99.3326 69.468 111.294 72.6362 111.921 72.8409C112.547 73.0457 112.872 73.8889 112.644 74.7322C112.415 75.5754 111.728 76.0934 111.102 75.8886C110.475 75.6838 98.8869 71.1545 99.1158 70.3113H99.1038ZM99.9229 67.2877C99.7783 68.155 111.764 71.5159 112.403 71.6484C113.041 71.7929 113.68 71.2027 113.824 70.3474C113.969 69.4921 113.559 68.673 112.921 68.5284C112.282 68.3839 100.055 66.4204 99.9108 67.2757L99.9229 67.2877ZM100.597 63.8666C100.694 62.9993 113.005 64.3605 113.655 64.4689C114.306 64.5773 114.752 65.3724 114.643 66.2397C114.535 67.107 113.932 67.7214 113.282 67.6129C112.631 67.5045 100.501 64.7339 100.597 63.8666ZM100.935 60.7587C100.923 61.6381 113.27 63.1679 113.933 63.2161C114.583 63.2643 115.137 62.5897 115.149 61.7103C115.161 60.831 114.643 60.0962 113.993 60.048C113.342 59.9998 100.959 59.8794 100.947 60.7587H100.935ZM101.079 57.2774C101.055 56.4101 113.415 55.9041 114.077 55.9162C114.74 55.9162 115.294 56.6389 115.318 57.5183C115.342 58.3856 114.836 59.0843 114.185 59.0843C113.523 59.0843 101.115 58.1567 101.079 57.2774ZM100.947 54.1574C100.826 53.2901 113.089 51.5555 113.74 51.5073C114.39 51.4471 115.017 52.1096 115.137 52.9769C115.258 53.8442 114.812 54.5911 114.161 54.6393C113.511 54.6995 101.067 55.0248 100.947 54.1574ZM100.561 50.7002C100.718 51.5555 113.137 50.6039 113.788 50.5195C114.438 50.4352 114.836 49.6642 114.679 48.809C114.523 47.9537 113.86 47.3273 113.21 47.4116C112.559 47.4959 100.405 49.8449 100.561 50.7002ZM99.947 47.6405C99.7061 46.7973 111.559 43.2557 112.198 43.1112C112.836 42.9546 113.559 43.5208 113.8 44.3519C114.041 45.1952 113.728 45.9902 113.089 46.1468C112.451 46.3034 100.2 48.4837 99.947 47.6405ZM99.0435 44.2676C99.3326 45.0988 111.463 42.3041 112.089 42.1234C112.716 41.9427 113.005 41.1236 112.716 40.2924C112.427 39.4612 111.692 38.9432 111.053 39.1239C110.427 39.3046 98.7544 43.4364 99.0435 44.2555V44.2676ZM97.9594 41.3284C97.598 40.5333 108.801 35.2812 109.415 35.0403C110.03 34.7994 110.813 35.2451 111.186 36.0401C111.547 36.8351 111.355 37.6784 110.74 37.9193C110.126 38.1602 98.3328 42.1234 97.9594 41.3284ZM96.6825 38.4493C96.2368 37.6904 106.886 31.3903 107.476 31.0771C108.054 30.776 108.885 31.1373 109.331 31.8962C109.777 32.6551 109.656 33.5105 109.066 33.8116C108.488 34.1128 97.1162 39.1962 96.6825 38.4493ZM95.0081 35.3776C95.4779 36.1124 106.584 30.4869 107.163 30.1496C107.729 29.8243 107.801 28.957 107.331 28.2222C106.849 27.4874 106.006 27.1621 105.44 27.4994C104.874 27.8247 94.5383 34.6428 95.0201 35.3776H95.0081ZM93.2855 32.7274C93.8276 33.4141 104.344 26.7526 104.886 26.3671C105.416 25.9816 105.416 25.1263 104.874 24.4397C104.332 23.7531 103.452 23.5122 102.922 23.8977C102.392 24.2831 92.7555 32.0528 93.2975 32.7274H93.2855ZM91.1774 29.9328C90.5992 29.2702 99.8627 21.0548 100.369 20.6572C100.887 20.2477 101.766 20.4525 102.344 21.115C102.922 21.7775 102.971 22.6328 102.453 23.0424C101.935 23.452 91.7436 30.5953 91.1774 29.9448V29.9328ZM89.0573 27.5838C88.4189 26.9814 96.8632 17.9228 97.333 17.4771C97.8028 17.0193 98.7062 17.1398 99.3447 17.7421C99.9831 18.3444 100.116 19.1997 99.6338 19.6454C99.164 20.1031 89.6957 28.1861 89.0573 27.5838ZM86.7927 25.3793C86.106 24.8493 93.6469 15.0317 94.0685 14.5378C94.5021 14.044 95.4056 14.068 96.0922 14.6101C96.7789 15.1522 96.9957 15.9834 96.562 16.4773C96.1284 16.9711 87.4793 25.9214 86.7806 25.3793H86.7927ZM84.0943 23.1508C83.3836 22.6449 90.4547 12.49 90.8522 11.972C91.2618 11.454 92.1652 11.442 92.8759 11.9479C93.5866 12.4538 93.8396 13.273 93.43 13.791C93.0205 14.3089 84.793 23.6447 84.0823 23.1508H84.0943ZM81.5165 21.3318C82.2754 21.7655 89.5753 11.6829 89.9246 11.1288C90.274 10.5747 89.9487 9.77961 89.1898 9.34595C88.4309 8.91229 87.5274 9.00869 87.1781 9.56281C86.8288 10.1169 80.7575 20.8982 81.5044 21.3318H81.5165ZM78.517 19.5249C79.3 19.9224 86.106 9.50255 86.4313 8.93639C86.7565 8.37022 86.3951 7.58724 85.6121 7.18972C84.8291 6.7922 83.9377 6.93673 83.6125 7.5029C83.2872 8.06906 77.734 19.1395 78.517 19.537V19.5249ZM75.6862 18.1396C74.8791 17.8144 79.3361 6.27421 79.6011 5.6719C79.8782 5.0696 80.7455 4.85275 81.5647 5.16595C82.3717 5.4912 82.8174 6.22601 82.5404 6.82832C82.2633 7.43062 76.4932 18.4528 75.6862 18.1396ZM72.4578 16.8145C71.6266 16.5375 75.5295 4.79255 75.7705 4.1782C76.0114 3.56385 76.8787 3.29883 77.7099 3.57589C78.5411 3.85295 79.0109 4.57572 78.77 5.19007C78.529 5.80442 73.289 17.0916 72.4698 16.8145H72.4578ZM69.4583 15.899C70.3136 16.0918 74.4093 4.34683 74.59 3.70838C74.7706 3.08199 74.2286 2.40741 73.3733 2.20262C72.518 2.00988 71.6869 2.35921 71.5062 2.98561C71.3255 3.61201 68.603 15.6943 69.4583 15.887V15.899ZM66.4106 15.1763C65.5433 15.0679 67.0491 2.78084 67.1696 2.13035C67.29 1.47986 68.0851 1.04621 68.9524 1.16667C69.8197 1.27509 70.422 1.88942 70.3136 2.53991C70.1931 3.1904 67.278 15.2847 66.4106 15.1763ZM62.9655 14.6463C63.8328 14.7185 66.1456 2.47968 66.23 1.8292C66.3143 1.17871 65.6759 0.588464 64.8085 0.528233C63.9412 0.455957 63.1582 0.92576 63.0739 1.5883C62.9896 2.23878 62.0861 14.586 62.9655 14.6463ZM59.8576 14.4053C58.9902 14.4294 58.6409 2.05809 58.665 1.39555C58.6891 0.733018 59.4119 0.19092 60.2792 0.166828C61.1465 0.142736 61.8452 0.660745 61.8211 1.32328C61.797 1.98582 60.7249 14.3812 59.8576 14.4053ZM56.3763 14.4053C55.5089 14.4656 54.5453 2.13036 54.5332 1.46783C54.5212 0.805292 55.2198 0.227059 56.0871 0.166828C56.9545 0.106598 57.6772 0.588459 57.6893 1.23895C57.7013 1.90148 57.2556 14.333 56.3763 14.3933V14.4053ZM53.2684 14.6342C52.4131 14.7788 50.2086 2.60015 50.1364 1.94966C50.052 1.29917 50.6905 0.648696 51.5458 0.492096C52.401 0.347543 53.172 0.745039 53.2443 1.40757C53.3286 2.05806 54.1236 14.4776 53.2563 14.6342H53.2684ZM49.8232 15.1642C50.6785 14.9715 49.257 2.60016 49.1486 1.96172C49.0402 1.31123 48.2572 0.949846 47.4019 1.13054C46.5466 1.32328 45.9443 1.99783 46.0648 2.64832C46.1732 3.29881 48.9679 15.357 49.8232 15.1642ZM46.7755 15.8749C45.9443 16.152 41.9691 4.43116 41.7884 3.79271C41.6077 3.15427 42.1378 2.41947 42.969 2.14241C43.8001 1.86535 44.6072 2.15446 44.7879 2.79291C44.9686 3.43135 47.5946 15.5979 46.7635 15.8629L46.7755 15.8749ZM43.4508 16.923C44.2699 16.6098 41.0416 4.58774 40.8368 3.96134C40.632 3.33494 39.8008 3.08199 38.9937 3.40723C38.1746 3.72043 37.6807 4.47934 37.8976 5.10574C38.1023 5.73213 42.6558 17.2362 43.4628 16.923H43.4508ZM40.5356 18.1035C39.7526 18.501 34.103 7.47883 33.838 6.88857C33.573 6.28627 33.9826 5.47915 34.7656 5.09368C35.5486 4.69616 36.3918 4.8648 36.6568 5.4671C36.9218 6.06941 41.3066 17.718 40.5236 18.1155L40.5356 18.1035ZM37.3916 19.6454C36.6327 20.079 30.4651 9.34596 30.1639 8.7557C29.8748 8.16544 30.2483 7.34631 31.0072 6.91265C31.7661 6.47899 32.6214 6.61149 32.9225 7.20174C33.2116 7.792 38.1626 19.2117 37.3916 19.6454ZM34.6933 21.2836C35.404 20.7777 29.393 9.88804 29.0437 9.32187C28.6943 8.76775 27.827 8.71958 27.1163 9.22552C26.4056 9.73145 26.1044 10.5867 26.4538 11.1408C26.8031 11.695 33.9826 21.7775 34.6933 21.2836ZM32.1034 23.0905C32.7659 22.5244 25.743 12.2491 25.3455 11.7311C24.948 11.2131 24.0807 11.2493 23.4181 11.8154C22.7556 12.3816 22.5388 13.2609 22.9363 13.791C23.3338 14.3089 31.4408 23.6688 32.1034 23.1026V23.0905ZM29.405 25.3191C30.0435 24.7168 22.5388 14.7908 22.1172 14.2849C21.6956 13.7789 20.8282 13.8632 20.1898 14.4655C19.5513 15.0678 19.3827 15.9593 19.8043 16.4532C20.2259 16.9591 28.7666 25.9214 29.393 25.3191H29.405ZM27.1283 27.5115C26.5501 28.162 17.2144 20.0549 16.7446 19.5851C16.2748 19.1274 16.3591 18.2239 16.9373 17.5614C17.5155 16.9109 18.3588 16.7423 18.8286 17.2C19.2984 17.6578 27.7066 26.8369 27.1283 27.4994V27.5115ZM24.7914 30.1134C24.2493 30.8001 14.5281 23.1267 14.0342 22.693C13.5403 22.2594 13.5885 21.3559 14.1306 20.6693C14.6727 19.9827 15.5159 19.7899 16.0098 20.2236C16.5037 20.6572 25.3335 29.4268 24.7914 30.1134ZM22.8881 32.6431C22.4063 33.3779 12.0105 26.6683 11.4804 26.2707C10.9504 25.8853 10.9022 24.9818 11.3841 24.247C11.8659 23.5122 12.6851 23.2351 13.2151 23.6206C13.7451 24.0061 23.3699 31.9083 22.8881 32.6311V32.6431ZM21.1655 35.2812C21.5751 34.5102 11.2395 27.5717 10.6734 27.2344C10.1072 26.8971 9.32418 27.2585 8.91462 28.0295C8.50505 28.8004 8.63758 29.7039 9.20375 30.0412C9.76991 30.3785 20.768 36.0642 21.1655 35.2932V35.2812ZM19.4911 38.353C19.8645 37.5579 9.20373 31.1253 8.62552 30.8121C8.04731 30.4989 7.27637 30.8964 6.90294 31.6915C6.52951 32.4865 6.71021 33.3779 7.28842 33.6791C7.86664 33.9923 19.1177 39.136 19.4911 38.353ZM18.2022 41.2199C17.9131 42.0391 6.21629 38.0036 5.60194 37.7507C4.99964 37.4977 4.73464 36.6304 5.02375 35.8112C5.31286 34.9921 6.04768 34.5223 6.64998 34.7753C7.25229 35.0282 18.4913 40.4008 18.1901 41.2199H18.2022ZM17.0096 44.5085C16.7566 45.3397 4.87918 41.8825 4.25278 41.6656C3.63843 41.4488 3.33728 40.5935 3.5782 39.7503C3.81913 38.9071 4.52984 38.4132 5.15624 38.63C5.77059 38.8469 17.2505 43.6773 16.9976 44.5085H17.0096ZM16.1905 47.5321C16.3591 46.6768 4.45758 43.0148 3.81914 42.8462C3.1807 42.6896 2.53022 43.2557 2.36157 44.111C2.19293 44.9663 2.57839 45.7854 3.21684 45.9541C3.85528 46.1107 16.0218 48.3874 16.1905 47.5321ZM15.5159 50.9532C15.3954 51.8205 3.13249 50.1461 2.48201 50.0256C1.83152 49.9052 1.4099 49.0981 1.54241 48.2307C1.66287 47.3634 2.28927 46.7611 2.93976 46.8936C3.59025 47.0141 15.6484 50.0859 15.5279 50.9532H15.5159ZM15.1786 54.0611C15.2147 53.1938 2.90362 51.3387 2.25313 51.2784C1.60264 51.2182 1.0365 51.8807 1.00036 52.748C0.964221 53.6154 1.47015 54.3743 2.12064 54.4345C2.77113 54.4947 15.1425 54.9284 15.1786 54.0611ZM15.0341 57.5424C15.0341 58.4218 2.66272 58.6025 2.01223 58.5663C1.34969 58.5422 0.819663 57.8074 0.807617 56.9401C0.807617 56.0728 1.32558 55.3862 1.98811 55.4102C2.65065 55.4343 15.0341 56.6751 15.0341 57.5424ZM15.1786 60.6623C15.275 61.5296 2.97589 62.9511 2.3254 62.9993C1.67491 63.0354 1.06059 62.3608 0.964222 61.4935C0.867854 60.6262 1.3256 59.8914 1.97609 59.8553C2.63863 59.8191 15.0822 59.795 15.1786 60.6623ZM15.5641 64.1316C15.6966 64.9989 3.4939 67.0347 2.84341 67.107C2.19292 67.1793 1.54243 66.5408 1.40992 65.6735C1.27741 64.8062 1.68697 64.0593 2.33746 63.9871C2.98795 63.9148 15.4195 63.2763 15.5641 64.1437V64.1316ZM16.1784 67.2033C15.9495 66.3601 3.6505 68.2273 3.00002 68.3718C2.36157 68.5043 2.01223 69.2994 2.24111 70.1426C2.46998 70.9858 3.16864 71.564 3.80708 71.4315C4.44553 71.299 16.3952 68.0586 16.1784 67.2033ZM17.0819 70.5763C17.3469 71.4075 5.57786 75.2381 4.93942 75.4068C4.30098 75.5754 3.5782 75.0333 3.31319 74.2022C3.04817 73.371 3.34932 72.5639 3.98777 72.3953C4.62621 72.2266 16.8289 69.7451 17.0939 70.5883L17.0819 70.5763ZM18.166 73.5155C17.8167 72.7084 5.92718 76.3825 5.30079 76.6114C4.68644 76.8403 4.46964 77.6714 4.80693 78.4785C5.15627 79.2856 5.92719 79.7433 6.55359 79.5145C7.16794 79.2856 18.5033 74.3226 18.166 73.5155ZM19.4429 76.3825C19.8645 77.1414 9.05918 83.1885 8.46892 83.4776C7.87866 83.7667 7.05954 83.3813 6.63792 82.6103C6.21631 81.8394 6.34883 80.9962 6.95113 80.707C7.54139 80.4179 19.0333 75.6236 19.455 76.3825H19.4429ZM21.1173 79.4542C21.5751 80.2011 11.0709 86.7542 10.4927 87.0674C9.91448 87.3806 9.08327 87.0312 8.62552 86.2964C8.16777 85.5496 8.26413 84.6943 8.84234 84.3811C9.42056 84.0679 20.6596 78.7194 21.1173 79.4663V79.4542ZM22.8399 82.0923C22.3099 81.3937 11.625 87.7902 11.0829 88.1636C10.5409 88.537 10.5288 89.3923 11.0468 90.0909C11.5768 90.7896 12.4441 91.0546 12.9862 90.6812C13.5283 90.3078 23.3579 82.791 22.8279 82.0923H22.8399ZM24.96 84.887C24.4059 84.2125 14.0342 91.1028 13.5042 91.5003C12.9742 91.8979 13.0103 92.7531 13.5644 93.4277C14.1185 94.1023 14.9979 94.3191 15.5279 93.9336C16.058 93.5361 25.5141 85.5616 24.96 84.887ZM27.0802 87.236C26.4538 86.6217 16.7928 94.4637 16.3109 94.9094C15.8291 95.3551 15.9375 96.2104 16.5519 96.8247C17.1662 97.4391 18.0696 97.5836 18.5515 97.1379C19.0333 96.6922 27.7065 87.8504 27.0802 87.236ZM29.3568 89.4405C30.0314 89.9946 22.2497 99.6194 21.804 100.101C21.3582 100.583 20.4548 100.535 19.7802 99.9808C19.1056 99.4267 18.9129 98.5835 19.3586 98.1016C19.8043 97.6198 28.6823 88.8863 29.3568 89.4405ZM32.0552 91.669C32.7539 92.187 25.4298 102.173 25.0082 102.679C24.5866 103.185 23.6832 103.173 22.9845 102.655C22.2858 102.137 22.0569 101.306 22.4785 100.788C22.9001 100.282 31.3565 91.151 32.0552 91.669ZM34.6451 93.4879C35.392 93.9457 29.0436 104.57 28.6823 105.112C28.3088 105.654 27.4054 105.727 26.6585 105.281C25.9117 104.823 25.5985 104.016 25.9719 103.474C26.3453 102.932 33.8982 93.0302 34.6451 93.4879ZM37.6446 95.2828C36.8736 94.8612 29.8026 105.112 29.4653 105.679C29.128 106.245 29.4653 107.028 30.2362 107.449C31.0072 107.871 31.8986 107.751 32.2479 107.184C32.5852 106.618 38.4155 95.7044 37.6566 95.2828H37.6446ZM40.4754 96.6681C39.6683 96.3308 33.6212 107.208 33.3321 107.799C33.043 108.389 33.4646 109.148 34.2717 109.485C35.0788 109.822 35.9581 109.618 36.2472 109.027C36.5363 108.437 41.2825 97.0054 40.4754 96.6681ZM43.7158 97.9932C44.5349 98.2944 40.3429 109.943 40.0899 110.545C39.837 111.148 38.9576 111.4 38.1385 111.099C37.3193 110.798 36.8616 110.063 37.1145 109.461C37.3675 108.859 42.8967 97.692 43.7158 97.9932ZM46.7153 98.9087C47.5585 99.1255 44.535 111.135 44.3302 111.762C44.1374 112.388 43.2821 112.726 42.4389 112.497C41.5957 112.28 41.0657 111.593 41.2705 110.967C41.4632 110.34 45.872 98.6918 46.7153 98.9087ZM49.7629 99.6194C48.8956 99.4869 45.6793 111.509 45.5468 112.159C45.4143 112.798 46.0046 113.436 46.8719 113.569C47.7392 113.701 48.5463 113.292 48.6788 112.641C48.8113 112.003 50.6303 99.7519 49.775 99.6194H49.7629Z" fill="url(#paint1_radial_55_118)"/>
<defs>
<radialGradient id="paint0_radial_55_118" cx="0" cy="0" r="1" gradientUnits="userSpaceOnUse" gradientTransform="translate(58.3939 3.83234) rotate(90) scale(88.3359)">
<stop stop-color="#9F9F9F"/>
<stop offset="1" stop-color="#F0F0F0"/>
</radialGradient>
<radialGradient id="paint1_radial_55_118" cx="0" cy="0" r="1" gradientUnits="userSpaceOnUse" gradientTransform="translate(58.0631 57.3881) rotate(90) scale(57.2264 57.2555)">
<stop stop-color="#F0F0F0"/>
<stop offset="0.879808" stop-color="#CDCDCD"/>
<stop offset="1" stop-color="#9C9C9C"/>
</radialGradient>
</defs>
</svg>
