<svg width="900" height="774" viewBox="0 0 900 774" fill="none" xmlns="http://www.w3.org/2000/svg">
<g clip-path="url(#clip0_55_174)">
<rect width="900" height="774" fill="white"/>
<path fill-rule="evenodd" clip-rule="evenodd" d="M447.569 598.313H297.535C253.53 598.313 242.303 600.156 187.566 674.275C166.702 702.535 144.874 732.446 120.891 761.622C117.903 765.259 114.374 765.079 110.471 767.199C106.206 769.512 102.328 773.981 98.4608 773.933C87.0049 773.993 26.9551 745.287 17.8122 731.976C7.48865 716.943 2.04382 701.68 0.357362 662.795C-0.678602 638.896 0.791022 614.972 1.56197 591.085C3.41707 534.023 38.3387 414.694 103.749 252.638C112.735 233.713 133.382 217.439 145.862 209.416L145.826 198.358C145.826 187.324 181.699 167.388 225.15 155.113C244.616 149.62 269.804 144.38 289.391 144.38C304.774 144.38 321.735 148.596 325.048 153.318H340.997L342.804 149.077H556.875L558.682 153.318H574.631C577.944 148.596 594.904 144.38 610.287 144.38C629.874 144.38 655.063 149.62 674.529 155.113C717.979 167.376 753.853 187.312 753.853 198.358L753.817 209.416C766.296 217.439 786.943 233.713 795.93 252.638C861.34 414.694 896.262 534.023 898.117 591.085C898.888 614.984 900.357 638.896 899.321 662.795C897.635 701.68 892.19 716.955 881.879 731.976C872.736 745.287 812.674 773.981 801.23 773.933C797.363 773.981 793.484 769.524 789.22 767.199C785.317 765.079 781.788 765.259 778.8 761.622C754.816 732.446 732.989 702.535 712.125 674.275C657.388 600.156 646.161 598.313 602.156 598.313H447.557H447.569Z" fill="#A4BDFF"/>
<path fill-rule="evenodd" clip-rule="evenodd" d="M219.317 0C253.793 0 282.873 46.4136 291.883 109.812C292.762 115.968 288.703 121.714 282.62 122.967L158.316 148.504C154.642 149.263 151.16 148.36 148.318 145.914C145.475 143.469 144.041 140.168 144.234 136.422C147.992 59.833 180.18 0 219.317 0Z" fill="#A4BDFF"/>
<path fill-rule="evenodd" clip-rule="evenodd" d="M680.186 0C645.71 0 616.63 46.4136 607.62 109.812C606.741 115.968 610.8 121.714 616.883 122.967L741.187 148.504C744.861 149.263 748.342 148.36 751.185 145.914C754.028 143.469 755.462 140.168 755.269 136.422C751.511 59.833 719.323 0 680.186 0Z" fill="#A4BDFF"/>
<path d="M273.307 427.023V383.801H291.83C293.024 383.801 294.053 384.233 294.918 385.098C295.782 385.962 296.214 387.012 296.214 388.247V422.577C296.214 423.812 295.782 424.862 294.918 425.726C294.053 426.591 293.024 427.023 291.83 427.023H273.307ZM279.049 421.281H288.311C288.887 421.281 289.402 421.075 289.855 420.663C290.307 420.211 290.534 419.675 290.534 419.058V391.766C290.534 391.149 290.307 390.634 289.855 390.223C289.402 389.77 288.887 389.543 288.311 389.543H279.049V421.281Z" fill="white"/>
<path d="M305.125 427.023V383.801H310.867V427.023H305.125Z" fill="white"/>
<path d="M324.684 427.023C323.449 427.023 322.399 426.591 321.535 425.726C320.67 424.862 320.238 423.812 320.238 422.577V413.007L325.98 414.303V419.058C325.98 419.675 326.186 420.211 326.598 420.663C327.05 421.075 327.565 421.281 328.141 421.281H335.18C335.798 421.281 336.312 421.075 336.724 420.663C337.177 420.211 337.403 419.675 337.403 419.058V408.191C337.403 407.573 337.177 407.059 336.724 406.647C336.312 406.194 335.798 405.968 335.18 405.968H324.684C323.449 405.968 322.399 405.536 321.535 404.671C320.67 403.807 320.238 402.757 320.238 401.522V388.247C320.238 387.012 320.67 385.962 321.535 385.098C322.399 384.233 323.449 383.801 324.684 383.801H338.7C339.935 383.801 340.984 384.233 341.849 385.098C342.713 385.962 343.146 387.012 343.146 388.247V394.915L337.403 393.557V391.766C337.403 391.149 337.177 390.634 336.724 390.223C336.312 389.77 335.798 389.543 335.18 389.543H328.141C327.565 389.543 327.05 389.77 326.598 390.223C326.186 390.634 325.98 391.149 325.98 391.766V398.003C325.98 398.62 326.186 399.155 326.598 399.608C327.05 400.02 327.565 400.225 328.141 400.225H338.7C339.935 400.225 340.984 400.658 341.849 401.522C342.713 402.387 343.146 403.436 343.146 404.671V422.577C343.146 423.812 342.713 424.862 341.849 425.726C340.984 426.591 339.935 427.023 338.7 427.023H324.684Z" fill="white"/>
<path d="M356.384 427.023C355.232 427.023 354.203 426.591 353.297 425.726C352.391 424.862 351.939 423.812 351.939 422.577V388.247C351.939 387.053 352.391 386.024 353.297 385.159C354.203 384.254 355.232 383.801 356.384 383.801H370.401C371.677 383.801 372.726 384.254 373.55 385.159C374.414 386.024 374.846 387.053 374.846 388.247V396.274L369.104 397.57V391.766C369.104 391.19 368.898 390.675 368.486 390.223C368.116 389.77 367.601 389.543 366.943 389.543H359.904C359.327 389.543 358.813 389.77 358.36 390.223C357.907 390.675 357.681 391.19 357.681 391.766V419.058C357.681 419.717 357.907 420.252 358.36 420.663C358.813 421.075 359.327 421.281 359.904 421.281H366.943C367.601 421.281 368.116 421.075 368.486 420.663C368.898 420.252 369.104 419.717 369.104 419.058V414.55L374.846 413.192V422.577C374.846 423.812 374.414 424.862 373.55 425.726C372.726 426.591 371.677 427.023 370.401 427.023H356.384Z" fill="white"/>
<path d="M387.476 427.023C386.324 427.023 385.315 426.591 384.451 425.726C383.586 424.862 383.154 423.792 383.154 422.516V388.308C383.154 387.032 383.586 385.962 384.451 385.098C385.315 384.233 386.324 383.801 387.476 383.801H401.492C402.81 383.801 403.88 384.233 404.703 385.098C405.568 385.962 406 387.032 406 388.308V422.516C406 423.792 405.568 424.862 404.703 425.726C403.88 426.591 402.81 427.023 401.492 427.023H387.476ZM390.996 421.343H397.973C398.673 421.343 399.228 421.116 399.64 420.663C400.093 420.211 400.319 419.655 400.319 418.996V391.828C400.319 391.128 400.093 390.572 399.64 390.161C399.228 389.708 398.673 389.482 397.973 389.482H390.996C390.419 389.482 389.905 389.708 389.452 390.161C389.04 390.572 388.835 391.128 388.835 391.828V418.996C388.835 419.655 389.04 420.211 389.452 420.663C389.905 421.116 390.419 421.343 390.996 421.343Z" fill="white"/>
<path d="M414.912 427.023V383.801H420.654L432.139 412.636V383.801H437.882V427.023H432.139L420.654 398.188V427.023H414.912Z" fill="white"/>
<path d="M446.791 427.023V383.801H452.533L464.018 412.636V383.801H469.76V427.023H464.018L452.533 398.188V427.023H446.791Z" fill="white"/>
<path d="M479.273 427.023V383.801H502.242V389.482H485.015V400.225H496.5L495.203 405.968H485.015V421.281H502.242V427.023H479.273Z" fill="white"/>
<path d="M515.597 427.023C514.444 427.023 513.415 426.591 512.51 425.726C511.604 424.862 511.151 423.812 511.151 422.577V388.247C511.151 387.053 511.604 386.024 512.51 385.159C513.415 384.254 514.444 383.801 515.597 383.801H529.613C530.889 383.801 531.939 384.254 532.762 385.159C533.627 386.024 534.059 387.053 534.059 388.247V396.274L528.317 397.57V391.766C528.317 391.19 528.111 390.675 527.699 390.223C527.329 389.77 526.814 389.543 526.155 389.543H519.116C518.54 389.543 518.026 389.77 517.573 390.223C517.12 390.675 516.894 391.19 516.894 391.766V419.058C516.894 419.717 517.12 420.252 517.573 420.663C518.026 421.075 518.54 421.281 519.116 421.281H526.155C526.814 421.281 527.329 421.075 527.699 420.663C528.111 420.252 528.317 419.717 528.317 419.058V414.55L534.059 413.192V422.577C534.059 423.812 533.627 424.862 532.762 425.726C531.939 426.591 530.889 427.023 529.613 427.023H515.597Z" fill="white"/>
<path d="M550.702 427.023V389.543H542.12V383.801H565.027V389.543H556.445V427.023H550.702Z" fill="white"/>
<path d="M573.1 427.023V383.801H596.069V389.482H578.842V400.225H590.327L589.03 405.968H578.842V421.281H596.069V427.023H573.1Z" fill="white"/>
<path d="M604.978 427.023V383.801H623.502C624.696 383.801 625.725 384.233 626.589 385.098C627.454 385.962 627.886 387.012 627.886 388.247V422.577C627.886 423.812 627.454 424.862 626.589 425.726C625.725 426.591 624.696 427.023 623.502 427.023H604.978ZM610.721 421.281H619.983C620.559 421.281 621.074 421.075 621.526 420.663C621.979 420.211 622.206 419.675 622.206 419.058V391.766C622.206 391.149 621.979 390.634 621.526 390.223C621.074 389.77 620.559 389.543 619.983 389.543H610.721V421.281Z" fill="white"/>
<path d="M478.728 302.059C479.267 301.501 479.565 300.755 479.558 299.98C479.551 299.205 479.24 298.463 478.692 297.915C478.144 297.367 477.403 297.056 476.628 297.05C475.853 297.043 475.106 297.341 474.549 297.879L469.237 303.191C466.829 301.692 463.984 301.053 461.166 301.377C458.347 301.701 455.722 302.97 453.716 304.976L450.56 308.136C449.59 309.106 449.046 310.421 449.046 311.792C449.046 313.163 449.59 314.478 450.56 315.448L461.156 326.048C461.636 326.528 462.207 326.909 462.834 327.169C463.462 327.429 464.135 327.563 464.814 327.563C465.493 327.563 466.166 327.429 466.794 327.169C467.421 326.909 467.991 326.528 468.472 326.048L471.628 322.891C473.635 320.886 474.903 318.261 475.228 315.444C475.552 312.626 474.914 309.782 473.417 307.373L478.728 302.059ZM446.215 325.705C446.753 325.147 447.051 324.401 447.044 323.626C447.038 322.851 446.727 322.109 446.179 321.561C445.631 321.013 444.889 320.703 444.114 320.696C443.339 320.689 442.593 320.987 442.035 321.525L437.69 325.87L436.824 325.004C436.409 324.589 435.845 324.356 435.258 324.356C434.67 324.356 434.107 324.589 433.691 325.004L428.445 330.251C426.438 332.256 425.17 334.881 424.845 337.698C424.521 340.516 425.159 343.36 426.656 345.769L421.345 351.083C421.062 351.356 420.837 351.682 420.682 352.043C420.527 352.403 420.446 352.791 420.442 353.184C420.439 353.576 420.514 353.965 420.662 354.328C420.811 354.692 421.031 355.022 421.308 355.299C421.586 355.577 421.916 355.796 422.279 355.945C422.642 356.094 423.031 356.168 423.424 356.165C423.816 356.162 424.204 356.08 424.565 355.925C424.925 355.77 425.252 355.545 425.524 355.263L430.839 349.951C433.247 351.449 436.092 352.087 438.909 351.762C441.727 351.438 444.352 350.169 446.357 348.163L451.603 342.916C452.018 342.501 452.251 341.937 452.251 341.35C452.251 340.762 452.018 340.199 451.603 339.783L450.737 338.917L455.082 334.572C455.62 334.015 455.918 333.268 455.912 332.493C455.905 331.718 455.594 330.977 455.046 330.429C454.498 329.881 453.757 329.57 452.982 329.563C452.207 329.556 451.46 329.854 450.903 330.393L446.558 334.738L441.87 330.05L446.215 325.705Z" fill="white"/>
</g>
<defs>
<clipPath id="clip0_55_174">
<rect width="900" height="774" fill="white"/>
</clipPath>
</defs>
</svg>
