<svg width="63" height="70" viewBox="0 0 63 70" fill="none" xmlns="http://www.w3.org/2000/svg">
<path d="M31.347 7.91821C47.8572 7.91847 61.2445 21.3209 61.2445 37.8567C61.2444 54.3924 47.8571 67.7939 31.347 67.7942C14.8368 67.7942 1.44868 54.3925 1.44861 37.8567C1.44861 21.3208 14.8367 7.91821 31.347 7.91821Z" fill="url(#paint0_radial_19_414)" stroke="url(#paint1_linear_19_414)" stroke-width="2.7" stroke-miterlimit="22.93"/>
<path d="M29.6203 11.5079C16.5059 12.9305 11.1195 20.385 11.1195 20.385C28.2277 16.7854 37.1824 16.8299 52.0288 20.7464C52.0288 20.7464 42.7346 10.0852 29.6203 11.5079Z" fill="#F3F3F3"/>
<g filter="url(#filter0_d_19_414)">
<path fill-rule="evenodd" clip-rule="evenodd" d="M38.4351 49.4413C38.7362 50.2012 39.3747 50.756 40.1336 50.756H46.5301C47.277 50.756 47.8069 50.1891 47.4697 49.4413L36.9293 25.6557C36.592 24.9079 35.9898 24.3772 35.2309 24.3772H27.5093C26.7624 24.3772 26.1601 24.9441 25.8108 25.6919L15.2705 49.4413C14.9332 50.2012 15.4632 50.756 16.21 50.756H22.2331C22.9799 50.756 23.6305 50.1891 23.9316 49.4413L25.2446 46.052H37.098L38.411 49.4413H38.4351ZM31.0991 32.2896H31.4725L34.484 39.8282H27.8948L31.0991 32.2896Z" fill="white"/>
</g>
<defs>
<filter id="filter0_d_19_414" x="7.96669" y="18.9772" width="46.8067" height="40.7789" filterUnits="userSpaceOnUse" color-interpolation-filters="sRGB">
<feFlood flood-opacity="0" result="BackgroundImageFix"/>
<feColorMatrix in="SourceAlpha" type="matrix" values="0 0 0 0 0 0 0 0 0 0 0 0 0 0 0 0 0 0 127 0" result="hardAlpha"/>
<feOffset dy="1.8"/>
<feGaussianBlur stdDeviation="3.6"/>
<feComposite in2="hardAlpha" operator="out"/>
<feColorMatrix type="matrix" values="0 0 0 0 0 0 0 0 0 0 0 0 0 0 0 0 0 0 0.6 0"/>
<feBlend mode="normal" in2="BackgroundImageFix" result="effect1_dropShadow_19_414"/>
<feBlend mode="normal" in="SourceGraphic" in2="effect1_dropShadow_19_414" result="shape"/>
</filter>
<radialGradient id="paint0_radial_19_414" cx="0" cy="0" r="1" gradientUnits="userSpaceOnUse" gradientTransform="translate(31.3667 38.2193) rotate(90) scale(27.936 27.9)">
<stop stop-color="white"/>
<stop offset="0.713725" stop-color="#F0F0F0"/>
<stop offset="1" stop-color="#CECECE"/>
</radialGradient>
<linearGradient id="paint1_linear_19_414" x1="31.3466" y1="9.38206" x2="31.3466" y2="68.8588" gradientUnits="userSpaceOnUse">
<stop stop-color="#B2B2B2"/>
<stop offset="1" stop-color="#F2F2F2"/>
</linearGradient>
</defs>
</svg>
