<svg width="63" height="64" viewBox="0 0 63 64" fill="none" xmlns="http://www.w3.org/2000/svg">
<path d="M31.28 63.1853C48.5376 63.1853 62.5276 49.1953 62.5276 31.9378C62.5276 14.6802 48.5376 0.690186 31.28 0.690186C14.0225 0.690186 0.0324707 14.6802 0.0324707 31.9378C0.0324707 49.1953 14.0225 63.1853 31.28 63.1853Z" fill="#0268D3"/>
<path fill-rule="evenodd" clip-rule="evenodd" d="M44.6716 26.6539C44.6716 22.7028 41.2866 19.3179 33.565 19.3179H20.0132C19.2663 19.3179 18.7002 19.884 18.7002 20.6309V44.3497C18.7002 45.0965 19.2663 45.6627 20.0132 45.6627H35.0708C42.973 45.6627 46.5508 42.085 46.5508 37.9411C46.5508 33.0504 40.9011 31.9181 40.9011 31.9181V31.5447C40.9011 31.5447 44.6716 30.4123 44.6716 26.6539ZM35.0708 35.1223C36.95 35.1223 37.8896 36.062 37.8896 37.375C37.8896 38.688 36.95 39.6396 35.0708 39.6396H26.9759V35.1223H35.0708ZM33.565 25.3289C35.2997 25.3289 36.0104 26.0878 36.0104 27.2081C36.0104 28.3284 35.2635 29.0873 33.565 29.0873H26.9759V25.3168H33.565V25.3289Z" fill="white"/>
</svg>
