<svg width="64" height="63" viewBox="0 0 64 63" fill="none" xmlns="http://www.w3.org/2000/svg">
<path d="M32.0799 62.5852C49.3374 62.5852 63.3274 48.5952 63.3274 31.3377C63.3274 14.0801 49.3374 0.0900879 32.0799 0.0900879C14.8223 0.0900879 0.832275 14.0801 0.832275 31.3377C0.832275 48.5952 14.8223 62.5852 32.0799 62.5852Z" fill="#0268D3"/>
<path fill-rule="evenodd" clip-rule="evenodd" d="M46.9448 19.4844C47.3182 18.9183 46.9448 18.1714 46.0052 18.1714H40.1749C39.0425 18.1714 38.2595 18.9183 37.9223 19.4844L32.2726 28.7117H31.8992L26.2496 19.4844C25.9123 18.9183 25.1172 18.1714 23.9849 18.1714H18.1546C17.215 18.1714 16.8416 18.9183 17.215 19.4844L27.9481 36.2405V43.2032C27.9481 43.9621 28.5142 44.5162 29.2611 44.5162H34.9107C35.6576 44.5162 36.2238 43.95 36.2238 43.2032V36.2405L46.9568 19.4844H46.9448Z" fill="white"/>
</svg>
