<svg width="63" height="64" viewBox="0 0 63 64" fill="none" xmlns="http://www.w3.org/2000/svg">
<path d="M31.6475 63.1853C48.905 63.1853 62.8951 49.1953 62.8951 31.9378C62.8951 14.6802 48.905 0.690186 31.6475 0.690186C14.3899 0.690186 0.399902 14.6802 0.399902 31.9378C0.399902 49.1953 14.3899 63.1853 31.6475 63.1853Z" fill="#0268D3"/>
<path fill-rule="evenodd" clip-rule="evenodd" d="M31.6355 37.7605L36.3455 44.3497C36.7189 44.9158 37.4416 45.6627 38.5981 45.6627H45.1873C46.1269 45.6627 46.5485 44.9158 46.1269 44.3497L37.0923 32.1108L45.368 20.6309C45.7775 20.0647 45.368 19.3179 44.4284 19.3179H38.0319C36.8996 19.3179 36.1527 20.0768 35.7673 20.6309L31.6234 26.8467H31.25L27.1061 20.6309C26.7327 20.0647 25.9738 19.3179 24.8415 19.3179H18.445C17.5054 19.3179 17.0958 20.0768 17.5054 20.6309L25.7931 32.1108L16.7585 44.3497C16.349 44.9158 16.7585 45.6627 17.6981 45.6627H24.2873C25.4558 45.6627 26.1666 44.9158 26.54 44.3497L31.25 37.7605H31.6234H31.6355Z" fill="white"/>
</svg>
