<svg width="63" height="64" viewBox="0 0 63 64" fill="none" xmlns="http://www.w3.org/2000/svg">
<path d="M31.3466 63.3886C48.6041 63.3886 62.5942 49.3805 62.5942 32.1007C62.5942 14.8208 48.6041 0.812744 31.3466 0.812744C14.089 0.812744 0.098999 14.8208 0.098999 32.1007C0.098999 49.3805 14.089 63.3886 31.3466 63.3886Z" fill="#0268D3"/>
<path fill-rule="evenodd" clip-rule="evenodd" d="M46.2114 20.2322C46.5848 19.6653 46.2114 18.9175 45.2718 18.9175H39.4415C38.3091 18.9175 37.5261 19.6653 37.1889 20.2322L31.5392 29.4714H31.1658L25.5162 20.2322C25.1789 19.6653 24.3838 18.9175 23.2515 18.9175H17.4212C16.4816 18.9175 16.1082 19.6653 16.4816 20.2322L27.2147 37.01V43.9816C27.2147 44.7415 27.7809 45.2963 28.5277 45.2963H34.1773C34.9242 45.2963 35.4904 44.7294 35.4904 43.9816V37.01L46.2234 20.2322H46.2114Z" fill="white"/>
</svg>
