<svg width="63" height="64" viewBox="0 0 63 64" fill="none" xmlns="http://www.w3.org/2000/svg">
<path d="M31.347 1.91821C47.8572 1.91847 61.2445 15.3209 61.2445 31.8567C61.2444 48.3924 47.8571 61.7939 31.347 61.7942C14.8368 61.7942 1.44868 48.3925 1.44861 31.8567C1.44861 15.3208 14.8367 1.91821 31.347 1.91821Z" fill="url(#paint0_radial_19_417)" stroke="url(#paint1_linear_19_417)" stroke-width="2.7" stroke-miterlimit="22.93"/>
<path d="M29.6203 5.50789C16.5059 6.93057 11.1195 14.385 11.1195 14.385C28.2277 10.7855 37.1824 10.8299 52.0288 14.7464C52.0288 14.7464 42.7346 4.08522 29.6203 5.50789Z" fill="#F3F3F3"/>
<g filter="url(#filter0_d_19_417)">
<path fill-rule="evenodd" clip-rule="evenodd" d="M38.4351 43.4413C38.7362 44.2012 39.3747 44.756 40.1336 44.756H46.5301C47.277 44.756 47.8069 44.1891 47.4697 43.4413L36.9293 19.6557C36.592 18.9079 35.9898 18.3772 35.2309 18.3772H27.5093C26.7624 18.3772 26.1601 18.9441 25.8108 19.6919L15.2705 43.4413C14.9332 44.2012 15.4632 44.756 16.21 44.756H22.2331C22.9799 44.756 23.6305 44.1891 23.9316 43.4413L25.2446 40.052H37.098L38.411 43.4413H38.4351ZM31.0991 26.2896H31.4725L34.484 33.8282H27.8948L31.0991 26.2896Z" fill="white"/>
</g>
<defs>
<filter id="filter0_d_19_417" x="7.96669" y="12.9772" width="46.8067" height="40.7789" filterUnits="userSpaceOnUse" color-interpolation-filters="sRGB">
<feFlood flood-opacity="0" result="BackgroundImageFix"/>
<feColorMatrix in="SourceAlpha" type="matrix" values="0 0 0 0 0 0 0 0 0 0 0 0 0 0 0 0 0 0 127 0" result="hardAlpha"/>
<feOffset dy="1.8"/>
<feGaussianBlur stdDeviation="3.6"/>
<feComposite in2="hardAlpha" operator="out"/>
<feColorMatrix type="matrix" values="0 0 0 0 0 0 0 0 0 0 0 0 0 0 0 0 0 0 0.6 0"/>
<feBlend mode="normal" in2="BackgroundImageFix" result="effect1_dropShadow_19_417"/>
<feBlend mode="normal" in="SourceGraphic" in2="effect1_dropShadow_19_417" result="shape"/>
</filter>
<radialGradient id="paint0_radial_19_417" cx="0" cy="0" r="1" gradientUnits="userSpaceOnUse" gradientTransform="translate(31.3667 32.2193) rotate(90) scale(27.936 27.9)">
<stop stop-color="white"/>
<stop offset="0.713725" stop-color="#F0F0F0"/>
<stop offset="1" stop-color="#CECECE"/>
</radialGradient>
<linearGradient id="paint1_linear_19_417" x1="31.3466" y1="3.38206" x2="31.3466" y2="62.8588" gradientUnits="userSpaceOnUse">
<stop stop-color="#B2B2B2"/>
<stop offset="1" stop-color="#F2F2F2"/>
</linearGradient>
</defs>
</svg>
