<svg width="50" height="55" viewBox="0 0 50 55" fill="none" xmlns="http://www.w3.org/2000/svg">
<path fill-rule="evenodd" clip-rule="evenodd" d="M5.00789 50.8208C10.8021 55.6754 19.5114 54.9165 24.366 49.1223L46.6151 22.6089C51.4697 16.8147 50.7108 8.10537 44.9166 3.25079C39.1224 -1.60378 30.4131 -0.844874 25.5585 4.9493L3.30939 31.4628C-1.54519 37.2569 -0.78628 45.9663 5.00789 50.8208Z" fill="#F0F0F0"/>
<path fill-rule="evenodd" clip-rule="evenodd" d="M12.874 39.2807C12.6572 39.1 12.621 38.6904 13.1751 38.0279C13.6449 37.4738 14.0545 37.4256 14.2231 37.4617C14.5002 37.5099 14.705 37.4858 14.8857 37.269L15.6566 36.3414C15.8132 36.1607 15.7892 35.956 15.6085 35.7994C14.8737 35.185 13.3799 35.3055 11.9465 37.004C10.4286 38.8109 10.5491 40.2323 11.4405 40.9792C13.5124 42.7138 15.8133 38.5459 16.5481 39.1602C16.7649 39.3409 16.8131 39.8228 16.1867 40.5576C15.5723 41.2924 15.1628 41.3285 14.8857 41.2924C14.6207 41.2442 14.4038 41.2683 14.2231 41.4851L13.4522 42.4127C13.2956 42.5934 13.3197 42.7981 13.5004 42.9547C14.3075 43.6414 15.8012 43.5089 17.4154 41.5815C18.9934 39.7023 18.8609 38.2086 17.9816 37.4617C15.9096 35.7271 13.6088 39.895 12.874 39.2807ZM19.4632 28.8729L20.198 29.4872C20.3426 29.6077 20.3667 29.8125 20.2342 29.957L18.9332 31.511L22.5831 34.5827C22.7277 34.7032 22.7518 34.908 22.6193 35.0525L21.6917 36.1607C21.5713 36.3053 21.3665 36.3294 21.222 36.1969L17.572 33.1251L16.271 34.6791C16.1505 34.8236 15.9458 34.8477 15.8012 34.7152L15.0664 34.1009C14.9218 33.9804 14.8977 33.7756 15.0303 33.6311L18.9934 28.909C19.1139 28.7644 19.3187 28.7403 19.4632 28.8729ZM27.9557 28.1983C28.1485 28.2585 28.3653 28.2344 28.4978 28.0778L29.5458 26.825C29.6662 26.6805 29.6422 26.4757 29.4374 26.4275L23.0409 24.5844C22.8361 24.5242 22.6313 24.5604 22.5109 24.7049L21.246 26.2227C21.1256 26.3673 21.1376 26.5841 21.222 26.7768L24.1371 32.7517C24.2335 32.9444 24.4262 32.9324 24.5467 32.7878L25.5344 31.6073C25.6549 31.4628 25.6549 31.2459 25.5585 31.0532L25.1128 30.2341L27.0643 27.9092L27.9437 28.2103L27.9557 28.1983ZM23.3902 26.825L23.4505 26.7528L25.426 27.4032L24.3419 28.6922L23.3902 26.825ZM31.8346 19.4528L31.9068 19.513C31.9068 19.513 32.3285 19.3083 33.3042 19.489L34.9786 19.8262C35.1352 19.8624 35.2315 20.0431 35.087 20.2238L34.1233 21.3681C33.8704 21.6693 33.6776 21.6693 33.4608 21.6332L31.7864 21.2959C31.4611 21.2236 31.1961 21.2477 30.8588 21.6452L30.0517 22.6089L31.5696 23.8737C31.7141 23.9942 31.7382 24.199 31.6057 24.3435L30.6781 25.4518C30.5577 25.5963 30.3529 25.6204 30.2083 25.4879L25.5585 21.585C25.414 21.4645 25.3899 21.2597 25.5224 21.1152L27.7871 18.4169C29.1483 16.7906 30.5697 16.6702 31.4973 17.4411C32.461 18.2482 31.8466 19.4287 31.8466 19.4287L31.8346 19.4528ZM28.8833 21.6211L30.0035 20.296C30.4011 19.8142 30.3649 19.4046 30.0758 19.1637C29.7747 18.9107 29.3772 18.9469 28.9676 19.4287L27.8473 20.7538L28.8833 21.6211ZM35.2195 10.093C35.075 9.97254 34.8702 9.98458 34.7497 10.1291L30.7865 14.8512C30.6661 14.9958 30.6781 15.2005 30.8227 15.321L31.5575 15.9353C31.7021 16.0558 31.9068 16.0438 32.0273 15.8992L33.3283 14.3453L36.9782 17.417C37.1228 17.5375 37.3276 17.5254 37.448 17.3809L38.3756 16.2727C38.4961 16.1281 38.484 15.9233 38.3395 15.8029L34.6895 12.7311L35.9905 11.1771C36.1109 11.0326 36.0989 10.8278 35.9543 10.7073L35.2195 10.093Z" fill="#AAAAAA"/>
</svg>
