<svg width="900" height="775" viewBox="0 0 900 775" fill="none" xmlns="http://www.w3.org/2000/svg">
<g clip-path="url(#clip0_17_212)">
<rect width="900" height="775" fill="white"/>
<path fill-rule="evenodd" clip-rule="evenodd" d="M219.317 0C253.793 0 282.873 46.4736 291.883 109.954C292.762 116.118 288.703 121.871 282.62 123.125L158.316 148.696C154.642 149.456 151.16 148.551 148.318 146.103C145.475 143.654 144.041 140.349 144.234 136.598C147.992 59.9103 180.18 0 219.317 0Z" fill="#A1A1A1"/>
<path fill-rule="evenodd" clip-rule="evenodd" d="M680.185 0C645.709 0 616.63 46.4736 607.619 109.954C606.74 116.118 610.8 121.871 616.883 123.125L741.187 148.696C744.861 149.456 748.342 148.551 751.185 146.103C754.028 143.654 755.461 140.349 755.268 136.598C751.51 59.9103 719.323 0 680.185 0Z" fill="#A1A1A1"/>
<path fill-rule="evenodd" clip-rule="evenodd" d="M447.835 599.532H297.801C253.797 599.532 242.57 601.377 187.832 675.592C166.968 703.889 145.141 733.838 121.157 763.052C118.17 766.694 114.64 766.513 110.737 768.636C106.473 770.952 102.594 775.427 98.7274 775.379C87.2715 775.439 27.2217 746.696 18.0788 733.368C7.75525 718.315 2.31042 703.033 0.623964 664.098C-0.412 640.167 1.05762 616.213 1.82857 592.295C3.68367 535.159 38.6053 415.676 104.016 253.41C113.002 234.461 133.649 218.166 146.129 210.133L146.093 199.06C146.093 188.012 181.966 168.05 225.416 155.759C244.883 150.259 270.071 145.012 289.658 145.012C305.041 145.012 322.002 149.234 325.314 153.962H341.263L343.07 149.716H557.142L558.948 153.962H574.897C578.21 149.234 595.171 145.012 610.554 145.012C630.141 145.012 655.329 150.259 674.796 155.759C718.246 168.038 754.119 188 754.119 199.06L754.083 210.133C766.563 218.166 787.21 234.461 796.196 253.41C861.607 415.676 896.528 535.159 898.383 592.295C899.154 616.225 900.624 640.167 899.588 664.098C897.901 703.033 892.457 718.327 882.145 733.368C873.002 746.696 812.94 775.427 801.497 775.379C797.63 775.427 793.751 770.964 789.487 768.636C785.584 766.513 782.054 766.694 779.067 763.052C755.083 733.838 733.255 703.889 712.392 675.592C657.654 601.377 646.427 599.532 602.423 599.532H447.823H447.835Z" fill="#A1A1A1"/>
<path d="M290.771 418V387.722H300.979C303.603 387.722 305.838 388.155 307.684 389.02C309.529 389.87 311.021 391.024 312.16 392.48C313.314 393.922 314.15 395.544 314.669 397.346C315.203 399.134 315.469 400.972 315.469 402.861C315.469 404.591 315.217 406.343 314.712 408.116C314.222 409.89 313.415 411.526 312.29 413.026C311.166 414.511 309.659 415.715 307.77 416.638C305.896 417.546 303.574 418 300.806 418H290.771ZM296.373 412.68H301.39C302.933 412.68 304.231 412.391 305.283 411.815C306.336 411.224 307.179 410.452 307.813 409.501C308.462 408.535 308.931 407.475 309.219 406.321C309.522 405.154 309.673 404 309.673 402.861C309.673 401.65 309.522 400.46 309.219 399.293C308.916 398.125 308.448 397.065 307.813 396.113C307.179 395.162 306.372 394.405 305.391 393.843C304.411 393.28 303.236 392.999 301.866 392.999H296.373V412.68Z" fill="white"/>
<path d="M321.311 418V387.722H326.913V418H321.311Z" fill="white"/>
<path d="M343.972 418.519C342.083 418.519 340.367 418.187 338.825 417.524C337.282 416.861 335.955 415.924 334.845 414.713C333.75 413.487 332.928 412.045 332.38 410.387L337.462 408.506C338.111 409.89 339.012 411.029 340.166 411.923C341.333 412.802 342.645 413.242 344.102 413.242C345.644 413.242 346.87 412.918 347.778 412.269C348.701 411.62 349.162 410.676 349.162 409.436C349.162 408.585 348.888 407.879 348.341 407.316C347.807 406.739 347.079 406.249 346.156 405.846C345.248 405.427 344.217 405.024 343.064 404.634C341.953 404.26 340.836 403.841 339.711 403.38C338.587 402.919 337.556 402.356 336.619 401.693C335.682 401.016 334.925 400.165 334.348 399.141C333.786 398.117 333.504 396.863 333.504 395.378C333.504 393.893 333.901 392.53 334.694 391.291C335.487 390.051 336.633 389.063 338.133 388.328C339.646 387.578 341.478 387.203 343.626 387.203C345.385 387.203 346.942 387.506 348.297 388.111C349.667 388.702 350.799 389.51 351.693 390.534C352.587 391.557 353.207 392.718 353.553 394.016L348.535 395.681C348.132 394.772 347.512 394.016 346.675 393.41C345.853 392.79 344.736 392.48 343.323 392.48C341.997 392.48 340.966 392.74 340.23 393.259C339.495 393.778 339.127 394.513 339.127 395.465C339.127 396.113 339.373 396.668 339.863 397.13C340.367 397.577 341.038 397.981 341.874 398.341C342.725 398.701 343.684 399.069 344.75 399.444C345.947 399.848 347.137 400.309 348.319 400.828C349.516 401.333 350.597 401.953 351.563 402.688C352.543 403.423 353.329 404.339 353.92 405.435C354.512 406.516 354.807 407.842 354.807 409.414C354.807 411.346 354.324 412.99 353.358 414.345C352.406 415.7 351.116 416.738 349.487 417.459C347.858 418.166 346.019 418.519 343.972 418.519Z" fill="white"/>
<path d="M372.164 418.476C369.814 418.476 367.824 418.022 366.195 417.113C364.58 416.205 363.275 415.001 362.281 413.502C361.3 411.988 360.587 410.308 360.14 408.462C359.693 406.617 359.469 404.75 359.469 402.861C359.469 401.073 359.693 399.264 360.14 397.433C360.601 395.587 361.329 393.893 362.324 392.35C363.333 390.793 364.645 389.546 366.26 388.609C367.875 387.672 369.843 387.203 372.164 387.203C374.082 387.203 375.747 387.527 377.16 388.176C378.573 388.811 379.741 389.64 380.664 390.663C381.601 391.673 382.315 392.732 382.805 393.843L377.787 396.178C377.297 395.429 376.792 394.787 376.273 394.253C375.754 393.706 375.163 393.287 374.5 392.999C373.851 392.696 373.073 392.545 372.164 392.545C370.867 392.545 369.778 392.862 368.899 393.496C368.019 394.116 367.313 394.938 366.779 395.962C366.246 396.986 365.864 398.103 365.633 399.314C365.402 400.525 365.287 401.708 365.287 402.861C365.287 404.087 365.417 405.305 365.676 406.516C365.936 407.727 366.347 408.83 366.909 409.825C367.471 410.82 368.185 411.62 369.05 412.226C369.915 412.817 370.953 413.112 372.164 413.112C373.462 413.112 374.55 412.752 375.43 412.031C376.324 411.296 377.117 410.358 377.809 409.219L382.935 411.144C382.286 412.543 381.471 413.797 380.491 414.907C379.51 416.018 378.335 416.89 376.965 417.524C375.596 418.159 373.995 418.476 372.164 418.476Z" fill="white"/>
<path d="M399.548 418.519C397.126 418.519 395.071 418.065 393.384 417.157C391.698 416.234 390.335 415.015 389.297 413.502C388.273 411.973 387.524 410.286 387.048 408.441C386.572 406.595 386.334 404.735 386.334 402.861C386.334 400.987 386.572 399.127 387.048 397.281C387.524 395.436 388.273 393.756 389.297 392.242C390.335 390.714 391.698 389.495 393.384 388.587C395.071 387.664 397.126 387.203 399.548 387.203C401.97 387.203 404.018 387.664 405.69 388.587C407.377 389.495 408.733 390.714 409.756 392.242C410.794 393.756 411.544 395.436 412.005 397.281C412.481 399.127 412.719 400.987 412.719 402.861C412.719 404.735 412.481 406.595 412.005 408.441C411.544 410.286 410.794 411.973 409.756 413.502C408.733 415.015 407.377 416.234 405.69 417.157C404.018 418.065 401.97 418.519 399.548 418.519ZM399.548 413.134C400.904 413.134 402.05 412.817 402.987 412.182C403.939 411.548 404.703 410.719 405.279 409.695C405.856 408.672 406.274 407.561 406.534 406.365C406.793 405.154 406.923 403.986 406.923 402.861C406.923 401.65 406.793 400.439 406.534 399.228C406.289 398.002 405.878 396.892 405.301 395.897C404.739 394.888 403.982 394.08 403.03 393.475C402.093 392.855 400.932 392.545 399.548 392.545C398.15 392.545 396.975 392.862 396.023 393.496C395.086 394.131 394.329 394.967 393.752 396.005C393.19 397.029 392.779 398.146 392.519 399.357C392.274 400.554 392.152 401.722 392.152 402.861C392.152 404.058 392.274 405.262 392.519 406.473C392.779 407.684 393.197 408.794 393.774 409.803C394.365 410.813 395.129 411.62 396.066 412.226C397.018 412.831 398.178 413.134 399.548 413.134Z" fill="white"/>
<path d="M418.549 418V387.722H423.782L435.721 405.543C435.879 405.802 436.081 406.156 436.326 406.603C436.586 407.035 436.802 407.432 436.975 407.792C436.932 407.475 436.896 407.093 436.867 406.646C436.852 406.184 436.845 405.817 436.845 405.543V387.722H442.425V418H437.429L425.253 400.05C425.094 399.804 424.885 399.458 424.626 399.011C424.381 398.564 424.172 398.161 423.999 397.8C424.042 398.161 424.071 398.55 424.085 398.968C424.1 399.386 424.107 399.747 424.107 400.05V418H418.549Z" fill="white"/>
<path d="M449.511 418V387.722H454.745L466.683 405.543C466.841 405.802 467.043 406.156 467.288 406.603C467.548 407.035 467.764 407.432 467.937 407.792C467.894 407.475 467.858 407.093 467.829 406.646C467.815 406.184 467.807 405.817 467.807 405.543V387.722H473.387V418H468.391L456.215 400.05C456.057 399.804 455.848 399.458 455.588 399.011C455.343 398.564 455.134 398.161 454.961 397.8C455.004 398.161 455.033 398.55 455.047 398.968C455.062 399.386 455.069 399.747 455.069 400.05V418H449.511Z" fill="white"/>
<path d="M480.473 418V387.722H500.932V393.042H486.075V399.703H494.877V405.024H486.075V412.636H501.841V418H480.473Z" fill="white"/>
<path d="M518.105 418.476C515.755 418.476 513.765 418.022 512.136 417.113C510.521 416.205 509.216 415.001 508.221 413.502C507.241 411.988 506.527 410.308 506.08 408.462C505.633 406.617 505.41 404.75 505.41 402.861C505.41 401.073 505.633 399.264 506.08 397.433C506.542 395.587 507.27 393.893 508.265 392.35C509.274 390.793 510.586 389.546 512.201 388.609C513.816 387.672 515.784 387.203 518.105 387.203C520.023 387.203 521.688 387.527 523.101 388.176C524.514 388.811 525.682 389.64 526.604 390.663C527.542 391.673 528.255 392.732 528.746 393.843L523.728 396.178C523.238 395.429 522.733 394.787 522.214 394.253C521.695 393.706 521.104 393.287 520.441 392.999C519.792 392.696 519.013 392.545 518.105 392.545C516.807 392.545 515.719 392.862 514.839 393.496C513.96 394.116 513.253 394.938 512.72 395.962C512.186 396.986 511.804 398.103 511.574 399.314C511.343 400.525 511.228 401.708 511.228 402.861C511.228 404.087 511.357 405.305 511.617 406.516C511.876 407.727 512.287 408.83 512.85 409.825C513.412 410.82 514.126 411.62 514.991 412.226C515.856 412.817 516.894 413.112 518.105 413.112C519.403 413.112 520.491 412.752 521.371 412.031C522.265 411.296 523.058 410.358 523.75 409.219L528.875 411.144C528.227 412.543 527.412 413.797 526.431 414.907C525.451 416.018 524.276 416.89 522.906 417.524C521.537 418.159 519.936 418.476 518.105 418.476Z" fill="white"/>
<path d="M540.356 418V393.107H531.77V387.722H554.587V393.107H545.958V418H540.356Z" fill="white"/>
<path d="M559.674 418V387.722H580.133V393.042H565.275V399.703H574.078V405.024H565.275V412.636H581.042V418H559.674Z" fill="white"/>
<path d="M586.497 418V387.722H596.705C599.329 387.722 601.564 388.155 603.409 389.02C605.255 389.87 606.747 391.024 607.886 392.48C609.039 393.922 609.876 395.544 610.395 397.346C610.928 399.134 611.195 400.972 611.195 402.861C611.195 404.591 610.943 406.343 610.438 408.116C609.948 409.89 609.14 411.526 608.016 413.026C606.891 414.511 605.384 415.715 603.496 416.638C601.621 417.546 599.3 418 596.532 418H586.497ZM592.098 412.68H597.116C598.658 412.68 599.956 412.391 601.009 411.815C602.061 411.224 602.905 410.452 603.539 409.501C604.188 408.535 604.656 407.475 604.945 406.321C605.247 405.154 605.399 404 605.399 402.861C605.399 401.65 605.247 400.46 604.945 399.293C604.642 398.125 604.173 397.065 603.539 396.113C602.905 395.162 602.097 394.405 601.117 393.843C600.136 393.28 598.961 392.999 597.591 392.999H592.098V412.68Z" fill="white"/>
</g>
<defs>
<clipPath id="clip0_17_212">
<rect width="900" height="775" fill="white"/>
</clipPath>
</defs>
</svg>
