<svg width="64" height="64" viewBox="0 0 64 64" fill="none" xmlns="http://www.w3.org/2000/svg">
<path d="M31.9143 63.0632C49.1719 63.0632 63.1619 49.0551 63.1619 31.7753C63.1619 14.4954 49.1719 0.487305 31.9143 0.487305C14.6568 0.487305 0.666748 14.4954 0.666748 31.7753C0.666748 49.0551 14.6568 63.0632 31.9143 63.0632Z" fill="#0268D3"/>
<path fill-rule="evenodd" clip-rule="evenodd" d="M31.9021 37.6056L36.6121 44.2033C36.9855 44.7702 37.7082 45.518 38.8647 45.518H45.4539C46.3935 45.518 46.8151 44.7702 46.3935 44.2033L37.3589 31.9486L45.6346 20.4539C46.0441 19.887 45.6346 19.1392 44.695 19.1392H38.2985C37.1662 19.1392 36.4193 19.899 36.0339 20.4539L31.89 26.6777H31.5166L27.3727 20.4539C26.9993 19.887 26.2404 19.1392 25.1081 19.1392H18.7116C17.772 19.1392 17.3624 19.899 17.772 20.4539L26.0597 31.9486L17.0251 44.2033C16.6156 44.7702 17.0251 45.518 17.9647 45.518H24.5539C25.7224 45.518 26.4332 44.7702 26.8066 44.2033L31.5166 37.6056H31.89H31.9021Z" fill="white"/>
</svg>
