<svg width="51" height="55" viewBox="0 0 51 55" fill="none" xmlns="http://www.w3.org/2000/svg">
<path fill-rule="evenodd" clip-rule="evenodd" d="M5.66268 3.25079C11.4568 -1.60378 20.1662 -0.844874 25.0208 4.9493L47.2699 31.4628C52.1245 37.2569 51.3656 45.9663 45.5714 50.8208C39.7772 55.6754 31.0679 54.9165 26.2133 49.1223L3.96417 22.6089C-0.890403 16.8147 -0.131495 8.10537 5.66268 3.25079Z" fill="#F0F0F0"/>
<path fill-rule="evenodd" clip-rule="evenodd" d="M13.119 9.96057C13.3359 9.77988 13.7454 9.81601 14.2996 10.4785C14.7694 11.0327 14.7332 11.4422 14.685 11.6109C14.5886 11.8639 14.5766 12.0807 14.7573 12.2975L15.5282 13.2251C15.6848 13.4057 15.8896 13.4299 16.0703 13.2733C16.8051 12.6589 16.9376 11.1652 15.5162 9.46668C13.9984 7.65977 12.5769 7.52727 11.6855 8.27413C9.61361 10.0088 13.3238 12.9962 12.589 13.6226C12.3722 13.8033 11.8903 13.7671 11.276 13.0323C10.6616 12.2975 10.6978 11.888 10.7821 11.6229C10.8784 11.37 10.8905 11.1531 10.7098 10.9363L9.93884 10.0088C9.78224 9.82806 9.57748 9.80398 9.39679 9.96057C8.5897 10.6472 8.45718 12.1409 10.0593 14.0562C11.6373 15.9354 13.1311 16.0679 14.0225 15.3211C16.0944 13.5864 12.3842 10.599 13.119 9.97261V9.96057ZM22.527 18.6217L21.7922 19.2361C21.6476 19.3565 21.4429 19.3445 21.3224 19.1999L18.6843 16.0679L18.0218 16.6221L19.9733 18.947C20.0937 19.0915 20.0817 19.2963 19.9371 19.4168L19.2023 20.0311C19.0577 20.1516 18.853 20.1395 18.7325 19.995L16.781 17.6701L16.0462 18.2844L18.6843 21.4164C18.8048 21.561 18.7927 21.7657 18.6482 21.8862L17.9134 22.5006C17.7688 22.621 17.564 22.609 17.4436 22.4644L13.6611 17.9592C13.5406 17.8146 13.5527 17.6098 13.6973 17.4894L18.347 13.5864C18.4916 13.466 18.6964 13.478 18.8168 13.6226L22.5993 18.1278C22.7198 18.2724 22.7077 18.4772 22.5632 18.5976L22.527 18.6217ZM23.4907 27.7165C23.6353 27.5961 23.6593 27.3913 23.5268 27.2467L21.2019 24.4761L24.8519 21.4044C24.9965 21.2839 25.0206 21.0791 24.888 20.9346L23.9605 19.8263C23.8401 19.6818 23.6353 19.6577 23.4907 19.7902L18.8409 23.6931C18.6964 23.8136 18.6723 24.0184 18.8048 24.1629L22.2741 28.2947C22.3945 28.4393 22.5993 28.4634 22.7438 28.3309L23.4787 27.7165H23.4907ZM32.4651 30.463L31.7302 31.0774C31.5857 31.1978 31.3809 31.1858 31.2604 31.0412L28.6223 27.9093L27.9598 28.4634L29.9113 30.7883C30.0317 30.9328 30.0197 31.1376 29.8752 31.2581L29.1403 31.8724C28.9958 31.9929 28.791 31.9808 28.6705 31.8363L26.7191 29.5114L25.9842 30.1257L28.6223 33.2577C28.7428 33.4023 28.7308 33.6071 28.5862 33.7275L27.8514 34.3419C27.7069 34.4623 27.5021 34.4503 27.3816 34.3057L23.5991 29.8005C23.4786 29.6559 23.4907 29.4512 23.6353 29.3307L28.2851 25.4278C28.4296 25.3073 28.6344 25.3193 28.7549 25.4639L32.5373 29.9691C32.6578 30.1137 32.6457 30.3185 32.5012 30.4389L32.4651 30.463ZM36.1994 34.0889C34.5611 32.1374 32.5855 31.9567 30.9232 33.3541C29.2608 34.7514 29.0921 36.715 30.7304 38.6785C32.2121 40.4492 33.9829 40.6058 34.8622 39.859C35.0429 39.7024 35.067 39.4976 34.9104 39.3169L34.1394 38.3894C33.9588 38.1725 33.7419 38.1484 33.4769 38.1966C32.9951 38.293 32.441 38.2448 31.9471 37.6546C31.2605 36.8475 31.3448 35.8958 32.3446 35.0526C33.3444 34.2214 34.296 34.2937 34.9706 35.1128C35.4404 35.667 35.3923 36.1367 35.2477 36.5704C35.1513 36.8354 35.1393 37.0402 35.32 37.257L36.0909 38.1846C36.2475 38.3653 36.4523 38.3894 36.633 38.2328C37.4762 37.522 37.6328 35.8235 36.1752 34.0889H36.1994ZM43.0777 43.1114L42.3429 43.7258C42.1983 43.8462 41.9935 43.8342 41.8731 43.6896L40.5721 42.1357L36.9221 45.2074C36.7776 45.3279 36.5728 45.3159 36.4523 45.1713L35.5248 44.0631C35.4043 43.9185 35.4164 43.7137 35.5609 43.5933L39.2109 40.5215L37.9099 38.9676C37.7894 38.823 37.8015 38.6182 37.946 38.4978L38.6808 37.8834C38.8254 37.763 39.0302 37.775 39.1506 37.9196L43.1138 42.6416C43.2343 42.7862 43.2222 42.991 43.0777 43.1114Z" fill="#AAAAAA"/>
</svg>
