<svg width="187" height="188" viewBox="0 0 187 188" fill="none" xmlns="http://www.w3.org/2000/svg">
<g filter="url(#filter0_d_17_74)">
<path d="M93.2309 146.457C124.187 146.457 149.281 121.33 149.281 90.3343C149.281 59.3385 124.187 34.2114 93.2309 34.2114C62.2751 34.2114 37.1804 59.3385 37.1804 90.3343C37.1804 121.33 62.2751 146.457 93.2309 146.457Z" fill="#B2B2B2"/>
<path d="M93.2309 130.958C115.638 130.958 133.802 112.77 133.802 90.3344C133.802 67.8985 115.638 49.7107 93.2309 49.7107C70.824 49.7107 52.6597 67.8985 52.6597 90.3344C52.6597 112.77 70.824 130.958 93.2309 130.958Z" fill="#E6E6E6"/>
<path d="M120.138 117.271C134.997 102.393 134.997 78.2705 120.138 63.3924C105.279 48.5144 81.1883 48.5144 66.3295 63.3925C51.4706 78.2705 51.4706 102.393 66.3295 117.271C81.1883 132.149 105.279 132.149 120.138 117.271Z" fill="url(#paint0_radial_17_74)"/>
<path fill-rule="evenodd" clip-rule="evenodd" d="M88.3764 133.129C89.2437 133.225 88.0391 145.552 87.9307 146.204C87.8343 146.855 87.0393 147.313 86.172 147.217C85.3047 147.12 84.6783 146.529 84.7867 145.878C84.8831 145.227 87.5091 133.045 88.3764 133.129ZM94.8933 133.346C95.7607 133.262 97.0376 145.589 97.0617 146.252C97.0858 146.915 96.4112 147.506 95.5438 147.591C94.6765 147.675 93.9417 147.205 93.9176 146.554C93.8935 145.89 94.026 133.43 94.8933 133.346ZM91.4964 133.358C90.617 133.358 89.2317 145.745 89.2076 146.397C89.1714 147.048 89.846 147.591 90.7254 147.591C91.6048 147.591 92.3396 147.06 92.3757 146.409C92.4119 145.745 92.3757 133.358 91.5084 133.358H91.4964ZM98.0133 133.117C98.8686 132.948 101.374 145.082 101.471 145.733C101.567 146.385 100.953 147.048 100.097 147.229C99.242 147.398 98.4711 147.012 98.3747 146.361C98.2783 145.709 97.1701 133.286 98.0253 133.117H98.0133ZM101.458 132.598C100.615 132.815 102.338 145.154 102.47 145.806C102.603 146.457 103.386 146.807 104.241 146.59C105.084 146.373 105.675 145.685 105.542 145.034C105.41 144.382 102.314 132.381 101.471 132.598H101.458ZM104.506 131.887C105.325 131.585 109.602 143.225 109.794 143.852C109.987 144.479 109.469 145.227 108.65 145.528C107.831 145.83 107.012 145.552 106.819 144.925C106.626 144.298 103.687 132.176 104.506 131.887ZM107.831 130.837C107.024 131.175 110.553 143.128 110.782 143.743C110.999 144.358 111.842 144.588 112.649 144.25C113.456 143.912 113.926 143.14 113.709 142.513C113.493 141.898 108.65 130.487 107.843 130.825L107.831 130.837ZM110.746 129.655C109.975 130.065 114.649 141.62 114.938 142.223C115.215 142.814 116.07 142.971 116.841 142.549C117.612 142.139 118.01 141.319 117.721 140.728C117.444 140.137 111.517 129.245 110.746 129.667V129.655ZM113.89 128.111C114.637 127.665 121.082 138.243 121.395 138.822C121.708 139.401 121.347 140.233 120.6 140.692C119.853 141.138 118.998 141.041 118.684 140.45C118.371 139.871 113.143 128.558 113.89 128.099V128.111ZM116.588 126.483C117.287 125.964 124.719 135.879 125.081 136.422C125.442 136.965 125.165 137.833 124.467 138.352C123.768 138.87 122.901 138.846 122.539 138.303C122.178 137.761 115.89 126.99 116.588 126.471V126.483ZM119.178 124.674C118.528 125.253 125.816 135.372 126.225 135.879C126.635 136.386 127.502 136.325 128.153 135.746C128.803 135.155 128.996 134.275 128.574 133.756C128.165 133.25 119.829 124.083 119.178 124.662V124.674ZM121.889 122.442C121.262 123.057 129.02 132.815 129.454 133.31C129.887 133.804 130.755 133.696 131.369 133.081C131.995 132.466 132.14 131.573 131.706 131.078C131.273 130.584 122.515 121.827 121.889 122.442ZM124.165 120.247C123.599 120.923 132.248 129.896 132.73 130.343C133.212 130.789 134.055 130.608 134.621 129.933C135.176 129.257 135.248 128.353 134.766 127.906C134.284 127.46 124.744 119.572 124.177 120.235L124.165 120.247ZM126.502 117.642C127.032 116.942 136.934 124.372 137.44 124.794C137.946 125.216 137.922 126.133 137.392 126.821C136.862 127.52 136.031 127.737 135.525 127.315C135.019 126.893 125.972 118.329 126.502 117.63V117.642ZM128.406 115.121C128.863 114.373 139.428 120.838 139.97 121.212C140.512 121.586 140.572 122.491 140.114 123.238C139.657 123.986 138.85 124.276 138.307 123.902C137.765 123.528 127.948 115.869 128.406 115.121ZM130.14 112.479C130.526 111.695 141.656 117.111 142.235 117.425C142.813 117.75 142.957 118.643 142.572 119.427C142.186 120.211 141.403 120.585 140.837 120.271C140.271 119.958 129.755 113.263 130.14 112.479ZM131.815 109.404C131.465 110.2 142.283 116.375 142.873 116.677C143.463 116.966 144.222 116.556 144.571 115.76C144.921 114.964 144.728 114.072 144.138 113.782C143.548 113.493 132.164 108.62 131.815 109.416V109.404ZM133.104 106.533C132.839 107.365 144.198 112.455 144.812 112.696C145.427 112.926 146.137 112.443 146.415 111.611C146.68 110.779 146.414 109.91 145.788 109.681C145.174 109.452 133.381 105.701 133.104 106.533ZM134.296 103.24C134.525 102.396 146.487 105.568 147.113 105.773C147.74 105.978 148.065 106.822 147.836 107.667C147.607 108.511 146.92 109.03 146.294 108.825C145.668 108.62 134.079 104.084 134.308 103.24H134.296ZM135.115 100.213C134.971 101.081 146.957 104.446 147.595 104.579C148.233 104.724 148.872 104.133 149.016 103.276C149.161 102.42 148.751 101.6 148.113 101.455C147.475 101.31 135.248 99.3443 135.103 100.201L135.115 100.213ZM135.79 96.7872C135.886 95.9187 148.197 97.2817 148.848 97.3902C149.498 97.4988 149.944 98.2949 149.836 99.1633C149.727 100.032 149.125 100.647 148.474 100.538C147.824 100.43 135.693 97.6556 135.79 96.7872ZM136.127 93.6753C136.115 94.5558 148.462 96.0876 149.125 96.1358C149.775 96.1841 150.33 95.5086 150.342 94.6281C150.354 93.7476 149.836 93.0119 149.185 92.9636C148.535 92.9154 136.151 92.7948 136.139 93.6753H136.127ZM136.272 90.1894C136.248 89.321 148.607 88.8144 149.269 88.8265C149.932 88.8265 150.486 89.5502 150.51 90.4307C150.534 91.2991 150.028 91.9987 149.378 91.9987C148.715 91.9987 136.308 91.0699 136.272 90.1894ZM136.139 87.0655C136.019 86.197 148.282 84.4601 148.932 84.4119C149.583 84.3516 150.209 85.015 150.33 85.8834C150.45 86.7518 150.004 87.4997 149.354 87.5479C148.703 87.6082 136.26 87.9339 136.139 87.0655ZM135.754 83.6038C135.91 84.4602 148.33 83.5073 148.98 83.4229C149.631 83.3384 150.028 82.5665 149.872 81.7101C149.715 80.8537 149.053 80.2265 148.402 80.3109C147.752 80.3954 135.597 82.7474 135.754 83.6038ZM135.139 80.5401C134.898 79.6958 146.752 76.1496 147.39 76.0049C148.029 75.8481 148.751 76.415 148.992 77.2473C149.233 78.0916 148.92 78.8877 148.282 79.0445C147.643 79.2013 135.392 81.3844 135.139 80.5401ZM134.236 77.1629C134.525 77.9951 146.655 75.1968 147.282 75.0159C147.908 74.835 148.197 74.0147 147.908 73.1825C147.619 72.3502 146.884 71.8316 146.246 72.0125C145.619 72.1934 133.947 76.3306 134.236 77.1508V77.1629ZM133.152 74.2198C132.79 73.4237 143.993 68.1648 144.608 67.9236C145.222 67.6824 146.005 68.1286 146.378 68.9247C146.74 69.7208 146.547 70.5651 145.933 70.8063C145.318 71.0476 133.525 75.0159 133.152 74.2198ZM131.875 71.337C131.429 70.5772 142.078 64.2689 142.668 63.9553C143.246 63.6538 144.078 64.0156 144.523 64.7755C144.969 65.5354 144.849 66.3918 144.258 66.6933C143.68 66.9949 132.309 72.0849 131.875 71.337ZM130.2 68.2613C130.67 68.9971 141.777 63.3643 142.355 63.0266C142.921 62.7009 142.993 61.8325 142.524 61.0967C142.042 60.3609 141.199 60.0353 140.632 60.373C140.066 60.6987 129.731 67.5256 130.213 68.2613H130.2ZM128.478 65.6078C129.02 66.2953 139.536 59.6252 140.078 59.2392C140.608 58.8532 140.608 57.9968 140.066 57.3093C139.524 56.6218 138.645 56.3806 138.115 56.7666C137.585 57.1525 127.948 64.9323 128.49 65.6078H128.478ZM126.37 62.8095C125.792 62.1461 135.055 53.92 135.561 53.522C136.079 53.1119 136.958 53.3169 137.537 53.9803C138.115 54.6437 138.163 55.5001 137.645 55.9102C137.127 56.3203 126.936 63.4728 126.37 62.8215V62.8095ZM124.25 60.4574C123.611 59.8544 132.056 50.784 132.525 50.3377C132.995 49.8793 133.899 50 134.537 50.603C135.175 51.2061 135.308 52.0625 134.826 52.5088C134.356 52.9672 124.888 61.0605 124.25 60.4574ZM121.985 58.2502C121.298 57.7195 128.839 47.8892 129.261 47.3947C129.695 46.9002 130.598 46.9243 131.285 47.467C131.971 48.0098 132.188 48.8421 131.754 49.3366C131.321 49.8311 122.672 58.7929 121.973 58.2502H121.985ZM119.287 56.0188C118.576 55.5122 125.647 45.3442 126.045 44.8255C126.454 44.3069 127.358 44.2948 128.068 44.8014C128.779 45.308 129.032 46.1282 128.622 46.6468C128.213 47.1655 119.985 56.5133 119.275 56.0188H119.287ZM116.709 54.1974C117.468 54.6317 124.768 44.536 125.117 43.9812C125.466 43.4264 125.141 42.6303 124.382 42.1961C123.623 41.7619 122.72 41.8584 122.37 42.4132C122.021 42.968 115.95 53.7632 116.697 54.1974H116.709ZM113.709 52.3882C114.492 52.7862 121.298 42.3529 121.624 41.786C121.949 41.2191 121.588 40.4351 120.805 40.0371C120.022 39.639 119.13 39.7837 118.805 40.3506C118.48 40.9175 112.926 52.0022 113.709 52.4003V52.3882ZM110.879 51.0011C110.071 50.6754 114.529 39.1204 114.794 38.5173C115.071 37.9142 115.938 37.6971 116.757 38.0107C117.564 38.3363 118.01 39.0721 117.733 39.6752C117.456 40.2783 111.686 51.3147 110.879 51.0011ZM107.65 49.6743C106.819 49.3969 110.722 37.6368 110.963 37.0216C111.204 36.4065 112.071 36.1411 112.902 36.4186C113.733 36.696 114.203 37.4197 113.962 38.0348C113.721 38.65 108.481 49.9517 107.662 49.6743H107.65ZM104.651 48.7576C105.506 48.9506 109.602 37.1905 109.782 36.5512C109.963 35.924 109.421 35.2486 108.566 35.0435C107.71 34.8505 106.879 35.2003 106.699 35.8275C106.518 36.4547 103.795 48.5526 104.651 48.7456V48.7576ZM101.603 48.0339C100.736 47.9254 102.241 35.6225 102.362 34.9711C102.482 34.3198 103.277 33.8856 104.145 34.0062C105.012 34.1148 105.614 34.7299 105.506 35.3812C105.385 36.0326 102.47 48.1425 101.603 48.0339ZM98.1579 47.5032C99.0252 47.5756 101.338 35.3209 101.422 34.6696C101.507 34.0183 100.868 33.4273 100.001 33.367C99.1336 33.2946 98.3506 33.765 98.2663 34.4284C98.182 35.0797 97.2785 47.4429 98.1579 47.5032ZM95.05 47.262C94.1826 47.2861 93.8333 34.8988 93.8574 34.2354C93.8815 33.572 94.6043 33.0292 95.4716 33.0051C96.3389 32.981 97.0376 33.4996 97.0135 34.163C96.9894 34.8264 95.9173 47.2379 95.05 47.262ZM91.5686 47.262C90.7013 47.3223 89.7376 34.9712 89.7256 34.3078C89.7136 33.6444 90.4122 33.0654 91.2795 33.0051C92.1468 32.9448 92.8696 33.4273 92.8817 34.0786C92.8937 34.742 92.448 47.1896 91.5686 47.2499V47.262ZM88.4607 47.4912C87.6055 47.6359 85.401 35.4416 85.3287 34.7902C85.2444 34.1389 85.8829 33.4876 86.7382 33.3308C87.5934 33.186 88.3644 33.584 88.4367 34.2474C88.521 34.8988 89.316 47.3344 88.4487 47.4912H88.4607ZM85.0156 48.0219C85.8708 47.8289 84.4494 35.4416 84.341 34.8023C84.2326 34.151 83.4496 33.7891 82.5943 33.97C81.739 34.163 81.1367 34.8385 81.2572 35.4898C81.3656 36.1411 84.1603 48.2149 85.0156 48.0219ZM81.9679 48.7335C81.1367 49.0109 77.1615 37.2749 76.9808 36.6357C76.8001 35.9964 77.3302 35.2606 78.1613 34.9832C78.9925 34.7058 79.7996 34.9953 79.9803 35.6346C80.161 36.2738 82.787 48.4561 81.9559 48.7214L81.9679 48.7335ZM78.6432 49.7829C79.4623 49.4693 76.2339 37.4317 76.0292 36.8045C75.8244 36.1773 74.9932 35.924 74.1861 36.2497C73.367 36.5633 72.8731 37.3232 73.0899 37.9504C73.2947 38.5776 77.8481 50.0965 78.6552 49.7829H78.6432ZM75.728 50.9649C74.945 51.363 69.2954 40.3265 69.0304 39.7355C68.7654 39.1324 69.175 38.3243 69.9579 37.9383C70.7409 37.5403 71.5841 37.7091 71.8492 38.3122C72.1142 38.9153 76.499 50.5789 75.716 50.977L75.728 50.9649ZM72.584 52.5088C71.8251 52.943 65.6575 42.1961 65.3563 41.6051C65.0672 41.014 65.4407 40.1938 66.1996 39.7596C66.9585 39.3254 67.8137 39.4581 68.1149 40.0491C68.404 40.6401 73.3549 52.0746 72.584 52.5088ZM69.8857 54.1492C70.5964 53.6426 64.5854 42.7389 64.2361 42.172C63.8867 41.6171 63.0194 41.5689 62.3087 42.0755C61.598 42.5821 61.2968 43.4384 61.6461 43.9933C61.9955 44.5481 69.175 54.6437 69.8857 54.1492ZM67.2957 55.9584C67.9583 55.3915 60.9354 45.1029 60.5379 44.5843C60.1404 44.0656 59.273 44.1018 58.6105 44.6687C57.948 45.2356 57.7312 46.1161 58.1287 46.6468C58.5262 47.1655 66.6332 56.5374 67.2957 55.9705V55.9584ZM64.5974 58.1898C65.2359 57.5868 57.7312 47.6479 57.3095 47.1414C56.8879 46.6348 56.0206 46.7192 55.3822 47.3223C54.7437 47.9254 54.5751 48.818 54.9967 49.3125C55.4183 49.8191 63.959 58.7929 64.5854 58.1898H64.5974ZM62.3207 60.3851C61.7425 61.0364 52.4068 52.9189 51.937 52.4485C51.4672 51.9901 51.5515 51.0855 52.1297 50.4221C52.7079 49.7708 53.5512 49.602 54.0209 50.0603C54.4907 50.5186 62.8989 59.7096 62.3207 60.373V60.3851ZM59.9838 62.9904C59.4417 63.6779 49.7205 55.9946 49.2266 55.5604C48.7327 55.1262 48.7809 54.2216 49.323 53.5341C49.8651 52.8465 50.7083 52.6535 51.2022 53.0877C51.6961 53.522 60.5259 62.3029 59.9838 62.9904ZM58.0805 65.5234C57.5986 66.2591 47.2029 59.5408 46.6728 59.1427C46.1428 58.7568 46.0946 57.8521 46.5765 57.1164C47.0583 56.3806 47.8774 56.1032 48.4075 56.4891C48.9375 56.8751 58.5623 64.7876 58.0805 65.5113V65.5234ZM56.3579 68.1648C56.7675 67.3929 46.4319 60.4454 45.8658 60.1076C45.2996 59.7699 44.5166 60.1318 44.107 60.9037C43.6974 61.6757 43.83 62.5803 44.3961 62.918C44.9623 63.2558 55.9604 68.9488 56.3579 68.1769V68.1648ZM54.6835 71.2406C55.0569 70.4445 44.3961 64.0036 43.8179 63.69C43.2397 63.3764 42.4688 63.7744 42.0953 64.5705C41.7219 65.3665 41.9026 66.2591 42.4808 66.5606C43.059 66.8742 54.31 72.0246 54.6835 71.2406ZM53.3946 74.1113C53.1055 74.9314 41.4087 70.8908 40.7943 70.6375C40.192 70.3842 39.927 69.5157 40.2161 68.6955C40.5052 67.8753 41.2401 67.405 41.8424 67.6583C42.4447 67.9115 53.6837 73.2911 53.3825 74.1113H53.3946ZM52.202 77.4041C51.949 78.2363 40.0716 74.7746 39.4452 74.5575C38.8308 74.3404 38.5297 73.484 38.7706 72.6397C39.0115 71.7954 39.7222 71.3009 40.3486 71.518C40.963 71.7351 52.4429 76.5718 52.19 77.4041H52.202ZM51.3829 80.4316C51.5515 79.5752 39.65 75.9084 39.0115 75.7396C38.3731 75.5828 37.7226 76.1497 37.554 77.006C37.3853 77.8624 37.7708 78.6826 38.4092 78.8515C39.0477 79.0083 51.2142 81.2879 51.3829 80.4316ZM50.7083 83.8571C50.5878 84.7255 38.3249 83.0489 37.6744 82.9283C37.0239 82.8077 36.6023 81.9996 36.7348 81.1311C36.8553 80.2627 37.4817 79.6596 38.1321 79.7923C38.7826 79.9129 50.8408 82.9886 50.7203 83.8571H50.7083ZM50.371 86.969C50.4071 86.1005 38.096 84.2431 37.4455 84.1827C36.795 84.1224 36.2289 84.7858 36.1927 85.6542C36.1566 86.5227 36.6625 87.2826 37.313 87.3429C37.9635 87.4032 50.3348 87.8374 50.371 86.969ZM50.2264 90.4548C50.2264 91.3353 37.8551 91.5162 37.2046 91.48C36.5421 91.4559 36.012 90.7201 36 89.8517C36 88.9833 36.518 88.2958 37.1805 88.3199C37.843 88.344 50.2264 89.5863 50.2264 90.4548ZM50.371 93.5788C50.4674 94.4472 38.1683 95.8705 37.5178 95.9187C36.8673 95.9549 36.253 95.2795 36.1566 94.411C36.0602 93.5426 36.518 92.8068 37.1685 92.7706C37.831 92.7345 50.2746 92.7103 50.371 93.5788ZM50.7565 97.0525C50.889 97.921 38.6863 99.9594 38.0358 100.032C37.3853 100.104 36.7348 99.4648 36.6023 98.5964C36.4698 97.728 36.8794 96.9802 37.5298 96.9078C38.1803 96.8354 50.6119 96.1962 50.7565 97.0646V97.0525ZM51.3708 100.128C51.1419 99.2839 38.8429 101.153 38.1924 101.298C37.554 101.431 37.2046 102.227 37.4335 103.071C37.6624 103.916 38.361 104.495 38.9995 104.362C39.6379 104.229 51.5876 100.985 51.3708 100.128ZM52.2743 103.506C52.5393 104.338 40.7702 108.173 40.1318 108.342C39.4934 108.511 38.7706 107.968 38.5056 107.136C38.2406 106.304 38.5417 105.496 39.1802 105.327C39.8186 105.158 52.0213 102.673 52.2863 103.518L52.2743 103.506ZM53.3584 106.449C53.0091 105.64 41.1196 109.319 40.4932 109.548C39.8788 109.778 39.662 110.61 39.9993 111.418C40.3486 112.226 41.1196 112.684 41.746 112.455C42.3603 112.226 53.6957 107.257 53.3584 106.449ZM54.6353 109.319C55.0569 110.079 44.2516 116.134 43.6613 116.424C43.071 116.713 42.2519 116.327 41.8303 115.555C41.4087 114.783 41.5412 113.939 42.1435 113.649C42.7338 113.36 54.2257 108.559 54.6473 109.319H54.6353ZM56.3097 112.395C56.7675 113.143 46.2633 119.704 45.6851 120.018C45.1069 120.332 44.2757 119.982 43.8179 119.246C43.3602 118.498 43.4565 117.642 44.0347 117.328C44.6129 117.015 55.8519 111.659 56.3097 112.407V112.395ZM58.0323 115.036C57.5023 114.337 46.8174 120.742 46.2753 121.116C45.7332 121.489 45.7212 122.346 46.2392 123.045C46.7692 123.745 47.6365 124.01 48.1786 123.636C48.7207 123.263 58.5503 115.736 58.0203 115.036H58.0323ZM60.1524 117.835C59.5983 117.159 49.2266 124.059 48.6966 124.457C48.1666 124.855 48.2027 125.711 48.7568 126.386C49.3109 127.062 50.1903 127.279 50.7203 126.893C51.2504 126.495 60.7065 118.51 60.1524 117.835ZM62.2725 120.187C61.6461 119.572 51.9852 127.424 51.5033 127.87C51.0215 128.316 51.1299 129.173 51.7443 129.788C52.3586 130.403 53.262 130.548 53.7439 130.101C54.2257 129.655 62.8989 120.802 62.2725 120.187ZM64.5492 122.394C65.2238 122.949 57.442 132.586 56.9963 133.069C56.5506 133.551 55.6472 133.503 54.9726 132.948C54.298 132.393 54.1053 131.549 54.551 131.066C54.9967 130.584 63.8746 121.839 64.5492 122.394ZM67.2476 124.625C67.9463 125.144 60.6222 135.143 60.2006 135.65C59.779 136.156 58.8755 136.144 58.1769 135.626C57.4782 135.107 57.2493 134.275 57.6709 133.756C58.0925 133.25 66.5489 124.107 67.2476 124.625ZM69.8375 126.447C70.5843 126.905 64.236 137.543 63.8746 138.086C63.5012 138.629 62.5978 138.701 61.8509 138.255C61.1041 137.797 60.7908 136.989 61.1643 136.446C61.5377 135.903 69.0906 125.988 69.8375 126.447ZM72.8369 128.244C72.066 127.822 64.995 138.086 64.6577 138.653C64.3204 139.22 64.6577 140.004 65.4286 140.426C66.1996 140.848 67.091 140.728 67.4403 140.161C67.7776 139.594 73.6079 128.666 72.849 128.244H72.8369ZM75.6678 129.631C74.8607 129.293 68.8136 140.185 68.5245 140.776C68.2354 141.367 68.657 142.127 69.4641 142.465C70.2711 142.802 71.1505 142.597 71.4396 142.006C71.7287 141.415 76.4749 129.969 75.6678 129.631ZM78.9082 130.958C79.7273 131.259 75.5353 142.923 75.2823 143.526C75.0293 144.129 74.15 144.382 73.3308 144.081C72.5117 143.779 72.0539 143.044 72.3069 142.441C72.5599 141.837 78.0891 130.656 78.9082 130.958ZM81.9077 131.875C82.7509 132.092 79.7273 144.117 79.5226 144.744C79.3298 145.372 78.4745 145.709 77.6313 145.48C76.7881 145.263 76.258 144.575 76.4628 143.948C76.6556 143.321 81.0644 131.657 81.9077 131.875ZM84.9553 132.586C84.088 132.453 80.8717 144.491 80.7392 145.142C80.6067 145.782 81.1969 146.421 82.0643 146.554C82.9316 146.686 83.7387 146.276 83.8712 145.625C84.0037 144.986 85.8226 132.719 84.9674 132.586H84.9553Z" fill="url(#paint1_radial_17_74)"/>
</g>
<defs>
<filter id="filter0_d_17_74" x="0" y="0.6" width="186.511" height="186.601" filterUnits="userSpaceOnUse" color-interpolation-filters="sRGB">
<feFlood flood-opacity="0" result="BackgroundImageFix"/>
<feColorMatrix in="SourceAlpha" type="matrix" values="0 0 0 0 0 0 0 0 0 0 0 0 0 0 0 0 0 0 127 0" result="hardAlpha"/>
<feOffset dy="3.6"/>
<feGaussianBlur stdDeviation="18"/>
<feComposite in2="hardAlpha" operator="out"/>
<feColorMatrix type="matrix" values="0 0 0 0 0 0 0 0 0 0 0 0 0 0 0 0 0 0 0.6 0"/>
<feBlend mode="normal" in2="BackgroundImageFix" result="effect1_dropShadow_17_74"/>
<feBlend mode="normal" in="SourceGraphic" in2="effect1_dropShadow_17_74" result="shape"/>
</filter>
<radialGradient id="paint0_radial_17_74" cx="0" cy="0" r="1" gradientUnits="userSpaceOnUse" gradientTransform="translate(93.5861 23.0349) rotate(90) scale(92.7699 92.6502)">
<stop stop-color="#C5C5C5"/>
<stop offset="1" stop-color="#F0F0F0"/>
</radialGradient>
<radialGradient id="paint1_radial_17_74" cx="0" cy="0" r="1" gradientUnits="userSpaceOnUse" gradientTransform="translate(93.2555 90.3003) rotate(90) scale(57.3003 57.2555)">
<stop stop-color="#F0F0F0"/>
<stop offset="0.879808" stop-color="#CDCDCD"/>
<stop offset="1" stop-color="#9C9C9C"/>
</radialGradient>
</defs>
</svg>
