<svg width="900" height="775" viewBox="0 0 900 775" fill="none" xmlns="http://www.w3.org/2000/svg">
<g clip-path="url(#clip0_17_2)">
<rect width="900" height="775" fill="white"/>
<path d="M219.317 1.34961C235.898 1.34965 251.427 12.5317 264.018 31.9072C276.392 50.9506 285.763 77.6896 290.332 108.666L290.547 110.144V110.145C291.301 115.43 287.953 120.374 282.847 121.688L282.348 121.803L158.044 147.374H158.042C154.779 148.049 151.724 147.256 149.198 145.08C146.747 142.969 145.491 140.178 145.57 136.979L145.582 136.668V136.664C147.454 98.4728 156.404 64.5324 169.693 40.1875C183.017 15.7807 200.493 1.34961 219.317 1.34961Z" fill="url(#paint0_linear_17_2)" stroke="#0268D3" stroke-width="2.7" stroke-miterlimit="22.93"/>
<path d="M208.001 80.2V65.08H210.496V77.7916H217.85V80.2H208.001ZM221.747 80.2V67.4668H217.481V65.08H228.507V67.4668H224.241V80.2H221.747Z" fill="#8EC6FF"/>
<path d="M680.185 1.34961C663.605 1.34965 648.075 12.5317 635.485 31.9072C623.111 50.9506 613.739 77.6896 609.171 108.666L608.956 110.144V110.145C608.202 115.43 611.549 120.374 616.656 121.688L617.155 121.803L741.459 147.374H741.461C744.723 148.049 747.779 147.256 750.304 145.08C752.756 142.969 754.012 140.178 753.932 136.979L753.921 136.668V136.664C752.049 98.4728 743.099 64.5324 729.809 40.1875C716.486 15.7807 699.009 1.34961 680.185 1.34961Z" fill="url(#paint1_linear_17_2)" stroke="#0268D3" stroke-width="2.7" stroke-miterlimit="22.93"/>
<path d="M671.501 80.2V65.08H678.078C679.316 65.08 680.296 65.296 681.016 65.728C681.736 66.16 682.247 66.7252 682.549 67.4236C682.859 68.1148 683.014 68.8492 683.014 69.6268C683.014 70.21 682.902 70.7932 682.679 71.3764C682.456 71.9596 682.106 72.4816 681.631 72.9424C681.163 73.396 680.562 73.7236 679.828 73.9252L682.895 80.2H680.098L677.149 74.2168H673.996V80.2H671.501ZM673.996 71.884H678.121C678.704 71.884 679.165 71.776 679.504 71.56C679.849 71.344 680.094 71.0668 680.238 70.7284C680.382 70.39 680.454 70.0336 680.454 69.6592C680.454 69.3136 680.386 68.9716 680.249 68.6332C680.119 68.2876 679.882 67.9996 679.536 67.7692C679.198 67.5316 678.726 67.4128 678.121 67.4128H673.996V71.884ZM689.233 80.2V67.4668H684.967V65.08H695.994V67.4668H691.728V80.2H689.233Z" fill="#8EC6FF"/>
<path fill-rule="evenodd" clip-rule="evenodd" d="M447.835 599.532H297.801C253.797 599.532 242.57 601.377 187.832 675.592C166.969 703.889 145.141 733.838 121.157 763.052C118.17 766.694 114.64 766.513 110.737 768.636C106.473 770.952 102.594 775.427 98.7274 775.379C87.2716 775.439 27.2218 746.696 18.0788 733.368C7.7553 718.315 2.31046 703.033 0.624011 664.098C-0.411953 640.167 1.05767 616.213 1.82862 592.295C3.68372 535.159 38.6054 415.676 104.016 253.41C113.002 234.461 133.649 218.166 146.129 210.133L146.093 199.06C146.093 188.012 181.966 168.05 225.416 155.759C244.883 150.259 270.071 145.012 289.658 145.012C305.041 145.012 322.002 149.234 325.314 153.962H341.264L343.07 149.716H557.142L558.948 153.962H574.898C578.21 149.234 595.171 145.012 610.554 145.012C630.141 145.012 655.329 150.259 674.796 155.759C718.246 168.038 754.119 188 754.119 199.06L754.083 210.133C766.563 218.166 787.21 234.461 796.196 253.41C861.607 415.676 896.528 535.159 898.383 592.295C899.154 616.225 900.624 640.167 899.588 664.098C897.901 703.033 892.457 718.327 882.145 733.368C873.002 746.696 812.94 775.427 801.497 775.379C797.63 775.427 793.751 770.964 789.487 768.636C785.584 766.513 782.054 766.694 779.067 763.052C755.083 733.838 733.256 703.889 712.392 675.592C657.654 601.377 646.427 599.532 602.423 599.532H447.823H447.835Z" fill="url(#paint2_linear_17_2)"/>
<path d="M621.267 339.283C639.658 339.283 654.567 324.355 654.567 305.94C654.567 287.525 639.658 272.597 621.267 272.597C602.876 272.597 587.967 287.525 587.967 305.94C587.967 324.355 602.876 339.283 621.267 339.283Z" fill="#9E9E9E"/>
<path d="M621.915 273.837C638.425 273.837 651.812 287.24 651.812 303.775C651.812 320.311 638.425 333.713 621.915 333.713C605.404 333.713 592.016 320.311 592.016 303.775C592.016 287.239 605.404 273.837 621.915 273.837Z" fill="url(#paint3_radial_17_2)" stroke="url(#paint4_linear_17_2)" stroke-width="2.7" stroke-miterlimit="22.93"/>
<path d="M620.42 277.508C607.306 278.931 601.919 286.385 601.919 286.385C619.028 282.786 627.982 282.83 642.829 286.747C642.829 286.747 633.535 276.085 620.42 277.508Z" fill="#F3F3F3"/>
<g filter="url(#filter0_d_17_2)">
<path fill-rule="evenodd" clip-rule="evenodd" d="M621.902 309.605L626.612 316.203C626.985 316.77 627.708 317.518 628.865 317.518H635.454C636.393 317.518 636.815 316.77 636.393 316.203L627.359 303.949L635.635 292.454C636.044 291.887 635.635 291.139 634.695 291.139H628.298C627.166 291.139 626.419 291.899 626.034 292.454L621.89 298.678H621.517L617.373 292.454C616.999 291.887 616.24 291.139 615.108 291.139H608.712C607.772 291.139 607.362 291.899 607.772 292.454L616.06 303.949L607.025 316.203C606.616 316.77 607.025 317.518 607.965 317.518H614.554C615.722 317.518 616.433 316.77 616.807 316.203L621.517 309.605H621.89H621.902Z" fill="white"/>
</g>
<path fill-rule="evenodd" clip-rule="evenodd" d="M345.599 310.059V307.562H343.081V305.849H345.599V303.353H347.274V305.849H349.791V307.562H347.274V310.059H345.599Z" fill="#0268D3"/>
<path fill-rule="evenodd" clip-rule="evenodd" d="M296.487 307.562V305.849H303.209V307.562H296.487Z" fill="#0268D3"/>
<path fill-rule="evenodd" clip-rule="evenodd" d="M324.615 281.473C334.77 282.944 342.672 291.412 343.298 301.833H350.201C349.526 287.998 338.444 276.889 324.615 276.214V281.473ZM299.595 301.833C299.848 297.672 301.257 293.824 303.51 290.604L300.631 288.541C298.137 292.401 296.596 296.948 296.367 301.833H299.595ZM305.172 288.505C309.184 284.054 314.99 281.244 321.447 281.244C321.615 281.244 321.772 281.244 321.941 281.244V276.202C313.954 276.588 306.871 280.472 302.197 286.346L305.184 288.493L305.172 288.505Z" fill="#0268D3"/>
<path fill-rule="evenodd" clip-rule="evenodd" d="M322.543 290.471C329.144 290.471 334.493 295.826 334.493 302.436C334.493 309.046 329.144 314.401 322.543 314.401C315.942 314.401 310.593 309.046 310.593 302.436C310.593 295.826 315.942 290.471 322.543 290.471Z" fill="#B2B2B2"/>
<path fill-rule="evenodd" clip-rule="evenodd" d="M331.903 309.878C329.71 312.628 326.337 314.401 322.543 314.401C318.748 314.401 315.375 312.64 313.183 309.878L303.45 323.869L302.245 325.594C307.666 330.359 314.761 333.241 322.543 333.241C330.325 333.241 337.42 330.359 342.84 325.594L341.636 323.869L331.903 309.878Z" fill="url(#paint5_linear_17_2)"/>
<path d="M322.122 290.718C328.723 290.718 334.071 296.074 334.071 302.683C334.071 305.464 333.123 308.022 331.535 310.054L341.214 323.967L342.419 325.692C336.999 330.456 329.903 333.339 322.122 333.339C314.34 333.339 307.244 330.456 301.823 325.692L303.028 323.967L312.707 310.054C311.119 308.022 310.172 305.464 310.172 302.683C310.172 296.073 315.521 290.718 322.122 290.718Z" stroke="#E9E9E9" stroke-width="1.8" stroke-miterlimit="22.93" stroke-linejoin="round"/>
<path d="M666.739 522.896L666.758 522.917L666.78 522.939L729.901 586.818C739.628 596.658 742.066 610.831 736.212 623.317L735.927 623.909H735.926L712.053 672.437C685.629 636.734 669.293 617.975 654.113 608.217C638.47 598.161 624.158 597.732 602.18 597.732H297.547C275.569 597.732 261.256 598.161 245.613 608.217C230.433 617.975 214.096 636.734 187.672 672.437L163.799 623.909H163.798C157.682 611.491 159.872 597.266 169.367 587.289L169.825 586.818L232.947 522.939L232.967 522.917L232.987 522.896L393.887 348.976L399.489 355.746V355.747C402.505 359.406 406.641 361.359 411.394 361.359H488.333C492.927 361.359 496.95 359.526 499.948 356.088L500.235 355.75L500.236 355.749L505.839 348.976L666.739 522.896Z" fill="url(#paint6_linear_17_2)" stroke="#BDBDBD" stroke-width="3.6" stroke-miterlimit="22.93"/>
<path fill-rule="evenodd" clip-rule="evenodd" d="M86.2938 297.544C77.9218 319.146 70.1521 339.88 62.9967 359.673H85.8963C95.7861 359.673 104.098 352.834 106.001 343.113L112.542 309.774C113.157 306.662 112.41 303.731 110.398 301.283C108.386 298.834 105.652 297.544 102.484 297.544H86.2818H86.2938Z" fill="#B2B2B2"/>
<path fill-rule="evenodd" clip-rule="evenodd" d="M174.158 599.773L196.395 573.237C202.153 566.362 212.489 565.457 219.355 571.223C226.221 576.988 227.125 587.337 221.367 594.212L199.129 620.748C193.371 627.623 183.036 628.528 176.17 622.762C169.303 616.997 168.4 606.648 174.158 599.773Z" fill="#B2B2B2"/>
<path fill-rule="evenodd" clip-rule="evenodd" d="M181.614 606.033C179.314 608.783 179.687 612.992 182.422 615.296C185.168 617.6 189.372 617.226 191.673 614.488L213.91 587.952C216.211 585.202 215.837 580.993 213.103 578.689C210.356 576.385 206.152 576.759 203.852 579.497L181.614 606.033Z" fill="#8E8E8E"/>
<path fill-rule="evenodd" clip-rule="evenodd" d="M726.267 599.773L704.029 573.237C698.271 566.362 687.936 565.457 681.07 571.223C674.203 576.988 673.3 587.337 679.058 594.212L701.295 620.748C707.053 627.623 717.389 628.528 724.255 622.762C731.121 616.997 732.025 606.648 726.267 599.773Z" fill="#B2B2B2"/>
<path fill-rule="evenodd" clip-rule="evenodd" d="M718.81 606.033C721.111 608.783 720.737 612.992 718.003 615.296C715.256 617.6 711.052 617.226 708.751 614.488L686.514 587.952C684.214 585.202 684.587 580.993 687.321 578.689C690.068 576.385 694.272 576.759 696.573 579.497L718.81 606.033Z" fill="#8E8E8E"/>
<g filter="url(#filter1_i_17_2)">
<path fill-rule="evenodd" clip-rule="evenodd" d="M70.7544 437.182L194.167 472.619C195.974 473.137 197.022 475.043 196.504 476.852L192.805 489.77C192.697 490.132 192.324 490.337 191.962 490.241L189.324 489.481C188.963 489.372 188.577 489.589 188.481 489.951L179.82 520.178C179.711 520.54 179.928 520.926 180.29 521.022L182.928 521.782C183.289 521.891 183.494 522.264 183.397 522.626L179.555 536.063C179.037 537.872 177.145 538.922 175.327 538.403L151.295 531.504C150.644 531.311 149.97 531.504 149.524 532.034L146.163 535.942C145.717 536.461 145.055 536.654 144.392 536.473L79.1385 517.741C78.488 517.548 78.0302 517.03 77.9218 516.354L77.1509 511.264C77.0424 510.589 76.5847 510.07 75.9342 509.877L51.9022 502.978C50.0953 502.459 49.0473 500.554 49.5653 498.744L53.408 485.308C53.5164 484.946 53.8898 484.729 54.2512 484.837L56.8893 485.597C57.2507 485.706 57.6362 485.488 57.7325 485.127L66.3937 454.9C66.5021 454.538 66.2853 454.152 65.9239 454.056L63.2858 453.296C62.9244 453.187 62.7196 452.813 62.816 452.452L66.5141 439.534C67.0321 437.724 68.9354 436.675 70.7423 437.194L70.7544 437.182Z" fill="url(#paint7_linear_17_2)"/>
</g>
<path fill-rule="evenodd" clip-rule="evenodd" d="M496.836 365.801L555.862 294.396L624.549 211.303C631.451 202.944 632.836 192.04 628.223 182.222C623.609 172.404 614.334 166.518 603.504 166.518H296.775C285.945 166.518 276.67 172.416 272.056 182.222C267.442 192.04 268.828 202.944 275.73 211.303L344.417 294.396L403.443 365.801C406.129 369.045 409.755 370.758 413.959 370.758H486.296C490.512 370.758 494.138 369.045 496.812 365.801H496.836Z" fill="url(#paint8_linear_17_2)" stroke="url(#paint9_linear_17_2)" stroke-width="2.7" stroke-miterlimit="22.93"/>
<path fill-rule="evenodd" clip-rule="evenodd" d="M411.298 179.243L442.461 192.33L447.279 201.135L443.979 207.262L438.522 198.204C438.196 197.661 437.739 197.287 437.136 197.082L426.837 193.608L440.003 214.403L437.654 218.685L411.285 179.243H411.298ZM459.663 218.661L485.875 179.267L454.748 192.414L439.016 221.302L448.677 246.535L458.338 221.302L453.314 212.171L450.086 217.406L452.351 221.013C452.7 221.579 452.82 222.183 452.712 222.834L448.689 246.101L444.641 222.81C444.533 222.171 444.641 221.579 444.978 221.025L458.892 198.047C459.229 197.492 459.699 197.118 460.325 196.913L470.516 193.681L457.338 214.379L459.687 218.648L459.663 218.661Z" fill="#F8F8F8"/>
<path d="M635.429 489.194C655.32 449.886 639.62 401.875 600.363 381.959C561.105 362.043 513.156 377.763 493.266 417.071C473.375 456.379 489.075 504.39 528.333 524.306C567.59 544.223 615.539 528.502 635.429 489.194Z" fill="#AEAEAE"/>
<path d="M607.165 508.812C637.872 485.142 643.602 441.028 619.963 410.28C596.323 379.533 552.266 373.796 521.558 397.466C490.85 421.136 485.121 465.25 508.76 495.998C532.4 526.745 576.457 532.482 607.165 508.812Z" fill="#F0F0F0"/>
<path d="M617.928 465.71C624.866 436.07 606.493 406.411 576.891 399.464C547.29 392.518 517.669 410.915 510.732 440.554C503.794 470.194 522.167 499.853 551.768 506.8C581.37 513.746 610.991 495.35 617.928 465.71Z" fill="#646464"/>
<path fill-rule="evenodd" clip-rule="evenodd" d="M572.908 532.517V522.928C570.113 523.266 567.258 523.447 564.367 523.447C561.476 523.447 558.633 523.266 555.827 522.928V532.517C558.633 532.819 561.476 532.975 564.367 532.975C567.258 532.975 570.101 532.819 572.908 532.517ZM494.717 444.636H485.14C484.839 447.446 484.682 450.293 484.682 453.188C484.682 456.082 484.839 458.929 485.14 461.739H494.717C494.379 458.941 494.199 456.082 494.199 453.188C494.199 450.293 494.379 447.434 494.717 444.636ZM521.158 397.825L514.388 391.046C509.943 394.628 505.896 398.693 502.318 403.132L509.088 409.91C512.605 405.411 516.665 401.347 521.158 397.825ZM572.908 383.435V373.846C570.101 373.544 567.258 373.388 564.367 373.388C561.476 373.388 558.633 373.544 555.827 373.846V383.435C558.621 383.097 561.476 382.916 564.367 382.916C567.258 382.916 570.113 383.097 572.908 383.435ZM619.659 409.91L626.429 403.132C622.851 398.681 618.791 394.628 614.359 391.046L607.589 397.825C612.082 401.347 616.141 405.411 619.659 409.91ZM634.03 461.727H643.606C643.908 458.917 644.064 456.07 644.064 453.175C644.064 450.281 643.908 447.434 643.606 444.624H634.03C634.367 447.422 634.548 450.281 634.548 453.175C634.548 456.07 634.367 458.929 634.03 461.727ZM509.088 496.453L502.318 503.231C505.896 507.682 509.955 511.735 514.388 515.317L521.158 508.538C516.665 505.016 512.605 500.952 509.088 496.453ZM607.589 508.538L614.359 515.317C618.804 511.735 622.851 507.67 626.429 503.231L619.659 496.453C616.141 500.952 612.082 505.016 607.589 508.538Z" fill="#F0F0F0"/>
<path d="M282.845 346.504C302.736 307.196 287.036 259.186 247.778 239.269C208.521 219.353 160.572 235.073 140.682 274.381C120.791 313.689 136.491 361.7 175.748 381.616C215.006 401.533 262.955 385.812 282.845 346.504Z" fill="#AEAEAE"/>
<path d="M254.581 366.122C285.288 342.452 291.018 298.338 267.378 267.59C243.739 236.843 199.682 231.106 168.974 254.776C138.266 278.446 132.536 322.56 156.176 353.308C179.816 384.055 223.873 389.792 254.581 366.122Z" fill="#F0F0F0"/>
<path d="M265.344 323.02C272.282 293.38 253.909 263.721 224.307 256.775C194.706 249.828 165.085 268.225 158.147 297.864C151.21 327.504 169.583 357.163 199.184 364.11C228.786 371.056 258.407 352.66 265.344 323.02Z" fill="#646464"/>
<path fill-rule="evenodd" clip-rule="evenodd" d="M220.324 389.827V380.238C217.529 380.576 214.674 380.757 211.783 380.757C208.892 380.757 206.049 380.576 203.242 380.238V389.827C206.049 390.129 208.892 390.285 211.783 390.285C214.674 390.285 217.517 390.129 220.324 389.827ZM142.133 301.946H132.556C132.255 304.756 132.098 307.603 132.098 310.498C132.098 313.392 132.255 316.239 132.556 319.049H142.133C141.795 316.251 141.615 313.392 141.615 310.498C141.615 307.603 141.795 304.744 142.133 301.946ZM168.574 255.135L161.804 248.356C157.359 251.938 153.311 256.003 149.734 260.442L156.504 267.22C160.021 262.721 164.081 258.657 168.574 255.135ZM220.324 240.745V231.156C217.517 230.854 214.674 230.698 211.783 230.698C208.892 230.698 206.049 230.854 203.242 231.156V240.745C206.037 240.407 208.892 240.226 211.783 240.226C214.674 240.226 217.529 240.407 220.324 240.745ZM267.075 267.22L273.845 260.442C270.267 255.991 266.207 251.938 261.774 248.356L255.004 255.135C259.498 258.657 263.557 262.721 267.075 267.22ZM281.446 319.037H291.022C291.323 316.227 291.48 313.38 291.48 310.486C291.48 307.591 291.323 304.744 291.022 301.934H281.446C281.783 304.732 281.964 307.591 281.964 310.486C281.964 313.38 281.783 316.239 281.446 319.037ZM156.504 353.763L149.734 360.541C153.311 364.992 157.371 369.045 161.804 372.627L168.574 365.849C164.081 362.327 160.021 358.262 156.504 353.763ZM255.004 365.849L261.774 372.627C266.219 369.045 270.267 364.98 273.845 360.541L267.075 353.763C263.557 358.262 259.498 362.327 255.004 365.849Z" fill="#F0F0F0"/>
<path fill-rule="evenodd" clip-rule="evenodd" d="M145.862 210.121C181.374 183.151 274.43 152.9 325.047 153.95C321.735 149.222 304.774 145 289.391 145C269.804 145 244.616 150.247 225.149 155.747C181.699 168.026 145.826 187.988 145.826 199.048L145.862 210.121Z" fill="#B2B2B2"/>
<path fill-rule="evenodd" clip-rule="evenodd" d="M836.693 359.673C829.538 339.868 821.768 319.146 813.396 297.544H797.363C794.195 297.544 791.46 298.834 789.449 301.283C787.437 303.731 786.702 306.662 787.304 309.774L793.845 343.113C795.749 352.834 804.061 359.673 813.95 359.673H836.681H836.693Z" fill="#B2B2B2"/>
<path fill-rule="evenodd" clip-rule="evenodd" d="M574.643 153.962C625.26 152.912 718.316 183.163 753.828 210.133L753.864 199.06C753.864 188.012 717.991 168.05 674.541 155.759C655.074 150.259 629.886 145.012 610.299 145.012C594.916 145.012 577.955 149.234 574.643 153.962Z" fill="#B2B2B2"/>
<path fill-rule="evenodd" clip-rule="evenodd" d="M25.6658 601.884L116.192 639.588C119.457 640.951 121.011 644.727 119.649 647.995C118.288 651.264 114.518 652.82 111.253 651.469L20.7269 613.764C17.4624 612.401 15.9085 608.626 17.2576 605.357C18.6188 602.089 22.3893 600.533 25.6537 601.884H25.6658Z" fill="#02FCFB"/>
<path fill-rule="evenodd" clip-rule="evenodd" d="M874.024 601.884L783.498 639.588C780.233 640.951 778.679 644.727 780.041 647.995C781.402 651.264 785.172 652.82 788.437 651.469L878.963 613.764C882.228 612.401 883.782 608.626 882.432 605.357C881.071 602.089 877.301 600.533 874.036 601.884H874.024Z" fill="#02FCFB"/>
<path fill-rule="evenodd" clip-rule="evenodd" d="M395.83 539.341H431.378C437.569 539.341 442.641 544.419 442.641 550.619C442.641 556.819 437.569 561.897 431.378 561.897H395.83C389.638 561.897 384.567 556.819 384.567 550.619C384.567 544.419 389.638 539.341 395.83 539.341Z" fill="#8C8C8C"/>
<path fill-rule="evenodd" clip-rule="evenodd" d="M395.975 535.75H431.523C437.715 535.75 442.786 540.827 442.786 547.027C442.786 553.227 437.715 558.305 431.523 558.305H395.975C389.783 558.305 384.712 553.227 384.712 547.027C384.712 540.827 389.783 535.75 395.975 535.75Z" fill="#F0F0F0"/>
<path fill-rule="evenodd" clip-rule="evenodd" d="M413.743 539.428C415.839 539.428 417.73 540.285 419.103 541.648C420.477 543.023 421.32 544.916 421.32 547.015C421.32 549.114 420.465 551.007 419.091 552.382C417.718 553.757 415.827 554.614 413.731 554.614C411.635 554.614 409.744 553.77 408.37 552.395C406.997 551.019 406.154 549.114 406.154 547.027C406.154 544.94 407.009 543.035 408.37 541.66L408.419 541.611C409.792 540.26 411.659 539.428 413.731 539.428H413.743ZM417.899 542.866C416.839 541.804 415.369 541.141 413.743 541.141C412.117 541.141 410.683 541.78 409.623 542.818L409.587 542.866C408.527 543.927 407.864 545.399 407.864 547.027C407.864 548.655 408.527 550.127 409.587 551.188C410.647 552.25 412.117 552.913 413.743 552.913C415.369 552.913 416.839 552.25 417.899 551.188C418.959 550.127 419.621 548.655 419.621 547.027C419.621 545.399 418.959 543.927 417.899 542.866Z" fill="#AAAAAA"/>
<path fill-rule="evenodd" clip-rule="evenodd" d="M463.33 539.341H498.878C505.069 539.341 510.141 544.419 510.141 550.619C510.141 556.819 505.069 561.897 498.878 561.897H463.33C457.138 561.897 452.067 556.819 452.067 550.619C452.067 544.419 457.138 539.341 463.33 539.341Z" fill="#8C8C8C"/>
<path fill-rule="evenodd" clip-rule="evenodd" d="M463.602 535.75H499.15C505.341 535.75 510.413 540.827 510.413 547.027C510.413 553.227 505.341 558.305 499.15 558.305H463.602C457.41 558.305 452.339 553.227 452.339 547.027C452.339 540.827 457.41 535.75 463.602 535.75Z" fill="#F0F0F0"/>
<path fill-rule="evenodd" clip-rule="evenodd" d="M481.37 555.229H475.744C475.274 555.229 474.889 554.843 474.889 554.373V551.357H471.106C470.637 551.357 470.251 550.971 470.251 550.501C470.251 550.248 470.36 550.03 470.528 549.874L480.755 539.066C481.081 538.729 481.623 538.717 481.96 539.042L492.259 549.91C492.585 550.248 492.573 550.79 492.235 551.116C492.067 551.273 491.862 551.345 491.645 551.345H487.863V554.361C487.863 554.831 487.477 555.217 487.007 555.217H481.382L481.37 555.229ZM476.599 553.516H486.14V550.501C486.14 550.03 486.525 549.644 486.995 549.644H489.657L481.37 540.9L473.082 549.644H475.744C476.214 549.644 476.599 550.03 476.599 550.501V553.516Z" fill="#AAAAAA"/>
<path d="M743.667 339.283C762.058 339.283 776.967 324.355 776.967 305.94C776.967 287.525 762.058 272.597 743.667 272.597C725.276 272.597 710.367 287.525 710.367 305.94C710.367 324.355 725.276 339.283 743.667 339.283Z" fill="#9E9E9E"/>
<path d="M744.547 273.837C761.057 273.837 774.444 287.24 774.444 303.775C774.444 320.311 761.057 333.713 744.547 333.713C728.037 333.713 714.649 320.311 714.649 303.775C714.649 287.239 728.037 273.837 744.547 273.837Z" fill="url(#paint10_radial_17_2)" stroke="url(#paint11_linear_17_2)" stroke-width="2.7" stroke-miterlimit="22.93"/>
<path d="M742.82 277.508C729.706 278.931 724.32 286.385 724.32 286.385C741.428 282.786 750.382 282.83 765.229 286.747C765.229 286.747 755.935 276.085 742.82 277.508Z" fill="#F3F3F3"/>
<g filter="url(#filter2_d_17_2)">
<path fill-rule="evenodd" clip-rule="evenodd" d="M757.938 298.485C757.938 294.528 754.553 291.139 746.832 291.139H733.28C732.533 291.139 731.967 291.706 731.967 292.454V316.203C731.967 316.951 732.533 317.518 733.28 317.518H748.337C756.24 317.518 759.817 313.936 759.817 309.786C759.817 304.889 754.168 303.756 754.168 303.756V303.382C754.168 303.382 757.938 302.248 757.938 298.485ZM748.337 306.964C750.216 306.964 751.156 307.905 751.156 309.219C751.156 310.534 750.216 311.487 748.337 311.487H740.242V306.964H748.337ZM746.832 297.158C748.566 297.158 749.277 297.918 749.277 299.039C749.277 300.161 748.53 300.921 746.832 300.921H740.242V297.146H746.832V297.158Z" fill="white"/>
</g>
<path fill-rule="evenodd" clip-rule="evenodd" d="M545.162 243.226C550.956 248.087 559.666 247.327 564.52 241.526L586.769 214.978C591.624 209.176 590.865 200.456 585.071 195.595C579.277 190.734 570.567 191.494 565.713 197.296L543.464 223.843C538.609 229.645 539.368 238.366 545.162 243.226Z" fill="#646464"/>
<path fill-rule="evenodd" clip-rule="evenodd" d="M544.274 239.575C550.069 244.436 558.778 243.676 563.633 237.875L585.882 211.327C590.736 205.525 589.977 196.805 584.183 191.944C578.389 187.083 569.68 187.843 564.825 193.645L542.576 220.192C537.721 225.994 538.48 234.715 544.274 239.575Z" fill="#F0F0F0"/>
<path fill-rule="evenodd" clip-rule="evenodd" d="M552.141 228.02C551.924 227.839 551.888 227.429 552.442 226.766C552.911 226.211 553.321 226.163 553.49 226.199C553.767 226.247 553.972 226.223 554.152 226.006L554.923 225.077C555.08 224.896 555.056 224.691 554.875 224.535C554.14 223.919 552.646 224.04 551.213 225.741C549.695 227.55 549.816 228.973 550.707 229.721C552.779 231.458 555.08 227.285 555.815 227.9C556.031 228.081 556.08 228.563 555.453 229.299C554.839 230.035 554.429 230.071 554.152 230.035C553.887 229.986 553.67 230.011 553.49 230.228L552.719 231.156C552.562 231.337 552.586 231.542 552.767 231.699C553.574 232.387 555.068 232.254 556.682 230.324C558.26 228.443 558.127 226.947 557.248 226.199C555.176 224.462 552.875 228.636 552.141 228.02ZM558.73 217.599L559.465 218.214C559.609 218.335 559.633 218.54 559.501 218.685L558.2 220.241L561.85 223.316C561.994 223.437 562.018 223.642 561.886 223.787L560.958 224.896C560.838 225.041 560.633 225.065 560.489 224.933L556.838 221.857L555.538 223.413C555.417 223.558 555.212 223.582 555.068 223.449L554.333 222.834C554.188 222.713 554.164 222.508 554.297 222.363L558.26 217.635C558.38 217.491 558.585 217.466 558.73 217.599ZM567.222 216.924C567.415 216.984 567.632 216.96 567.764 216.803L568.812 215.549C568.933 215.404 568.909 215.199 568.704 215.151L562.307 213.305C562.103 213.245 561.898 213.281 561.777 213.426L560.513 214.946C560.392 215.09 560.404 215.307 560.489 215.5L563.404 221.483C563.5 221.676 563.693 221.664 563.813 221.519L564.801 220.337C564.921 220.192 564.921 219.975 564.825 219.782L564.379 218.962L566.331 216.634L567.21 216.936L567.222 216.924ZM562.657 215.549L562.717 215.476L564.693 216.128L563.608 217.418L562.657 215.549ZM571.101 208.167L571.173 208.227C571.173 208.227 571.595 208.022 572.571 208.203L574.245 208.541C574.402 208.577 574.498 208.758 574.354 208.939L573.39 210.085C573.137 210.386 572.944 210.386 572.727 210.35L571.053 210.012C570.728 209.94 570.463 209.964 570.125 210.362L569.318 211.327L570.836 212.594C570.981 212.714 571.005 212.919 570.872 213.064L569.945 214.174C569.824 214.318 569.619 214.342 569.475 214.21L564.825 210.302C564.681 210.181 564.656 209.976 564.789 209.831L567.054 207.13C568.415 205.501 569.836 205.381 570.764 206.153C571.728 206.961 571.113 208.143 571.113 208.143L571.101 208.167ZM568.15 210.338L569.27 209.011C569.668 208.529 569.631 208.119 569.342 207.877C569.041 207.624 568.644 207.66 568.234 208.143L567.114 209.47L568.15 210.338ZM574.486 198.795C574.342 198.674 574.137 198.686 574.016 198.831L570.053 203.559C569.933 203.704 569.945 203.909 570.089 204.03L570.824 204.645C570.969 204.766 571.173 204.753 571.294 204.609L572.595 203.053L576.245 206.128C576.389 206.249 576.594 206.237 576.715 206.092L577.642 204.983C577.763 204.838 577.751 204.633 577.606 204.512L573.956 201.437L575.257 199.881C575.377 199.736 575.365 199.531 575.221 199.41L574.486 198.795Z" fill="#AAAAAA"/>
<path fill-rule="evenodd" clip-rule="evenodd" d="M310.262 195.595C316.056 190.734 324.766 191.494 329.62 197.296L351.869 223.843C356.724 229.645 355.965 238.366 350.171 243.226C344.377 248.087 335.667 247.327 330.813 241.526L308.564 214.978C303.709 209.176 304.468 200.456 310.262 195.595Z" fill="#646464"/>
<path fill-rule="evenodd" clip-rule="evenodd" d="M310.929 191.944C316.724 187.083 325.433 187.843 330.288 193.645L352.537 220.192C357.391 225.994 356.632 234.715 350.838 239.576C345.044 244.436 336.335 243.676 331.48 237.875L309.231 211.327C304.376 205.525 305.135 196.805 310.929 191.944Z" fill="#F0F0F0"/>
<path fill-rule="evenodd" clip-rule="evenodd" d="M318.386 198.662C318.603 198.481 319.012 198.518 319.567 199.181C320.036 199.736 320 200.146 319.952 200.315C319.856 200.568 319.844 200.785 320.024 201.002L320.795 201.931C320.952 202.112 321.157 202.136 321.337 201.979C322.072 201.364 322.205 199.868 320.783 198.168C319.265 196.358 317.844 196.226 316.953 196.974C314.881 198.711 318.591 201.702 317.856 202.329C317.639 202.51 317.157 202.474 316.543 201.738C315.929 201.002 315.965 200.592 316.049 200.327C316.145 200.074 316.157 199.856 315.977 199.639L315.206 198.711C315.049 198.53 314.844 198.505 314.664 198.662C313.857 199.35 313.724 200.845 315.326 202.763C316.904 204.645 318.398 204.778 319.289 204.03C321.361 202.293 317.651 199.302 318.386 198.674V198.662ZM327.794 207.335L327.059 207.95C326.915 208.07 326.71 208.058 326.589 207.914L323.951 204.778L323.289 205.332L325.24 207.66C325.361 207.805 325.349 208.01 325.204 208.131L324.469 208.746C324.325 208.866 324.12 208.854 323.999 208.71L322.048 206.382L321.313 206.997L323.951 210.133C324.072 210.278 324.06 210.483 323.915 210.603L323.18 211.218C323.036 211.339 322.831 211.327 322.711 211.182L318.928 206.671C318.808 206.526 318.82 206.321 318.964 206.201L323.614 202.293C323.759 202.172 323.963 202.184 324.084 202.329L327.866 206.84C327.987 206.985 327.975 207.19 327.83 207.31L327.794 207.335ZM328.758 216.441C328.902 216.321 328.926 216.116 328.794 215.971L326.469 213.197L330.119 210.121C330.263 210 330.288 209.795 330.155 209.65L329.227 208.541C329.107 208.396 328.902 208.372 328.758 208.505L324.108 212.413C323.963 212.533 323.939 212.738 324.072 212.883L327.541 217.02C327.661 217.165 327.866 217.189 328.011 217.056L328.746 216.441H328.758ZM337.732 219.191L336.997 219.806C336.853 219.927 336.648 219.915 336.527 219.77L333.889 216.634L333.227 217.189L335.178 219.517C335.299 219.662 335.287 219.867 335.142 219.987L334.407 220.602C334.263 220.723 334.058 220.711 333.938 220.566L331.986 218.238L331.251 218.854L333.889 221.99C334.01 222.134 333.998 222.339 333.853 222.46L333.118 223.075C332.974 223.196 332.769 223.184 332.649 223.039L328.866 218.528C328.746 218.383 328.758 218.178 328.902 218.057L333.552 214.149C333.697 214.029 333.901 214.041 334.022 214.186L337.804 218.697C337.925 218.841 337.913 219.046 337.768 219.167L337.732 219.191ZM341.466 222.822C339.828 220.868 337.852 220.687 336.19 222.086C334.528 223.485 334.359 225.451 335.997 227.417C337.479 229.19 339.25 229.347 340.129 228.599C340.31 228.443 340.334 228.237 340.177 228.057L339.406 227.128C339.226 226.911 339.009 226.887 338.744 226.935C338.262 227.031 337.708 226.983 337.214 226.392C336.527 225.584 336.612 224.631 337.612 223.787C338.611 222.954 339.563 223.027 340.238 223.847C340.707 224.402 340.659 224.872 340.515 225.306C340.418 225.572 340.406 225.777 340.587 225.994L341.358 226.923C341.515 227.104 341.719 227.128 341.9 226.971C342.743 226.259 342.9 224.559 341.442 222.822H341.466ZM348.345 231.856L347.61 232.471C347.465 232.592 347.26 232.58 347.14 232.435L345.839 230.879L342.189 233.955C342.045 234.075 341.84 234.063 341.719 233.919L340.792 232.809C340.671 232.664 340.683 232.459 340.828 232.338L344.478 229.263L343.177 227.707C343.056 227.562 343.068 227.357 343.213 227.236L343.948 226.621C344.092 226.501 344.297 226.513 344.418 226.657L348.381 231.386C348.501 231.53 348.489 231.735 348.345 231.856Z" fill="#AAAAAA"/>
<path fill-rule="evenodd" clip-rule="evenodd" d="M0.308832 662.831C23.4012 683.227 62.033 701.404 102.436 712.139C109.23 701.308 116.59 691.2 124.878 681.153C130.045 674.82 133.105 667.656 120.975 662.144C64.4663 641.94 2.44099 624.885 2.03142 584.02C1.80255 586.903 1.64595 589.665 1.56163 592.295C0.802722 615.803 -0.630764 639.323 0.308832 662.843V662.831Z" fill="#8E8E8E"/>
<path fill-rule="evenodd" clip-rule="evenodd" d="M102.436 712.139C62.033 701.404 23.4012 683.227 0.308796 662.831C0.320842 663.253 0.344934 663.675 0.356981 664.098C2.04343 703.033 7.48827 718.327 17.8118 733.368C24.5215 743.15 58.6239 761.218 80.849 770.132C78.0182 763.872 78.8855 757.262 81.5718 751.364C88.173 736.841 94.967 724.068 102.436 712.151V712.139Z" fill="#B2B2B2"/>
<path fill-rule="evenodd" clip-rule="evenodd" d="M899.574 662.831C876.482 683.227 837.85 701.404 797.447 712.139C790.653 701.308 783.293 691.2 775.005 681.153C769.838 674.82 766.778 667.656 778.908 662.144C835.417 641.94 897.442 624.885 897.851 584.02C898.08 586.903 898.237 589.665 898.321 592.295C899.08 615.803 900.514 639.323 899.574 662.843V662.831Z" fill="#8E8E8E"/>
<path fill-rule="evenodd" clip-rule="evenodd" d="M797.447 712.139C837.85 701.404 876.482 683.227 899.574 662.831C899.562 663.253 899.538 663.675 899.526 664.098C897.839 703.033 892.394 718.327 882.083 733.368C875.373 743.15 841.271 761.218 819.046 770.132C821.877 763.872 821.009 757.262 818.323 751.364C811.722 736.841 804.928 724.068 797.459 712.151L797.447 712.139Z" fill="#B2B2B2"/>
<path fill-rule="evenodd" clip-rule="evenodd" d="M824.092 383.503L860.917 496.472C862.113 500.159 860.085 504.156 856.403 505.366C852.722 506.563 848.73 504.533 847.521 500.846L839.703 476.867C839.326 475.714 838.076 475.068 836.925 475.447L835.545 475.9C834.394 476.278 833.144 475.644 832.767 474.48L814.311 417.863C813.933 416.71 814.566 415.459 815.729 415.081L817.108 414.627C818.259 414.249 818.905 412.997 818.527 411.845L810.709 387.865C809.513 384.179 811.541 380.182 815.222 378.972C818.904 377.774 822.896 379.805 824.104 383.491L824.092 383.503Z" fill="url(#paint12_linear_17_2)" stroke="#E3E3E3" stroke-width="1.8" stroke-miterlimit="22.93"/>
<path d="M682.467 281.609C700.858 281.609 715.767 266.681 715.767 248.266C715.767 229.851 700.858 214.923 682.467 214.923C664.076 214.923 649.167 229.851 649.167 248.266C649.167 266.681 664.076 281.609 682.467 281.609Z" fill="#9E9E9E"/>
<path d="M683.347 216.162C699.857 216.163 713.245 229.565 713.245 246.101C713.244 262.637 699.857 276.038 683.347 276.038C666.837 276.038 653.449 262.637 653.449 246.101C653.449 229.565 666.837 216.162 683.347 216.162Z" fill="url(#paint13_radial_17_2)" stroke="url(#paint14_linear_17_2)" stroke-width="2.7" stroke-miterlimit="22.93"/>
<g filter="url(#filter3_d_17_2)">
<path fill-rule="evenodd" clip-rule="evenodd" d="M698.211 234.232C698.585 233.665 698.211 232.917 697.272 232.917H691.442C690.309 232.917 689.526 233.665 689.189 234.232L683.539 243.471H683.166L677.516 234.232C677.179 233.665 676.384 232.917 675.252 232.917H669.421C668.482 232.917 668.108 233.665 668.482 234.232L679.215 251.01V257.982C679.215 258.741 679.781 259.296 680.528 259.296H686.177C686.924 259.296 687.49 258.729 687.49 257.982V251.01L698.223 234.232H698.211Z" fill="white"/>
</g>
<path d="M681.62 219.908C668.506 221.331 663.119 228.785 663.119 228.785C680.228 225.186 689.182 225.23 704.029 229.147C704.029 229.147 694.735 218.485 681.62 219.908Z" fill="#F3F3F3"/>
<path d="M682.467 402.365C700.858 402.365 715.767 387.436 715.767 369.022C715.767 350.607 700.858 335.679 682.467 335.679C664.076 335.679 649.167 350.607 649.167 369.022C649.167 387.436 664.076 402.365 682.467 402.365Z" fill="#9E9E9E"/>
<path d="M683.347 336.918C699.857 336.918 713.245 350.321 713.245 366.857C713.244 383.392 699.857 396.794 683.347 396.794C666.837 396.794 653.449 383.393 653.449 366.857C653.449 350.321 666.837 336.918 683.347 336.918Z" fill="url(#paint15_radial_17_2)" stroke="url(#paint16_linear_17_2)" stroke-width="2.7" stroke-miterlimit="22.93"/>
<path d="M681.62 340.508C668.506 341.931 663.119 349.385 663.119 349.385C680.228 345.786 689.182 345.83 704.029 349.747C704.029 349.747 694.735 339.085 681.62 340.508Z" fill="#F3F3F3"/>
<g filter="url(#filter4_d_17_2)">
<path fill-rule="evenodd" clip-rule="evenodd" d="M690.435 378.441C690.736 379.201 691.375 379.756 692.134 379.756H698.53C699.277 379.756 699.807 379.189 699.47 378.441L688.929 354.656C688.592 353.908 687.99 353.377 687.231 353.377H679.509C678.762 353.377 678.16 353.944 677.811 354.692L667.27 378.441C666.933 379.201 667.463 379.756 668.21 379.756H674.233C674.98 379.756 675.63 379.189 675.932 378.441L677.245 375.052H689.098L690.411 378.441H690.435ZM683.099 361.29H683.472L686.484 368.828H679.895L683.099 361.29Z" fill="white"/>
</g>
<path fill-rule="evenodd" clip-rule="evenodd" d="M701.042 455.95V453.453H698.525V451.74H701.042V449.243H702.717V451.74H705.234V453.453H702.717V455.95H701.042Z" fill="#0268D3"/>
<path fill-rule="evenodd" clip-rule="evenodd" d="M651.93 453.453V451.74H658.652V453.453H651.93Z" fill="#0268D3"/>
<path fill-rule="evenodd" clip-rule="evenodd" d="M680.058 427.363C690.213 428.835 698.115 437.302 698.741 447.724H705.644C704.969 433.889 693.887 422.78 680.058 422.105V427.363ZM655.038 447.724C655.291 443.562 656.701 439.715 658.953 436.494L656.074 434.432C653.581 438.291 652.039 442.839 651.81 447.724H655.038ZM660.616 434.395C664.627 429.945 670.433 427.134 676.89 427.134C677.059 427.134 677.215 427.134 677.384 427.134V422.093C669.397 422.479 662.314 426.362 657.64 432.236L660.628 434.383L660.616 434.395Z" fill="#0268D3"/>
<path fill-rule="evenodd" clip-rule="evenodd" d="M677.986 436.362C684.587 436.362 689.936 441.717 689.936 448.327C689.936 454.937 684.587 460.292 677.986 460.292C671.385 460.292 666.036 454.937 666.036 448.327C666.036 441.717 671.385 436.362 677.986 436.362Z" fill="#B2B2B2"/>
<path fill-rule="evenodd" clip-rule="evenodd" d="M687.346 455.769C685.153 458.519 681.781 460.292 677.986 460.292C674.191 460.292 670.819 458.531 668.626 455.769L658.893 469.76L657.688 471.485C663.109 476.249 670.204 479.132 677.986 479.132C685.768 479.132 692.863 476.249 698.284 471.485L697.079 469.76L687.346 455.769Z" fill="url(#paint17_linear_17_2)"/>
<path d="M677.565 436.609C684.166 436.609 689.515 441.964 689.515 448.574C689.515 451.355 688.567 453.913 686.978 455.944L696.657 469.858L697.862 471.583C692.442 476.347 685.347 479.23 677.565 479.23C669.783 479.23 662.687 476.347 657.267 471.583L658.472 469.858L668.15 455.944C666.562 453.913 665.615 451.355 665.615 448.574C665.615 441.964 670.964 436.609 677.565 436.609Z" stroke="#F5F5F5" stroke-width="1.8" stroke-miterlimit="22.93" stroke-linejoin="round"/>
</g>
<defs>
<filter id="filter0_d_17_2" x="599.667" y="285.739" width="44.0904" height="40.7789" filterUnits="userSpaceOnUse" color-interpolation-filters="sRGB">
<feFlood flood-opacity="0" result="BackgroundImageFix"/>
<feColorMatrix in="SourceAlpha" type="matrix" values="0 0 0 0 0 0 0 0 0 0 0 0 0 0 0 0 0 0 127 0" result="hardAlpha"/>
<feOffset dy="1.8"/>
<feGaussianBlur stdDeviation="3.6"/>
<feComposite in2="hardAlpha" operator="out"/>
<feColorMatrix type="matrix" values="0 0 0 0 0 0 0 0 0 0 0 0 0 0 0 0 0 0 0.6 0"/>
<feBlend mode="normal" in2="BackgroundImageFix" result="effect1_dropShadow_17_2"/>
<feBlend mode="normal" in="SourceGraphic" in2="effect1_dropShadow_17_2" result="shape"/>
</filter>
<filter id="filter1_i_17_2" x="49.4329" y="437.061" width="147.203" height="105.975" filterUnits="userSpaceOnUse" color-interpolation-filters="sRGB">
<feFlood flood-opacity="0" result="BackgroundImageFix"/>
<feBlend mode="normal" in="SourceGraphic" in2="BackgroundImageFix" result="shape"/>
<feColorMatrix in="SourceAlpha" type="matrix" values="0 0 0 0 0 0 0 0 0 0 0 0 0 0 0 0 0 0 127 0" result="hardAlpha"/>
<feOffset dy="5.4"/>
<feGaussianBlur stdDeviation="2.25"/>
<feComposite in2="hardAlpha" operator="arithmetic" k2="-1" k3="1"/>
<feColorMatrix type="matrix" values="0 0 0 0 0 0 0 0 0 0 0 0 0 0 0 0 0 0 0.14 0"/>
<feBlend mode="normal" in2="shape" result="effect1_innerShadow_17_2"/>
</filter>
<filter id="filter2_d_17_2" x="724.767" y="285.739" width="42.2506" height="40.7789" filterUnits="userSpaceOnUse" color-interpolation-filters="sRGB">
<feFlood flood-opacity="0" result="BackgroundImageFix"/>
<feColorMatrix in="SourceAlpha" type="matrix" values="0 0 0 0 0 0 0 0 0 0 0 0 0 0 0 0 0 0 127 0" result="hardAlpha"/>
<feOffset dy="1.8"/>
<feGaussianBlur stdDeviation="3.6"/>
<feComposite in2="hardAlpha" operator="out"/>
<feColorMatrix type="matrix" values="0 0 0 0 0 0 0 0 0 0 0 0 0 0 0 0 0 0 0.6 0"/>
<feBlend mode="normal" in2="BackgroundImageFix" result="effect1_dropShadow_17_2"/>
<feBlend mode="normal" in="SourceGraphic" in2="effect1_dropShadow_17_2" result="shape"/>
</filter>
<filter id="filter3_d_17_2" x="661.139" y="227.517" width="44.4157" height="40.7789" filterUnits="userSpaceOnUse" color-interpolation-filters="sRGB">
<feFlood flood-opacity="0" result="BackgroundImageFix"/>
<feColorMatrix in="SourceAlpha" type="matrix" values="0 0 0 0 0 0 0 0 0 0 0 0 0 0 0 0 0 0 127 0" result="hardAlpha"/>
<feOffset dy="1.8"/>
<feGaussianBlur stdDeviation="3.6"/>
<feComposite in2="hardAlpha" operator="out"/>
<feColorMatrix type="matrix" values="0 0 0 0 0 0 0 0 0 0 0 0 0 0 0 0 0 0 0.6 0"/>
<feBlend mode="normal" in2="BackgroundImageFix" result="effect1_dropShadow_17_2"/>
<feBlend mode="normal" in="SourceGraphic" in2="effect1_dropShadow_17_2" result="shape"/>
</filter>
<filter id="filter4_d_17_2" x="659.967" y="347.977" width="46.8067" height="40.7788" filterUnits="userSpaceOnUse" color-interpolation-filters="sRGB">
<feFlood flood-opacity="0" result="BackgroundImageFix"/>
<feColorMatrix in="SourceAlpha" type="matrix" values="0 0 0 0 0 0 0 0 0 0 0 0 0 0 0 0 0 0 127 0" result="hardAlpha"/>
<feOffset dy="1.8"/>
<feGaussianBlur stdDeviation="3.6"/>
<feComposite in2="hardAlpha" operator="out"/>
<feColorMatrix type="matrix" values="0 0 0 0 0 0 0 0 0 0 0 0 0 0 0 0 0 0 0.6 0"/>
<feBlend mode="normal" in2="BackgroundImageFix" result="effect1_dropShadow_17_2"/>
<feBlend mode="normal" in="SourceGraphic" in2="effect1_dropShadow_17_2" result="shape"/>
</filter>
<linearGradient id="paint0_linear_17_2" x1="186.3" y1="-22.5291" x2="217.879" y2="148.677" gradientUnits="userSpaceOnUse">
<stop stop-color="#79BBFF"/>
<stop offset="1" stop-color="#0268D3"/>
</linearGradient>
<linearGradient id="paint1_linear_17_2" x1="713.202" y1="-22.5291" x2="681.624" y2="148.677" gradientUnits="userSpaceOnUse">
<stop stop-color="#79BBFF"/>
<stop offset="1" stop-color="#0268D3"/>
</linearGradient>
<linearGradient id="paint2_linear_17_2" x1="888.117" y1="775.379" x2="21.4166" y2="775.379" gradientUnits="userSpaceOnUse">
<stop stop-color="#CFCFCF"/>
<stop offset="0.22563" stop-color="#EBEBEB"/>
<stop offset="0.501052" stop-color="#CFCFCF"/>
<stop offset="0.792633" stop-color="#EBEBEB"/>
<stop offset="1" stop-color="#CFCFCF"/>
</linearGradient>
<radialGradient id="paint3_radial_17_2" cx="0" cy="0" r="1" gradientUnits="userSpaceOnUse" gradientTransform="translate(621.934 304.138) rotate(90) scale(27.936 27.9)">
<stop stop-color="white"/>
<stop offset="0.713725" stop-color="#F0F0F0"/>
<stop offset="1" stop-color="#CECECE"/>
</radialGradient>
<linearGradient id="paint4_linear_17_2" x1="621.914" y1="275.301" x2="621.914" y2="334.777" gradientUnits="userSpaceOnUse">
<stop stop-color="#B2B2B2"/>
<stop offset="1" stop-color="#F2F2F2"/>
</linearGradient>
<linearGradient id="paint5_linear_17_2" x1="344.573" y1="333.241" x2="314.423" y2="333.241" gradientUnits="userSpaceOnUse">
<stop stop-color="#E0E0E0"/>
<stop offset="1" stop-color="#B2B2B2"/>
</linearGradient>
<linearGradient id="paint6_linear_17_2" x1="449.863" y1="375.78" x2="449.863" y2="588.004" gradientUnits="userSpaceOnUse">
<stop stop-color="#E3E3E3"/>
<stop offset="1" stop-color="#C8C8C8"/>
</linearGradient>
<linearGradient id="paint7_linear_17_2" x1="60.5666" y1="510.955" x2="172.64" y2="543.769" gradientUnits="userSpaceOnUse">
<stop stop-color="#D3D3D3"/>
<stop offset="1" stop-color="#C2C2C2"/>
</linearGradient>
<linearGradient id="paint8_linear_17_2" x1="450.139" y1="166.518" x2="450.139" y2="370.758" gradientUnits="userSpaceOnUse">
<stop stop-color="#C9C9C9"/>
<stop offset="1" stop-color="#787878"/>
</linearGradient>
<linearGradient id="paint9_linear_17_2" x1="450.139" y1="166.518" x2="450.139" y2="370.758" gradientUnits="userSpaceOnUse">
<stop stop-color="#F8F8F8"/>
<stop offset="1" stop-color="#646464"/>
</linearGradient>
<radialGradient id="paint10_radial_17_2" cx="0" cy="0" r="1" gradientUnits="userSpaceOnUse" gradientTransform="translate(744.567 304.138) rotate(90) scale(27.936 27.9)">
<stop stop-color="white"/>
<stop offset="0.713725" stop-color="#F0F0F0"/>
<stop offset="1" stop-color="#CECECE"/>
</radialGradient>
<linearGradient id="paint11_linear_17_2" x1="744.547" y1="275.301" x2="744.547" y2="334.777" gradientUnits="userSpaceOnUse">
<stop stop-color="#B2B2B2"/>
<stop offset="1" stop-color="#F2F2F2"/>
</linearGradient>
<linearGradient id="paint12_linear_17_2" x1="840.417" y1="438.862" x2="816.562" y2="446.054" gradientUnits="userSpaceOnUse">
<stop stop-color="#B2B2B2"/>
<stop offset="1" stop-color="#666666"/>
</linearGradient>
<radialGradient id="paint13_radial_17_2" cx="0" cy="0" r="1" gradientUnits="userSpaceOnUse" gradientTransform="translate(683.367 246.463) rotate(90) scale(27.936 27.9)">
<stop stop-color="white"/>
<stop offset="0.713725" stop-color="#F0F0F0"/>
<stop offset="1" stop-color="#CECECE"/>
</radialGradient>
<linearGradient id="paint14_linear_17_2" x1="683.347" y1="217.626" x2="683.347" y2="277.103" gradientUnits="userSpaceOnUse">
<stop stop-color="#B2B2B2"/>
<stop offset="1" stop-color="#F2F2F2"/>
</linearGradient>
<radialGradient id="paint15_radial_17_2" cx="0" cy="0" r="1" gradientUnits="userSpaceOnUse" gradientTransform="translate(683.367 367.219) rotate(90) scale(27.936 27.9)">
<stop stop-color="white"/>
<stop offset="0.713725" stop-color="#F0F0F0"/>
<stop offset="1" stop-color="#CECECE"/>
</radialGradient>
<linearGradient id="paint16_linear_17_2" x1="683.347" y1="338.382" x2="683.347" y2="397.859" gradientUnits="userSpaceOnUse">
<stop stop-color="#B2B2B2"/>
<stop offset="1" stop-color="#F2F2F2"/>
</linearGradient>
<linearGradient id="paint17_linear_17_2" x1="700.017" y1="479.132" x2="669.867" y2="479.132" gradientUnits="userSpaceOnUse">
<stop stop-color="#E0E0E0"/>
<stop offset="1" stop-color="#B2B2B2"/>
</linearGradient>
<clipPath id="clip0_17_2">
<rect width="900" height="775" fill="white"/>
</clipPath>
</defs>
</svg>
